<svg width="343" height="304" viewBox="0 0 343 304" fill="none" xmlns="http://www.w3.org/2000/svg">
<g clip-path="url(#clip0_10_4313)">
<path d="M338.891 107.532C310.519 22.821 186.25 12.9776 112.899 21.5895C78.5014 25.6297 38.8215 34.977 18.4647 66.049C-4.03805 100.355 0.832153 148.952 32.5585 175.293C75.1553 210.653 98.1048 175.071 136.497 158.291C180.189 139.18 184.078 180.263 209.322 205.825C271.566 268.855 363.575 181.07 338.891 107.532ZM275.061 183.169H275.202H275.061ZM276.673 183.373H276.796H276.673ZM276.857 183.418H277.041H276.857Z" fill="#01635D"/>
<path opacity="0.9" d="M338.891 107.532C310.519 22.821 186.25 12.9776 112.899 21.5895C78.5014 25.6297 38.8215 34.977 18.4647 66.049C-4.03805 100.355 0.832153 148.952 32.5585 175.293C75.1553 210.653 98.1048 175.071 136.497 158.291C180.189 139.18 184.078 180.263 209.322 205.825C271.566 268.855 363.575 181.07 338.891 107.532ZM275.061 183.169H275.202H275.061ZM276.673 183.373H276.796H276.673ZM276.857 183.418H277.041H276.857Z" fill="white"/>
<path d="M169.835 287C263.633 287 339.67 282.51 339.67 276.97C339.67 271.431 263.633 266.941 169.835 266.941C76.0378 266.941 0 271.431 0 276.97C0 282.51 76.0378 287 169.835 287Z" fill="#F5F5F5"/>
<path d="M237.755 71.3207C237.615 73.7749 237.335 76.0254 237.019 78.4087C236.704 80.7921 236.266 83.0159 235.767 85.3018C235.267 87.5877 234.724 89.8824 234.015 92.1417C233.331 94.4217 232.521 96.6609 231.589 98.8488L230.853 100.506C230.748 100.754 230.546 101.117 230.389 101.392C230.231 101.666 230.047 101.994 229.872 102.278C229.19 103.358 228.428 104.386 227.594 105.352C226.046 107.154 224.378 108.848 222.601 110.42C219.163 113.482 215.506 116.283 211.661 118.802L209.436 115.895C211.004 114.363 212.598 112.777 214.14 111.2C215.682 109.623 217.206 108.01 218.651 106.38C220.08 104.796 221.427 103.14 222.689 101.418C223.262 100.623 223.783 99.7918 224.248 98.9285C224.336 98.7336 224.45 98.5298 224.529 98.3438C224.624 98.1445 224.708 97.9405 224.783 97.7324L225.343 96.2528C226.764 92.1844 227.871 88.0106 228.654 83.769C229.075 81.6338 229.381 79.4631 229.697 77.3012C230.012 75.1394 230.248 72.8712 230.441 70.8511L237.755 71.3207Z" fill="#FFB573"/>
<path d="M232.762 62.4873C229.81 63.2404 227.743 75.5469 227.743 75.5469L235.889 81.1465C235.889 81.1465 243.694 68.7425 241.425 65.4554C239.034 62.0266 237.081 61.3709 232.762 62.4873Z" fill="#01635D"/>
<path opacity="0.2" d="M233.034 65.2339L230.765 77.6291L235.338 80.7744L233.034 65.2339Z" fill="black"/>
<path d="M210.785 114.85L202.656 115.444L207.509 120.946C207.509 120.946 212.003 119.909 212.765 117.003L210.785 114.85Z" fill="#FFB573"/>
<path d="M198.172 118.359L201.5 123.542L207.509 120.946L202.656 115.444L198.172 118.359Z" fill="#FFB573"/>
<path d="M248.757 269.563H241.583L241.11 252.765H248.275L248.757 269.563Z" fill="#FFB573"/>
<path d="M298.352 248.184L291.713 250.922L283.304 236.259L289.943 233.512L298.352 248.184Z" fill="#FFB573"/>
<path d="M290.46 249.921L297.389 245.757C297.508 245.683 297.649 245.656 297.786 245.68C297.923 245.705 298.047 245.779 298.133 245.89L302.18 250.957C302.276 251.089 302.344 251.24 302.379 251.399C302.414 251.559 302.415 251.724 302.383 251.885C302.351 252.045 302.286 252.197 302.192 252.33C302.098 252.463 301.978 252.575 301.839 252.659C299.404 254.067 298.151 254.625 295.103 256.451C293.228 257.576 288.822 261.439 286.238 262.998C283.654 264.558 281.99 262.041 282.936 261.164C285.987 258.372 288.297 254.851 289.654 250.922C289.8 250.504 290.085 250.149 290.46 249.921Z" fill="#263238"/>
<path d="M241.338 268.722H249.396C249.536 268.716 249.672 268.765 249.777 268.857C249.883 268.949 249.95 269.078 249.966 269.218L250.842 275.668C250.859 275.831 250.842 275.995 250.792 276.15C250.742 276.306 250.66 276.449 250.552 276.57C250.444 276.691 250.311 276.788 250.164 276.854C250.016 276.92 249.856 276.954 249.694 276.953C246.882 276.908 245.533 276.74 241.986 276.74C239.805 276.74 235.302 276.97 232.289 276.97C229.276 276.97 229.118 273.958 230.371 273.683C235.994 272.461 238.202 270.777 240.094 269.165C240.443 268.872 240.884 268.715 241.338 268.722Z" fill="#263238"/>
<g opacity="0.2">
<path opacity="0.2" d="M241.11 252.765L241.355 261.43H248.529L248.284 252.765H241.11Z" fill="black"/>
<path opacity="0.2" d="M289.944 233.512L283.304 236.259L287.64 243.816L294.279 241.079L289.944 233.512Z" fill="black"/>
</g>
<path d="M232.762 62.4873C232.762 62.4873 229.346 63.7011 236.196 106.265H265.312C264.822 94.277 264.804 86.8789 270.471 62.2747C266.394 61.4202 262.26 60.8694 258.103 60.6267C253.7 60.3074 249.28 60.3074 244.877 60.6267C239.209 61.1494 232.762 62.4873 232.762 62.4873Z" fill="#01635D"/>
<path d="M258.112 60.6267C253.709 60.3074 249.288 60.3074 244.885 60.6267C243.3 60.7685 241.653 60.9811 240.103 61.2026C239.428 63.7897 239.56 67.4046 242.17 72.1359C242.587 72.8901 243.263 73.464 244.07 73.7496C244.876 74.0351 245.758 74.0126 246.55 73.6864C248.669 72.8004 259.399 68.2375 262.851 62.5848L263.727 61.1229C261.992 60.9102 260.056 60.7242 258.112 60.6267Z" fill="white"/>
<path d="M270.48 35.5174C270.48 46.1494 261.826 53.1666 252.655 57.6054C243.168 62.1949 233.621 48.9846 233.621 38.3526C233.62 35.8236 234.111 33.319 235.067 30.9822C236.023 28.6453 237.425 26.5218 239.193 24.7331C240.96 22.9444 243.059 21.5254 245.369 20.5573C247.679 19.5892 250.155 19.091 252.655 19.091C263.166 19.091 270.48 24.8854 270.48 35.5174Z" fill="#263238"/>
<path d="M272.898 23.2286C272.898 27.2599 270.13 31.6013 266.135 31.6013C264.221 31.6013 262.385 30.8321 261.032 29.463C259.678 28.0939 258.918 26.2369 258.918 24.3006C258.918 22.3644 259.678 20.5074 261.032 19.1383C262.385 17.7692 264.221 17 266.135 17C270.13 17 272.898 19.1973 272.898 23.2286Z" fill="#263238"/>
<path d="M256.807 45.5647C255.931 49.8618 255.134 57.7561 258.112 60.6267C258.112 60.6267 256.947 64.9947 249.046 64.9947C240.348 64.9947 244.885 60.6267 244.885 60.6267C249.633 59.4749 249.51 55.9132 248.687 52.5729L256.807 45.5647Z" fill="#FFB573"/>
<path d="M258.112 60.6267C253.709 60.3074 249.288 60.3074 244.885 60.6267L244.009 60.7153C243.114 62.5658 242.976 64.6985 243.624 66.6515C243.758 67.1532 244 67.6189 244.333 68.0154C244.665 68.412 245.079 68.7298 245.547 68.9462C246.014 69.1627 246.523 69.2725 247.036 69.2679C247.55 69.2633 248.057 69.1444 248.52 68.9197C252.182 67.1477 257.858 63.9847 259.837 60.7419C259.277 60.6976 258.69 60.6533 258.112 60.6267Z" fill="#FFB573"/>
<path opacity="0.2" d="M253.496 48.4265L248.669 52.5995C248.874 53.3776 249.011 54.172 249.081 54.974C250.894 54.7082 253.382 52.697 253.575 50.7744C253.688 49.9933 253.662 49.1979 253.496 48.4265Z" fill="black"/>
<path d="M257.499 34.4011C258.821 41.4891 259.531 44.4394 256.947 48.9049C253.058 55.6208 244.176 55.7182 240.795 49.1795C237.746 43.3054 236.1 32.7177 242.152 28.2256C243.481 27.2272 245.04 26.5889 246.681 26.3716C248.322 26.1543 249.991 26.365 251.528 26.9838C253.066 27.6027 254.422 28.609 255.467 29.9072C256.512 31.2054 257.211 32.7524 257.499 34.4011Z" fill="#FFB573"/>
<path d="M236.196 106.265C236.196 106.265 230.537 162.145 231.01 184.233C231.492 207.269 239.831 259.711 239.831 259.711H249.545C249.545 259.711 248.012 208.58 248.871 185.987C249.799 161.347 257.543 106.247 257.543 106.247L236.196 106.265Z" fill="#263238"/>
<path d="M250.369 260.101H238.99L238.158 256.433L250.894 255.981L250.369 260.101Z" fill="#01635D"/>
<path opacity="0.2" d="M248.757 120.166C241.601 134.723 247.32 161.276 249.852 171.155C251.148 156.324 253.356 138.178 255.037 124.862C253.925 117.331 252.059 113.459 248.757 120.166Z" fill="black"/>
<path d="M243.887 106.265C243.887 106.265 250.483 164.36 255.467 183.01C261.379 205.16 285.415 242.93 285.415 242.93L294.463 239.191C294.463 239.191 278.95 196.176 274.422 184.507C264.787 159.611 273.038 122.487 265.321 106.265H243.887Z" fill="#263238"/>
<path d="M295.698 239.236L284.469 243.878L281.832 240.795L294.805 234.744L295.698 239.236Z" fill="#01635D"/>
<path d="M246.979 39.0614C247.119 39.6285 246.935 40.1601 246.576 40.2575C246.217 40.355 245.796 39.9651 245.647 39.3715C245.498 38.7779 245.691 38.2729 246.059 38.1754C246.427 38.078 246.839 38.4944 246.979 39.0614Z" fill="#263238"/>
<path d="M240.637 40.6828C240.786 41.2498 240.637 41.7903 240.234 41.8789C239.831 41.9675 239.454 41.5865 239.314 40.9929C239.174 40.3993 239.314 39.8943 239.717 39.7968C240.12 39.6993 240.497 40.1158 240.637 40.6828Z" fill="#263238"/>
<path d="M239.91 39.8145H238.465C238.465 39.8145 239.402 40.6562 239.91 39.8145Z" fill="#263238"/>
<path d="M242.853 41.2055C242.677 42.6261 242.309 44.0154 241.758 45.3343C242.095 45.4689 242.458 45.5268 242.82 45.5038C243.181 45.4808 243.534 45.3776 243.852 45.2014L242.853 41.2055Z" fill="#ED893E"/>
<path d="M247.469 46.6456C247.204 46.7543 246.932 46.8461 246.655 46.9203C246.611 46.929 246.565 46.9213 246.526 46.8984C246.488 46.8756 246.458 46.8393 246.444 46.7962C246.434 46.7516 246.44 46.7045 246.463 46.6649C246.486 46.6252 246.523 46.5961 246.567 46.5836C247.266 46.4209 247.918 46.096 248.471 45.6347C249.024 45.1734 249.464 44.5883 249.755 43.9256C249.763 43.9047 249.774 43.8854 249.789 43.8689C249.804 43.8525 249.822 43.8391 249.842 43.8297C249.862 43.8202 249.883 43.8148 249.905 43.8138C249.927 43.8128 249.949 43.8161 249.97 43.8237C249.991 43.8313 250.01 43.8429 250.026 43.8579C250.042 43.8729 250.055 43.891 250.065 43.9111C250.074 43.9313 250.08 43.9531 250.081 43.9754C250.082 43.9976 250.078 44.0198 250.071 44.0408C249.829 44.6275 249.475 45.1599 249.028 45.607C248.582 46.0541 248.052 46.4072 247.469 46.6456Z" fill="#263238"/>
<path d="M239.761 29.1205C239.761 29.1205 249.134 38.8665 258.48 38.8665C266.171 38.8665 265.917 25.8246 255.747 25.2841C245.577 24.7436 235.285 21.9616 239.761 29.1205Z" fill="#263238"/>
<path d="M260.976 40.355C260.798 41.7351 260.086 42.9873 258.997 43.837C257.543 44.9534 256.15 43.837 255.992 42.065C255.852 40.4968 256.439 38.0248 258.164 37.635C258.54 37.5503 258.931 37.5607 259.301 37.6653C259.672 37.7699 260.011 37.9653 260.29 38.2344C260.568 38.5034 260.776 38.8377 260.896 39.2076C261.015 39.5776 261.043 39.9717 260.976 40.355Z" fill="#FFB573"/>
<path d="M248.231 35.5972C248.181 35.6492 248.115 35.6833 248.044 35.6945C247.973 35.7057 247.901 35.6933 247.837 35.6592C246.444 34.9327 244.64 35.863 244.622 35.8718C244.583 35.8928 244.541 35.9057 244.496 35.9099C244.452 35.9141 244.408 35.9095 244.366 35.8964C244.323 35.8832 244.284 35.8617 244.25 35.8332C244.216 35.8047 244.188 35.7696 244.167 35.7301C244.146 35.6905 244.133 35.6472 244.129 35.6027C244.125 35.5581 244.13 35.5131 244.143 35.4704C244.156 35.4276 244.177 35.3878 244.205 35.3533C244.233 35.3188 244.268 35.2903 244.307 35.2694C244.395 35.2162 246.444 34.1619 248.152 35.0479C248.192 35.0684 248.227 35.0967 248.256 35.1311C248.284 35.1655 248.306 35.2054 248.319 35.2483C248.332 35.2913 248.336 35.3364 248.332 35.3811C248.327 35.4258 248.314 35.4691 248.293 35.5086C248.277 35.5414 248.257 35.5714 248.231 35.5972Z" fill="#263238"/>
<path d="M237.352 37.0679C237.298 37.091 237.238 37.0991 237.18 37.0913C237.121 37.0835 237.066 37.0602 237.019 37.0236C236.947 36.9703 236.898 36.8903 236.883 36.8007C236.868 36.7112 236.889 36.6194 236.941 36.5452C237.251 36.0974 237.662 35.731 238.14 35.4767C238.619 35.2224 239.15 35.0875 239.691 35.0833C239.78 35.0901 239.863 35.132 239.922 35.1999C239.981 35.2678 240.011 35.3563 240.006 35.4465C240.005 35.4915 239.995 35.5358 239.977 35.5769C239.959 35.6179 239.932 35.6547 239.9 35.6853C239.867 35.7159 239.828 35.7395 239.787 35.7548C239.745 35.7701 239.7 35.7767 239.656 35.7744C239.229 35.7842 238.81 35.8961 238.434 36.1009C238.058 36.3057 237.735 36.5976 237.492 36.9527C237.456 37.0029 237.408 37.0426 237.352 37.0679Z" fill="#263238"/>
<path d="M287.71 252.667H287.622C287.462 252.629 287.314 252.551 287.191 252.439C287.069 252.328 286.976 252.187 286.921 252.03C286.876 251.935 286.857 251.83 286.866 251.725C286.875 251.621 286.913 251.521 286.974 251.436C287.491 250.674 290.084 250.771 290.381 250.789C290.414 250.789 290.446 250.799 290.473 250.818C290.499 250.837 290.519 250.864 290.53 250.895C290.544 250.927 290.547 250.962 290.539 250.996C290.531 251.029 290.513 251.059 290.487 251.082C289.838 251.728 288.595 252.774 287.71 252.667ZM289.952 251.108C288.919 251.108 287.526 251.223 287.246 251.622C287.222 251.662 287.21 251.708 287.21 251.755C287.21 251.802 287.222 251.847 287.246 251.888C287.279 251.993 287.338 252.088 287.418 252.164C287.498 252.24 287.595 252.294 287.701 252.322C288.183 252.428 289.006 251.95 289.952 251.108Z" fill="#01635D"/>
<path d="M290.11 251.108C289.234 251.002 287.648 250.39 287.403 249.682C287.359 249.553 287.359 249.413 287.403 249.284C287.448 249.155 287.534 249.045 287.648 248.973C287.752 248.892 287.871 248.835 287.998 248.804C288.124 248.774 288.256 248.771 288.384 248.796C289.409 248.999 290.469 250.789 290.513 250.86C290.528 250.887 290.536 250.917 290.536 250.949C290.536 250.98 290.528 251.01 290.513 251.037C290.496 251.062 290.474 251.083 290.448 251.098C290.422 251.114 290.394 251.123 290.364 251.126L290.11 251.108ZM288.27 249.132C288.198 249.122 288.124 249.127 288.053 249.147C287.982 249.167 287.916 249.201 287.859 249.247C287.684 249.38 287.692 249.487 287.727 249.566C287.894 250.045 289.181 250.638 290.049 250.754C289.663 250.178 288.936 249.256 288.297 249.132H288.27Z" fill="#01635D"/>
<path d="M238.649 269.989C238.032 270.045 237.415 269.889 236.897 269.546C236.783 269.44 236.696 269.309 236.643 269.162C236.59 269.016 236.572 268.859 236.59 268.704C236.596 268.61 236.626 268.519 236.676 268.44C236.727 268.361 236.797 268.296 236.879 268.252C237.755 267.756 240.619 269.236 240.944 269.413C240.975 269.429 241 269.455 241.016 269.487C241.032 269.519 241.037 269.555 241.031 269.59C241.026 269.625 241.011 269.657 240.988 269.682C240.964 269.707 240.934 269.725 240.9 269.732C240.159 269.888 239.405 269.974 238.649 269.989ZM237.37 268.491C237.261 268.485 237.153 268.506 237.054 268.553C237.021 268.571 236.992 268.598 236.972 268.631C236.952 268.663 236.941 268.701 236.941 268.74C236.927 268.84 236.938 268.942 236.971 269.038C237.005 269.133 237.06 269.219 237.133 269.289C237.571 269.688 238.754 269.75 240.339 269.484C239.413 268.983 238.409 268.647 237.37 268.491Z" fill="#01635D"/>
<path d="M240.874 269.732H240.786C239.91 269.333 238.237 267.774 238.368 266.95C238.368 266.755 238.535 266.516 239.008 266.462C239.177 266.445 239.349 266.463 239.511 266.515C239.674 266.567 239.824 266.651 239.954 266.764C240.83 267.526 241.014 269.475 241.022 269.555C241.027 269.585 241.023 269.617 241.011 269.645C240.998 269.673 240.978 269.697 240.952 269.714C240.928 269.726 240.901 269.732 240.874 269.732ZM239.122 266.79H239.034C238.728 266.79 238.701 266.95 238.701 266.985C238.614 267.481 239.77 268.713 240.637 269.245C240.577 268.427 240.271 267.648 239.761 267.012C239.597 266.865 239.384 266.786 239.165 266.79H239.122Z" fill="#01635D"/>
<path d="M246.225 38.1932L244.78 38.1489C244.78 38.1489 245.744 39.0349 246.225 38.1932Z" fill="#263238"/>
<path d="M265.759 104.537L266.503 107.195C266.6 107.408 266.363 107.611 266.022 107.611H236.047C235.784 107.611 235.565 107.478 235.557 107.319L235.294 104.661C235.294 104.475 235.495 104.324 235.784 104.324H265.312C265.398 104.321 265.483 104.339 265.561 104.376C265.638 104.413 265.706 104.468 265.759 104.537Z" fill="#01635D"/>
<path opacity="0.2" d="M265.759 104.537L266.503 107.195C266.6 107.408 266.363 107.611 266.022 107.611H236.047C235.784 107.611 235.565 107.478 235.557 107.319L235.294 104.661C235.294 104.475 235.495 104.324 235.784 104.324H265.312C265.398 104.321 265.483 104.339 265.561 104.376C265.638 104.413 265.706 104.468 265.759 104.537Z" fill="#FAFAFA"/>
<path d="M261.808 107.868H262.605C262.763 107.868 262.877 107.789 262.868 107.691L262.5 104.262C262.476 104.202 262.433 104.151 262.378 104.118C262.322 104.084 262.258 104.069 262.194 104.076H261.405C261.248 104.076 261.125 104.165 261.134 104.262L261.502 107.691C261.502 107.789 261.633 107.868 261.808 107.868Z" fill="#263238"/>
<path d="M238.272 107.868H239.06C239.218 107.868 239.332 107.789 239.323 107.691L238.955 104.262C238.955 104.165 238.806 104.076 238.649 104.076H237.86C237.703 104.076 237.58 104.165 237.589 104.262L237.965 107.691C237.974 107.789 238.158 107.868 238.272 107.868Z" fill="#263238"/>
<path d="M250.036 107.868H250.824C250.982 107.868 251.096 107.789 251.087 107.691L250.719 104.262C250.719 104.165 250.57 104.076 250.412 104.076H249.624C249.466 104.076 249.344 104.165 249.353 104.262L249.729 107.691C249.738 107.789 249.878 107.868 250.036 107.868Z" fill="#263238"/>
<path d="M253.461 105.981L247.154 101.427L247.741 108.781C247.741 108.781 251.945 110.686 254.302 108.852L253.461 105.981Z" fill="#FFB573"/>
<path d="M273.879 71.0106C274.422 75.3432 274.886 79.6934 275.315 84.0437C275.745 88.394 276.147 92.7442 276.507 97.0945L276.568 97.9096V98.3438C276.568 98.5741 276.568 98.8045 276.568 99.0348C276.575 100.002 276.399 100.961 276.051 101.861C275.399 103.447 274.299 104.803 272.889 105.76C271.784 106.53 270.582 107.147 269.315 107.594C268.171 108.004 267 108.335 265.811 108.586C261.354 109.447 256.804 109.709 252.278 109.366L252.234 105.698C254.275 105.423 256.395 105.095 258.427 104.679C260.464 104.294 262.471 103.767 264.436 103.102C266.15 102.597 267.761 101.787 269.192 100.709C269.584 100.427 269.873 100.022 270.016 99.5576C270.038 99.4286 270.038 99.2967 270.016 99.1677L269.823 97.8476C269.192 93.5151 268.606 89.1914 268.071 84.85C267.537 80.5085 266.994 76.1672 266.556 71.8169L273.879 71.0106Z" fill="#FFB573"/>
<path d="M270.48 62.2747C273.397 63.1607 276.909 73.332 276.909 73.332L265.584 81.5186C265.584 81.5186 261.458 73.0396 262.684 69.2209C263.954 65.2516 267.152 61.2469 270.48 62.2747Z" fill="#01635D"/>
<path d="M240.348 89.28C237.381 86.2375 233.408 84.4102 229.191 84.1489C224.975 83.8876 220.811 85.2105 217.499 87.8639C214.188 90.5174 211.961 94.3143 211.247 98.5262C210.534 102.738 211.383 107.068 213.632 110.686L212.87 117.047L219.168 116.285C222.742 118.559 227.021 119.418 231.183 118.698C235.345 117.978 239.098 115.729 241.722 112.383C244.346 109.037 245.657 104.829 245.404 100.566C245.15 96.3023 243.35 92.2836 240.348 89.28ZM223.171 106.646C222.171 105.634 221.49 104.346 221.215 102.944C220.939 101.541 221.08 100.088 221.621 98.7667C222.162 97.4456 223.079 96.3165 224.254 95.522C225.429 94.7276 226.811 94.3036 228.225 94.3036C229.639 94.3036 231.021 94.7276 232.196 95.522C233.371 96.3165 234.288 97.4456 234.829 98.7667C235.369 100.088 235.511 101.541 235.235 102.944C234.959 104.346 234.279 105.634 233.279 106.646C232.616 107.318 231.828 107.851 230.961 108.215C230.094 108.579 229.164 108.767 228.225 108.767C227.286 108.767 226.356 108.579 225.489 108.215C224.622 107.851 223.834 107.318 223.171 106.646Z" fill="#01635D"/>
<path opacity="0.4" d="M240.348 89.28C237.381 86.2375 233.408 84.4102 229.191 84.1489C224.975 83.8876 220.811 85.2105 217.499 87.8639C214.188 90.5174 211.961 94.3143 211.247 98.5262C210.534 102.738 211.383 107.068 213.632 110.686L212.87 117.047L219.168 116.285C222.742 118.559 227.021 119.418 231.183 118.698C235.345 117.978 239.098 115.729 241.722 112.383C244.346 109.037 245.657 104.829 245.404 100.566C245.15 96.3023 243.35 92.2836 240.348 89.28ZM223.171 106.646C222.171 105.634 221.49 104.346 221.215 102.944C220.939 101.541 221.08 100.088 221.621 98.7667C222.162 97.4456 223.079 96.3165 224.254 95.522C225.429 94.7276 226.811 94.3036 228.225 94.3036C229.639 94.3036 231.021 94.7276 232.196 95.522C233.371 96.3165 234.288 97.4456 234.829 98.7667C235.369 100.088 235.511 101.541 235.235 102.944C234.959 104.346 234.279 105.634 233.279 106.646C232.616 107.318 231.828 107.851 230.961 108.215C230.094 108.579 229.164 108.767 228.225 108.767C227.286 108.767 226.356 108.579 225.489 108.215C224.622 107.851 223.834 107.318 223.171 106.646Z" fill="black"/>
<path d="M241.128 101.702L241.951 107.833L247.741 108.781L247.154 101.427L241.128 101.702Z" fill="#FFB573"/>
<path d="M137.89 263.37C118.451 263.371 99.4488 257.542 83.2859 246.618C67.123 235.695 54.5255 220.169 47.0866 202.004C39.6476 183.839 37.7013 163.85 41.4939 144.566C45.2864 125.282 54.6474 107.568 68.393 93.6657C68.5572 93.5007 68.7792 93.4081 69.0106 93.4081C69.242 93.4081 69.464 93.5007 69.6281 93.6657L80.0342 104.183C80.1992 104.349 80.2918 104.576 80.2918 104.812C80.2918 105.048 80.1992 105.274 80.0342 105.441C79.8693 105.607 79.6456 105.701 79.4123 105.701C79.1791 105.701 78.9553 105.607 78.7904 105.441L69.015 95.5529C51.182 113.919 41.2414 138.665 41.3561 164.408C41.4709 190.15 51.6317 214.805 69.6276 233.008C87.6235 251.21 111.998 261.488 137.448 261.604C162.898 261.72 187.363 251.665 205.521 233.627L195.728 223.722C195.563 223.555 195.47 223.329 195.47 223.093C195.47 222.857 195.563 222.631 195.728 222.464C195.893 222.297 196.116 222.203 196.35 222.203C196.583 222.203 196.807 222.297 196.972 222.464L207.387 232.998C207.469 233.081 207.534 233.179 207.578 233.287C207.623 233.395 207.646 233.51 207.646 233.627C207.646 233.744 207.623 233.86 207.578 233.968C207.534 234.076 207.469 234.174 207.387 234.256C198.28 243.515 187.45 250.856 175.521 255.853C163.592 260.85 150.801 263.405 137.89 263.37Z" fill="#01635D"/>
<path d="M137.89 248.521C184.06 248.521 221.489 210.662 221.489 163.961C221.489 117.26 184.06 79.4011 137.89 79.4011C91.7191 79.4011 54.2905 117.26 54.2905 163.961C54.2905 210.662 91.7191 248.521 137.89 248.521Z" fill="#01635D"/>
<g opacity="0.2">
<path opacity="0.5" d="M202.148 94.6403L209.646 96.0933C208.989 96.5984 208.534 97.378 207.851 97.8653C213.211 97.9274 218.879 97.3072 224.047 98.7513C228.873 100.116 233.016 98.3704 237.948 98.902C240.838 99.2209 272.749 101.392 271.829 105.768C269.578 105.414 266.635 104.28 264.515 105.529L268.316 107.177C266.302 108.302 260.871 109.259 260.897 111.2C260.897 112.591 262.789 113.211 263.297 114.451C263.805 115.692 263.578 117.659 263.692 118.961C262.124 117.526 257.849 114.965 257.253 113.043C256.658 111.12 260.135 107.558 255.029 108.32C253.163 108.595 253.356 110.287 252.874 110.473C251.682 110.943 249.466 110.597 248.17 110.641C243.869 110.792 244.158 111.616 242.249 115.373C244.833 115.842 248.214 115.807 249.904 117.526C251.595 119.245 252.9 124.933 251.008 126.678C250.08 127.564 248.748 126.873 248.161 127.343C247.574 127.812 246.532 130.302 246.725 130.984C247.268 132.907 253.224 135.06 247.898 136.477C247.224 135.352 245.735 131.374 244.561 130.904C242.906 130.24 240.935 132.871 240.882 129.398L238.5 131.454C239.066 132.148 239.814 132.667 240.658 132.951C241.503 133.234 242.409 133.271 243.273 133.057C239.901 133.943 242.205 136.601 243.221 137.815C244.789 139.676 244.876 139.729 244.973 141.811C245.157 145.639 242.564 148.704 238.675 149.572C236.722 150.007 235.302 149.351 234.041 150.742C232.123 152.842 233.989 153.01 235.066 154.755C235.819 155.987 237.352 158.468 237.098 159.956C236.879 161.223 234.47 162.783 233.428 163.775C232.105 161.817 231.116 159.212 228.558 158.583C228.33 161.817 228.041 163.057 230.31 165.565C231.01 166.336 231.878 166.725 232.359 167.558C232.841 168.391 232.718 170.154 233.235 171.244C226.543 167.611 227.585 160.683 225.291 154.259C223.766 158.193 222.286 152.815 221.62 151.601C220.114 148.943 218.546 148.057 215.576 149.829C214.14 150.671 210.268 154.392 209.699 155.916C208.385 159.407 210.776 160.816 207.947 163.89C205.827 162.375 205.319 159.053 204.531 156.802C203.655 154.339 202.105 151.601 202.341 148.917C200.782 152.292 198.575 148.11 197.138 146.879C195.018 145.107 193.634 145.887 190.805 145.621C189.701 145.412 188.618 145.097 187.573 144.682C188.125 144.832 186.311 143.601 186.565 143.707C186.189 143.539 185.593 144.265 185.068 144.061C183.412 143.406 180.32 140.021 178.857 140.863C179.488 142.121 180.74 145.718 182.019 146.436C184.008 147.552 185.523 145.275 187.056 145.55C188.238 146.358 189.275 147.365 190.122 148.527C190.385 149.688 190.122 149.271 189.246 150.786C188.241 152.744 186.616 154.304 184.63 155.216C183.079 156.102 179.479 158.406 177.622 158.45C175.205 158.503 175.248 157.458 174.215 155.491C173.181 153.524 168.407 141.625 166.077 142.972C167.899 146.959 169.45 151.256 171.701 155.039C172.507 156.395 174.793 160.807 176.256 161.409C178.008 162.127 181.354 160.523 182.886 160.054C182.142 167.142 176.387 169.8 173.023 175.258C169.975 180.166 175.52 185.89 171.85 190.196C170.869 191.356 168.145 191.897 167.47 193.217C166.909 194.307 167.978 195.972 167.645 197.186C167.207 198.772 166.261 198.196 165.298 199.596C164.509 200.73 164.763 202.36 163.861 203.654C163.138 204.852 162.176 205.884 161.035 206.683C159.895 207.483 158.602 208.032 157.239 208.297C153.043 209.253 152.684 209.121 151.309 205.408L147.061 194.014C145.992 191.135 146.439 189.992 147.297 186.926C148.156 183.861 148.471 183.161 147.201 180.379C146.258 178.643 145.43 176.847 144.722 175.001C144.258 173.424 144.722 172.254 144.521 170.615C144.345 169.321 144.398 168.621 143.207 167.567C142.883 167.275 141.761 167.877 141.358 167.665C140.955 167.452 140.579 166.158 140.08 166.061C137.986 165.662 135.113 167.08 132.695 167.177C129.016 167.319 126.564 167.257 124.146 164.971C121.729 162.685 119.618 160.089 119.425 156.652C119.005 149.138 124.532 146.392 127.597 140.331C128.614 138.32 127.597 137.585 130.181 136.043C131.487 135.255 131.846 135.325 133.484 135.015C137.373 134.28 141.464 134.129 145.396 133.651C145.055 136.646 144.81 136.194 147.218 137.665C149.137 138.834 151.362 139.693 153.35 140.686C154.024 136.424 159.665 139.534 162.766 139.8C167.514 140.225 166.682 137.939 167.479 133.926C165.622 134.023 163.178 134.581 161.409 133.988C158.781 133.102 159.184 131.976 158.781 129.504L155.855 130.045C156.166 130.638 156.345 131.292 156.38 131.963C156.415 132.633 156.305 133.303 156.057 133.926C155.059 133.009 154.142 132.007 153.315 130.931C152.93 130.293 152.894 129.053 152.544 128.583C151.283 126.891 148.874 125.5 147.236 124.153C145.274 126.979 149.864 129.177 151.861 130.266C149.96 132.535 149.426 134.803 146.702 132.357C149.767 132.552 150.109 131.755 148.602 129.62C146.999 127.334 144.88 126.076 142.602 126.209C142.252 126.209 141.98 127.174 141.63 127.21C141.28 127.245 140.211 126.492 139.878 126.66C139.545 126.829 138.941 126.448 138.643 126.581C138.345 126.714 138.792 127.794 138.643 127.936C137.303 129.141 136.322 130.984 135.139 132.216C133.571 133.872 131.89 135.361 129.489 133.988C127.738 132.951 127.089 129.425 128.246 127.573C129.656 125.314 132.765 128.131 134.789 126.607C136.812 125.083 134.097 122.744 133.037 121.566C134.696 121.068 136.315 120.443 137.881 119.696C139.633 118.678 139.134 117.871 140.561 116.808C141.665 115.975 142.41 116.489 143.128 115.541C144.188 114.15 141.866 112.679 144.976 112.538C143.277 116.968 150.941 116.418 153.157 114.832C153.63 114.496 153.219 113.37 153.551 112.892C153.974 112.467 154.431 112.079 154.918 111.731V110.553H156.407C157.406 109.809 158.089 111.164 158.579 109.339C156.424 109.711 155.189 110.509 153.814 109.091C151.87 107.089 153.534 106.61 155.259 105.21C152.097 102.924 147.446 109.392 151.318 109.968C150.591 110.854 148.637 114.442 147.56 114.673C145.414 115.142 145.808 112.121 145.519 110.65C144.083 111.226 143.11 111.944 142.138 111.324C141.017 110.615 141.052 108.719 141.376 108.134C142.042 106.938 145.09 106.53 146.246 105.6C147.402 104.67 147.998 102.747 149.329 101.888C153.77 98.9463 162.556 100.027 166.612 103.172C164.763 104.307 162.46 103.562 160.428 103.323C161.619 104.918 163.283 106.867 165.447 106.185C165.718 106.096 166.226 104.696 166.734 104.369C167.899 103.598 169.905 103.243 171.237 102.765C175.695 101.179 179.12 101.144 183.815 102.012C181.529 95.8098 185.225 99.3538 189.474 98.583C191.506 98.2197 193.371 96.5984 195.334 95.9693C197.577 95.3911 199.853 94.9474 202.148 94.6403Z" fill="black"/>
<path opacity="0.5" d="M136.944 118.802L131.828 119.936C132.389 119.103 133.913 117.623 134.001 116.702C134.176 114.744 133.125 115.763 132.809 115.036C131.355 112.006 132.144 111.908 134.85 110.385C135.218 111.882 135.323 113.991 136.068 115.382C136.812 116.773 139.055 117.419 136.944 118.802Z" fill="black"/>
<path opacity="0.5" d="M132.319 115.187C130.83 117.774 132.047 117.747 128.57 118.314C129.463 116.223 128.955 113.849 132.319 115.187Z" fill="black"/>
<path opacity="0.5" d="M176.562 99.974C170.51 98.1223 180.005 95.4288 181.196 95.1276C178.726 95.1276 175.283 94.6226 173.313 96.5806C171.149 98.7514 173.716 101.197 176.562 99.974Z" fill="black"/>
<path opacity="0.5" d="M148.69 95.1276L150.88 93.3556C148.941 92.5467 146.815 92.3101 144.748 92.6734L148.69 95.1276Z" fill="black"/>
<path opacity="0.5" d="M149.908 92.0177C151.519 93.7898 153.709 92.9037 155.855 92.6291C153.867 92.3456 151.913 92.1506 149.908 92.0177Z" fill="black"/>
<path opacity="0.5" d="M251.297 137.097C251.786 138.126 252.427 139.073 253.198 139.906C254.074 136.052 256.456 138.019 258.953 135.68C260.302 134.422 260.205 131.764 258.41 129.965C255.887 127.422 257.902 131.338 256.894 133.137C255.773 135.086 252.742 135.175 251.297 137.097Z" fill="black"/>
<path opacity="0.5" d="M256.377 128.796L257.157 128.503C257.034 128.211 256.903 127.919 256.772 127.617C258.208 128.149 259.645 128.14 260.083 126.554L255.309 124.561C256.64 126.412 254.591 127.405 256.377 128.796Z" fill="black"/>
<path opacity="0.5" d="M254.967 123.852H256.185C254.396 120.97 252.375 118.244 250.141 115.701C249.361 117.517 253.793 122.027 254.967 123.852Z" fill="black"/>
<path opacity="0.5" d="M246.83 146.02C245.437 146.649 245.498 148.066 246.471 149.253L246.83 146.02Z" fill="black"/>
<path opacity="0.5" d="M236.275 151.646H237.764C237.308 153.054 237.501 152.868 236.073 153.037L236.275 151.646Z" fill="black"/>
<path opacity="0.5" d="M224.38 166.433C229.521 168.621 234.549 173.255 234.549 178.757C231.878 178.545 229.951 175.089 228.847 173.069C227.743 171.049 224.914 168.356 224.38 166.433Z" fill="black"/>
<path opacity="0.5" d="M239.568 171.058L238.062 170.721C236.599 174.806 241.338 178.695 244.447 175.665C245.884 174.265 245.586 171.669 245.884 170.012C246.304 167.7 247.18 166.903 244.929 165.139L239.568 171.058Z" fill="black"/>
<path opacity="0.5" d="M244.78 164.457C245.875 163.119 247.408 161.897 247.408 160.089C246.541 161.578 245.656 163.004 244.78 164.457Z" fill="black"/>
<path opacity="0.5" d="M248.538 159.318C246.786 156.846 246.9 156.04 247.119 153.037C249.247 153.285 248.17 156.297 249.458 157.83C251.315 160.036 253.583 160.018 253.732 163.545C253.82 165.671 252.664 167.541 250.316 165.246C248.766 163.731 249.799 161.214 248.538 159.318Z" fill="black"/>
<path opacity="0.5" d="M252.725 171.102C250.675 172.201 248.695 170.5 247.417 172.954C249.169 171.66 250.544 172.227 252.48 172.591C252.617 172.106 252.699 171.606 252.725 171.102Z" fill="black"/>
<path opacity="0.5" d="M250.78 173.237C248.783 174.699 247.723 172.759 246.917 175.435C246.593 176.507 247.119 178.793 248.293 178.757C248.249 177.481 247.785 176.099 248.801 175.275C248.547 176.817 249.081 177.792 250.78 177.171L249.361 174.513C250.009 174.584 250.71 174.239 251.358 174.318L250.78 173.237Z" fill="black"/>
<path opacity="0.5" d="M242.687 180.955C240.751 180.441 236.135 178.199 234.549 179.643C236.546 180.538 241.04 182.842 242.687 180.955Z" fill="black"/>
<path opacity="0.5" d="M255.747 169.942C255.253 170.434 254.936 171.079 254.847 171.774C254.758 172.47 254.902 173.175 255.256 173.778C255.586 173.204 255.799 172.568 255.884 171.91C255.968 171.251 255.921 170.582 255.747 169.942Z" fill="black"/>
<path opacity="0.5" d="M255.379 175.754C255.615 176.914 256.868 176.64 258.182 176.773C257.919 175.506 256.737 175.452 255.379 175.754Z" fill="black"/>
<path opacity="0.5" d="M254.039 175.754L254.573 176.268C254.246 176.396 253.884 176.396 253.557 176.268L254.039 175.754Z" fill="black"/>
<path opacity="0.5" d="M258.375 173.778C258.375 176.436 260.915 177.242 262.754 178.084C264.594 178.926 266.714 179.776 263.823 181.681C265.216 181.477 266.407 182.408 267.502 182.31C268.085 182.353 268.671 182.353 269.254 182.31C269.709 182.204 269.946 180.662 270.401 180.653C271.741 180.653 271.566 181.158 272.757 182.027C273.832 182.977 275.123 183.644 276.515 183.967C274.895 181.982 273.108 178.793 271.128 177.269C270.252 176.595 266.538 174.877 265.347 174.85C263.928 174.85 263.508 175.399 262.141 176.445C261.616 174.664 260.81 172.21 258.375 173.778Z" fill="black"/>
<path opacity="0.5" d="M273.922 178.137C275.464 179.298 280.054 178.943 278.6 176.445C277.268 178.332 276.103 178.137 273.922 178.137Z" fill="black"/>
<path opacity="0.5" d="M259.014 184.445C258.357 185.278 256.789 188.167 255.843 188.477C254.372 188.946 253.802 187.511 252.655 187.724C250.141 188.202 247.461 192.694 245.279 193.988C241.495 196.22 239.49 195.609 238.946 200.553C238.754 202.369 239.682 204.478 239.262 206.25C238.876 207.889 236.634 208.633 239.525 209.546C242.266 210.432 247.802 207.242 250.701 206.693C252.261 206.392 252.961 205.807 254.512 206.693C255.756 207.428 255.799 208.802 256.64 210.042C261.817 217.706 270.655 210.095 273.677 204.487C275.718 200.73 274.711 197.673 272.425 194.315C271.444 192.88 270.874 192.543 270.226 190.922C269.42 188.902 269.149 186.492 268.623 184.41L265.181 191.498C261.931 189.061 260.801 189.274 262.719 185.739L259.014 184.445Z" fill="black"/>
<path opacity="0.5" d="M260.249 215.305L264.34 215.562C263.14 217.157 262.369 219.354 259.96 218.672L260.249 215.305Z" fill="black"/>
<path opacity="0.5" d="M275.517 220.745C278.653 222.419 278.688 221.826 281.648 219.859C283.242 218.796 287.359 217.449 285.152 215.287L275.517 220.745Z" fill="black"/>
<path opacity="0.5" d="M285.975 215.305C286.275 215.773 286.625 216.207 287.018 216.598C287.894 215.89 291.643 213.71 291.783 212.727C291.923 211.743 289.689 209.803 288.962 208.899L285.975 215.305Z" fill="black"/>
<path opacity="0.5" d="M300.481 190.709C299.968 190.935 299.478 191.211 299.018 191.533C300.349 192.526 301.944 192.411 300.481 190.709Z" fill="black"/>
<path opacity="0.5" d="M285.713 194.2C285.713 194.2 289.794 197.372 289.47 196.389C289.059 195.157 286.921 194.112 285.713 194.2Z" fill="black"/>
<path opacity="0.5" d="M243.869 181.344C244.43 183.391 251.464 181.805 253.557 181.344H243.869Z" fill="black"/>
<path opacity="0.5" d="M247.417 182.895C247.855 183.887 250.193 184.959 250.824 183.675L247.417 182.895Z" fill="black"/>
<path opacity="0.5" d="M181.336 185.615C179.339 187.44 176.825 188.964 176.229 191.542C175.914 192.889 174.951 198.524 176.124 199.392C178.84 201.412 179.751 195.166 180.276 193.695C181.459 190.355 182.098 189.044 181.336 185.615Z" fill="black"/>
<path opacity="0.5" d="M126.529 103.695C128.543 104.245 129.507 103.607 131.329 102.809C130.33 101.914 123.927 101.516 126.529 103.695Z" fill="black"/>
<path opacity="0.5" d="M74.1216 166.982C72.431 169.818 70.8456 172.103 70.2675 175.293C69.4966 179.546 70.6091 180.609 72.8339 184.445C73.4316 185.771 74.1876 187.018 75.0851 188.158C76.3815 189.496 78.5889 189.983 79.9465 191.312C81.9962 193.385 81.5232 195.263 81.6984 198.4C82.1189 205.071 81.8473 211.77 84.0196 218.14C85.1146 221.356 85.719 224.023 87.9088 226.566C91.0447 230.216 92.1921 230.323 96.9134 230.323C93.0681 227.248 91.4651 226.779 91.3775 222.1C91.2899 217.794 90.9308 216.554 93.5586 213.24C98.4989 207.038 105.34 200.836 107.976 193.438C108.841 191.011 109.702 188.583 110.561 186.155C111.06 184.755 113.32 180.901 112.952 179.422C112.435 177.357 105.498 175.807 103.036 174.868C101.994 174.46 99.769 174.053 99.0244 173.246C97.6229 171.74 98.0959 168.692 96.782 167.106C95.0302 164.971 87.9176 162.499 85.1496 161.684C83.1612 161.099 82.4342 161.188 80.1568 161.516C78.1509 161.799 75.9435 162.862 74.2092 163.102C72.7282 163.106 71.254 162.9 69.8295 162.49C67.3418 161.179 68.5068 158.556 68.8572 156.51L63.9782 155.934L66.606 149.732C64.5476 150.325 64.0571 151.158 62.5767 151.929C61.6132 152.425 59.5723 153.604 58.3898 152.983C55.762 151.601 56.2174 145.895 57.7766 143.822C59.0905 142.05 63.9607 140.801 66.4747 140.544C71.4675 140.039 71.266 142.316 72.65 146.232C74.5245 143.831 72.396 141.315 73.5259 139.056C74.4632 137.23 78.256 136.034 79.7714 134.475C84.0547 130.098 85.7277 126.59 91.7804 124.437V125.73L96.9747 123.657H93.2695C93.3864 122.626 93.7701 121.645 94.382 120.813L90.4841 121.398C93.7601 119.626 98.7967 120.272 101.582 118.483C104.543 116.578 100.855 111.864 99.769 109.49L96.1951 111.625C94.855 109.685 97.3426 109.171 94.2155 107.983C91.5877 107 91.1936 107.983 89.7833 109.614C88.373 111.244 84.5277 118.943 82.1627 118.934C82.8547 115.993 83.7131 115.639 81.4181 114.345C79.9115 113.459 74.8836 113.867 75.6107 110.801C76.1099 108.701 84.8868 105.219 87.1029 103.943C86.7 104.688 86.6124 105.582 86.227 106.336L90.4578 106.274L87.83 103.943C91.1322 103.527 91.7279 103.766 93.3571 100.966C91.2023 100.541 89.7395 101.852 88.0314 102.907C88.4869 100.514 85.8416 101.33 84.1072 101.303L72.177 101.117C69.0849 101.117 65.9141 100.816 62.8308 100.975C60.5271 101.099 58.1883 101.985 55.9021 101.968C50.1122 101.968 46.1617 99.4424 40.3718 100.807C34.2402 102.242 30.7365 105.086 25.5947 108.666C26.2167 109.401 26.8473 110.136 27.478 110.863L23.0983 113.973C27.662 112.422 33.9774 108.887 38.725 109.126C41.4842 109.268 44.4274 110.119 45.1193 112.174C45.8113 114.23 45.3383 117.871 44.7514 119.865C43.42 124.401 36.7892 131.214 39.9251 136.353C40.328 137.018 41.6769 137.097 42.1149 137.806C42.8594 139.002 42.2112 141.616 42.5353 143.007C42.9383 144.779 44.2872 148.491 46.5559 148.385C45.0756 145.001 44.077 142.626 43.7616 139.011C46.3895 139.747 48.9472 146.099 49.4289 148.279C49.6392 149.236 49.2012 150.582 49.5779 151.344C50.0859 152.372 53.7298 154.41 54.7108 154.826C56.0773 155.402 57.8642 154.826 59.1606 155.438C60.1241 155.872 61.7008 157.679 62.6643 158.37C63.3826 158.875 64.2848 158.769 64.9242 159.336C65.5637 159.903 65.8002 161.197 66.4221 161.897C67.5345 163.102 69.4266 163.846 70.8981 164.688C71.7303 161.011 73.7011 165.955 74.1216 166.982Z" fill="black"/>
<path opacity="0.5" d="M68.6996 149.174C72.2646 147.783 74.3669 151.991 77.9232 151.309C74.1041 149.307 72.7289 147.623 68.6996 149.174Z" fill="black"/>
<path opacity="0.5" d="M78.7378 151.779C80.4896 151.965 82.9072 151.513 83.4152 153.4C81.3042 153.781 79.5261 154.401 77.5728 153.205C78.2297 153.205 78.9305 152.939 79.5874 152.913L78.7378 151.779Z" fill="black"/>
<path opacity="0.5" d="M74.0253 152.913C74.6601 153.017 75.2888 153.156 75.9085 153.329C75.3161 153.654 74.6824 153.895 74.0253 154.047V152.913Z" fill="black"/>
<path opacity="0.5" d="M84.3525 152.913C84.5714 153.228 84.892 153.458 85.2594 153.561C85.6268 153.665 86.0184 153.636 86.3671 153.48C85.7452 153.294 85.0357 153.063 84.3525 152.913Z" fill="black"/>
<path opacity="0.5" d="M101.311 118.899L98.0522 122.053L103.702 123.48C103.623 122.656 103.807 121.025 103.404 120.272C102.922 119.333 101.127 121.114 101.311 118.899Z" fill="black"/>
<path opacity="0.5" d="M98.0522 102.809L92.4725 105.325C94.0929 105.91 97.7281 108.046 99.3661 107.789C101.004 107.532 103.658 104.546 105.016 103.518C103.264 101.861 100.803 98.5033 98.5427 97.697C97.0043 97.2256 95.3755 97.1406 93.7973 97.4494C92.2191 97.7581 90.7392 98.4514 89.4855 99.469C90.0987 99.9918 90.9921 101.161 91.763 101.409C92.2973 101.587 93.2345 100.594 93.7951 100.692C95.3806 100.966 97.5266 101.152 98.0522 102.809Z" fill="black"/>
<path opacity="0.5" d="M96.1776 102.03C93.69 102.756 95.1966 103.536 96.8959 102.579L96.1776 102.03Z" fill="black"/>
<path opacity="0.5" d="M85.0708 102.03C81.2605 99.3716 89.065 96.4655 91.3074 96.4655C90.16 97.1388 87.6022 98.0691 87.0153 99.1235C86.2533 100.55 88.1103 102.898 85.0708 102.03Z" fill="black"/>
<path opacity="0.5" d="M68.8309 102.03C68.8309 100.966 70.32 99.1767 70.8368 98.2109C69.3215 98.6185 67.0878 100.054 66.4572 98.2109C69.2076 97.2717 70.6967 96.5275 73.4121 97.0414C76.583 97.6439 77.5027 98.2552 80.7437 97.697C80.1568 99.2032 79.421 100.408 79.8677 102.03H68.8309Z" fill="black"/>
<path opacity="0.5" d="M73.2457 95.3668C77.1961 97.2629 79.3772 96.6781 83.7569 96.1731C82.2678 95.8364 80.2532 94.7023 78.8779 94.5251C77.2312 94.3125 74.9187 95.1276 73.2457 95.3668Z" fill="black"/>
<path opacity="0.5" d="M84.554 96.9882C83.6876 97.1454 82.8373 97.3826 82.0138 97.697C82.2714 98.2701 82.6239 98.7945 83.0561 99.2475L86.6913 96.9882C85.9794 96.9484 85.2659 96.9484 84.554 96.9882Z" fill="black"/>
<path opacity="0.5" d="M85.9117 95.4997C87.611 96.6161 92.5776 96.0934 94.6185 96.244C97.4302 96.4566 97.9821 96.244 100.505 94.977C105.138 92.6202 109.842 91.8405 114.958 90.7065C109.641 90.7065 103.895 90.0774 98.6303 90.7065C95.7747 91.052 86.0956 92.0886 85.9117 95.4997Z" fill="black"/>
<path opacity="0.5" d="M106.593 94.9947C111.156 93.5683 114.931 92.4519 119.732 92.1329C124.41 91.7991 129.11 91.9923 133.747 92.7088C131.583 94.9327 129.165 98.5742 126.38 99.9209C124.365 100.895 121.606 100.47 119.591 101.445C118.032 102.207 116.613 103.988 115.308 105.122C112.015 108.019 110.447 104.794 111.016 101.356C111.244 99.9386 112.996 97.4844 111.436 96.0402C110.324 95.1276 107.836 96.0668 106.593 94.9947Z" fill="black"/>
</g>
<path d="M137.89 275.26C137.657 275.26 137.435 275.167 137.27 275.001C137.106 274.835 137.014 274.609 137.014 274.374V262.484C137.014 262.249 137.106 262.024 137.27 261.858C137.435 261.692 137.657 261.598 137.89 261.598C138.122 261.598 138.345 261.692 138.509 261.858C138.673 262.024 138.766 262.249 138.766 262.484V274.374C138.766 274.609 138.673 274.835 138.509 275.001C138.345 275.167 138.122 275.26 137.89 275.26Z" fill="#01635D"/>
<path d="M162.994 274.374C162.994 275.81 151.756 276.97 137.89 276.97C124.024 276.97 112.777 275.81 112.777 274.374C112.777 272.939 124.024 269.36 137.89 269.36C151.756 269.36 162.994 272.939 162.994 274.374Z" fill="#01635D"/>
</g>
<defs>
<clipPath id="clip0_10_4313">
<rect width="343" height="304" fill="white"/>
</clipPath>
</defs>
</svg>
