<svg width="343" height="304" viewBox="0 0 343 304" fill="none" xmlns="http://www.w3.org/2000/svg">
<path d="M147.804 0.5806C165.308 -1.45322 182.716 1.68594 197.151 12.7039C214.488 25.968 219.326 46.1647 224.191 66.1846C228.614 84.3475 238.069 97.8326 254.751 106.64C276.625 118.188 297.925 135.936 304.329 160.819C310.565 185.004 303.648 214.715 283.985 231.012C265.781 246.116 240.333 247.875 216.761 249.299C185.962 251.165 154.924 253.597 124.355 249.361C104.276 246.576 84.0561 240.642 68.2143 228.006C50.7185 214.052 39.9096 192.759 36.1769 170.696C32.4442 148.634 35.2924 125.846 41.4841 104.376C49.3475 77.1141 62.916 51.037 83.4812 31.477C99.606 16.0376 123.736 3.38374 147.804 0.5806Z" fill="#01635D"/>
<path opacity="0.9" d="M147.804 0.5806C165.308 -1.45322 182.716 1.68594 197.151 12.7039C214.488 25.968 219.326 46.1647 224.191 66.1846C228.614 84.3475 238.069 97.8326 254.751 106.64C276.625 118.188 297.925 135.936 304.329 160.819C310.565 185.004 303.648 214.715 283.985 231.012C265.781 246.116 240.333 247.875 216.761 249.299C185.962 251.165 154.924 253.597 124.355 249.361C104.276 246.576 84.0561 240.642 68.2143 228.006C50.7185 214.052 39.9096 192.759 36.1769 170.696C32.4442 148.634 35.2924 125.846 41.4841 104.376C49.3475 77.1141 62.916 51.037 83.4812 31.477C99.606 16.0376 123.736 3.38374 147.804 0.5806Z" fill="white"/>
<path d="M171.5 304C266.217 304 343 299.518 343 293.99C343 288.462 266.217 283.98 171.5 283.98C76.7832 283.98 0 288.462 0 293.99C0 299.518 76.7832 304 171.5 304Z" fill="#F5F5F5"/>
<path d="M68.179 267.975C68.179 267.692 67.206 239.112 62.5711 234.611C58.1485 230.27 52.9475 234.452 52.7352 234.611L52.1691 233.931C52.2222 233.877 58.1485 229.049 63.1903 233.931C68.0729 238.679 69.0281 266.71 69.0635 267.904L68.179 267.975Z" fill="#01635D"/>
<path d="M68.577 273.608C68.4444 272.211 65.3928 239.227 77.838 224.973L78.5014 225.548C66.3127 239.546 69.4262 273.201 69.4616 273.537L68.577 273.608Z" fill="#01635D"/>
<path d="M68.2763 270.009L67.3918 269.947C67.3918 269.558 69.8242 231.331 60.7401 222.974L61.3328 222.329C70.7264 230.995 68.3824 268.417 68.2763 270.009Z" fill="#01635D"/>
<path d="M69.4616 269.982H68.577C68.577 268.921 68.8778 244.091 75.9628 240.032C76.642 239.593 77.4163 239.324 78.2211 239.245C79.0258 239.167 79.8377 239.282 80.5889 239.581C84.8876 241.35 87.0016 248.972 87.0901 249.308L86.2056 249.547C86.2056 249.467 84.1093 242.022 80.2174 240.412C79.591 240.166 78.9146 240.073 78.245 240.142C77.5754 240.211 76.9322 240.441 76.3697 240.81C69.78 244.595 69.4616 269.726 69.4616 269.982Z" fill="#01635D"/>
<path d="M66.7195 270L65.835 269.947C65.835 269.752 66.8964 250.387 61.6778 243.578C60.4217 241.939 59.0773 241.167 57.6443 241.261C54.2566 241.5 51.3996 246.478 51.3731 246.567L50.5947 246.133C50.7274 245.912 53.7171 240.686 57.5824 240.412C59.3515 240.28 60.9348 241.19 62.3765 243.065C67.7986 250.104 66.7638 269.195 66.7195 270Z" fill="#01635D"/>
<path d="M67.7102 272.644C67.5686 270.76 64.2871 226.441 70.0718 218.606L70.7883 219.137C65.1893 226.697 68.5593 272.113 68.5947 272.573L67.7102 272.644Z" fill="#01635D"/>
<path d="M82.1633 244.135C82.1633 244.135 78.7048 245.408 79.7309 248.424C80.7569 251.439 91.7073 256.382 91.7073 256.382C91.7073 256.382 96.298 252.182 92.0876 245.346C87.8773 238.511 82.2252 241.977 82.1633 244.135Z" fill="#01635D"/>
<path opacity="0.2" d="M82.1633 244.135C82.1633 244.135 78.7048 245.408 79.7309 248.424C80.7569 251.439 91.7073 256.382 91.7073 256.382C91.7073 256.382 96.298 252.182 92.0876 245.346C87.8773 238.511 82.2252 241.977 82.1633 244.135Z" fill="white"/>
<path d="M67.0734 238.396C67.0734 238.396 70.7618 238.246 70.9741 241.42C71.1864 244.595 63.0134 253.384 63.0134 253.384C63.0134 253.384 57.1579 251.271 58.4139 243.348C59.6699 235.425 66.1623 236.442 67.0734 238.396Z" fill="#01635D"/>
<path opacity="0.2" d="M67.0734 238.396C67.0734 238.396 70.7618 238.246 70.9741 241.42C71.1864 244.595 63.0134 253.384 63.0134 253.384C63.0134 253.384 57.1579 251.271 58.4139 243.348C59.6699 235.425 66.1623 236.442 67.0734 238.396Z" fill="white"/>
<path d="M63.951 223.187C63.951 223.187 66.4099 222.921 66.2153 221.418C66.0207 219.915 56.6536 216.068 51.1785 222.302C51.1785 222.302 54.7165 228.368 59.8291 228.448C64.9416 228.528 63.951 223.187 63.951 223.187Z" fill="#01635D"/>
<path opacity="0.2" d="M63.951 223.187C63.951 223.187 66.4099 222.921 66.2153 221.418C66.0207 219.915 56.6536 216.068 51.1785 222.302C51.1785 222.302 54.7165 228.368 59.8291 228.448C64.9416 228.528 63.951 223.187 63.951 223.187Z" fill="white"/>
<path d="M68.5328 219.552C68.5328 219.552 66.3126 220.631 65.6846 219.252C65.0566 217.872 70.9917 209.657 78.9524 212.027C78.9524 212.027 79.1647 219.048 74.8748 221.825C70.5849 224.601 68.5328 219.552 68.5328 219.552Z" fill="#01635D"/>
<path opacity="0.2" d="M68.5328 219.552C68.5328 219.552 66.3126 220.631 65.6846 219.252C65.0566 217.872 70.9917 209.657 78.9524 212.027C78.9524 212.027 79.1647 219.048 74.8748 221.825C70.5849 224.601 68.5328 219.552 68.5328 219.552Z" fill="white"/>
<path d="M56.8925 242.924C56.8925 242.924 58.5907 241.553 56.7598 240.881C54.9288 240.209 45.9421 240.403 45.8536 249.299C45.8536 249.299 56.3175 251.068 57.6089 247.654C58.9003 244.241 56.8925 242.924 56.8925 242.924Z" fill="#01635D"/>
<path opacity="0.2" d="M56.8925 242.924C56.8925 242.924 58.5907 241.553 56.7598 240.881C54.9288 240.209 45.9421 240.403 45.8536 249.299C45.8536 249.299 56.3175 251.068 57.6089 247.654C58.9003 244.241 56.8925 242.924 56.8925 242.924Z" fill="white"/>
<path d="M78.236 222.966C78.236 222.966 76.5377 221.595 78.3687 220.932C80.1996 220.269 89.1864 220.445 89.2748 229.35C89.2748 229.35 78.8109 231.119 77.5195 227.696C76.2281 224.274 78.236 222.966 78.236 222.966Z" fill="#01635D"/>
<path opacity="0.2" d="M78.236 222.966C78.236 222.966 76.5377 221.595 78.3687 220.932C80.1996 220.269 89.1864 220.445 89.2748 229.35C89.2748 229.35 78.8109 231.119 77.5195 227.696C76.2281 224.274 78.236 222.966 78.236 222.966Z" fill="white"/>
<path d="M72.6989 230.11C72.6989 230.11 72.5485 228.439 73.893 229.094C75.2375 229.748 79.9254 234.797 75.0694 239.59C75.0694 239.59 68.5328 234.753 69.7092 232.233C70.8856 229.713 72.6989 230.11 72.6989 230.11Z" fill="#01635D"/>
<path opacity="0.2" d="M72.6989 230.11C72.6989 230.11 72.5485 228.439 73.893 229.094C75.2375 229.748 79.9254 234.797 75.0694 239.59C75.0694 239.59 68.5328 234.753 69.7092 232.233C70.8856 229.713 72.6989 230.11 72.6989 230.11Z" fill="white"/>
<path d="M55.3799 232.507C55.3799 232.507 56.3883 231.18 54.9023 231.012C53.4163 230.844 46.7647 232.622 48.3126 239.271C48.3126 239.271 56.4237 238.661 56.7686 235.902C57.1136 233.143 55.3799 232.507 55.3799 232.507Z" fill="#01635D"/>
<path opacity="0.2" d="M55.3799 232.507C55.3799 232.507 56.3883 231.18 54.9023 231.012C53.4163 230.844 46.7647 232.622 48.3126 239.271C48.3126 239.271 56.4237 238.661 56.7686 235.902C57.1136 233.143 55.3799 232.507 55.3799 232.507Z" fill="white"/>
<path d="M82.7736 294.636H54.9465L51.948 264.181H85.781L82.7736 294.636Z" fill="#01635D"/>
<path opacity="0.5" d="M82.7736 294.636H54.9465L51.948 264.181H85.781L82.7736 294.636Z" fill="white"/>
<path d="M87.267 260.821H50.462V267.542H87.267V260.821Z" fill="#01635D"/>
<path opacity="0.2" d="M87.267 260.821H50.462V267.542H87.267V260.821Z" fill="white"/>
<path d="M46.7647 16.5328H35.7435V33.7938H46.7647V16.5328Z" fill="#263238"/>
<path opacity="0.2" d="M46.7647 16.5328H35.7435V33.7938H46.7647V16.5328Z" fill="white"/>
<path d="M152.907 16.5328H141.886V33.7938H152.907V16.5328Z" fill="#263238"/>
<path opacity="0.2" d="M152.907 16.5328H141.886V33.7938H152.907V16.5328Z" fill="white"/>
<path d="M176.577 129.684V32.4231L12.0826 32.4231V129.684H176.577Z" fill="#263238"/>
<path d="M172.155 125.263V36.8445L16.5052 36.8445V125.263L172.155 125.263Z" fill="#01635D"/>
<path opacity="0.2" d="M33.9037 41.1067H20.8128V51.992H33.9037V41.1067Z" fill="black"/>
<path d="M27.9686 47.2968L29.49 48.3582L29.9411 48.0398C29.9827 48.0121 30.0178 47.9757 30.044 47.9331C30.0702 47.8906 30.0868 47.8428 30.0926 47.7932C30.0985 47.7435 30.0936 47.6932 30.0781 47.6457C30.0626 47.5982 30.037 47.5546 30.003 47.5179L29.1185 46.5096L27.9686 47.2968Z" fill="white"/>
<path d="M31.0998 44.0248H30.7017C30.4546 44.0264 30.2138 44.1035 30.0118 44.2458L28.1101 45.5899L23.8644 44.8029C23.7899 44.7883 23.7132 44.7886 23.6388 44.8038C23.5644 44.819 23.4938 44.8487 23.4309 44.8913L22.7853 45.36L26.5091 46.7218L24.74 47.9951H23.4221C23.2605 47.9932 23.1025 48.0428 22.971 48.1366L22.3784 48.5611L24.1474 49.4896L30.569 44.9356L31.8428 44.0513L32.3558 43.6887C31.9154 43.6926 31.4832 43.8082 31.0998 44.0248Z" fill="white"/>
<path opacity="0.2" d="M109.46 41.1067H37.8399V51.992H109.46V41.1067Z" fill="black"/>
<path d="M85.551 45.6788H42.5101C42.2755 45.6788 42.0505 45.5857 41.8847 45.4198C41.7188 45.2539 41.6256 45.0289 41.6256 44.7943C41.6256 44.5597 41.7188 44.3348 41.8847 44.1689C42.0505 44.003 42.2755 43.9098 42.5101 43.9098H85.551C85.7856 43.9098 86.0105 44.003 86.1764 44.1689C86.3423 44.3348 86.4355 44.5597 86.4355 44.7943C86.4355 45.0289 86.3423 45.2539 86.1764 45.4198C86.0105 45.5857 85.7856 45.6788 85.551 45.6788Z" fill="white"/>
<path d="M57.9096 49.1894H42.5101C42.2755 49.1894 42.0505 49.0962 41.8847 48.9303C41.7188 48.7644 41.6256 48.5395 41.6256 48.3049C41.6256 48.0703 41.7188 47.8453 41.8847 47.6794C42.0505 47.5135 42.2755 47.4203 42.5101 47.4203H57.9096C58.1442 47.4203 58.3692 47.5135 58.5351 47.6794C58.701 47.8453 58.7942 48.0703 58.7942 48.3049C58.7942 48.5395 58.701 48.7644 58.5351 48.9303C58.3692 49.0962 58.1442 49.1894 57.9096 49.1894Z" fill="white"/>
<path opacity="0.4" d="M113.254 52.0009L167.838 52.0009V41.1155L113.254 41.1155V52.0009Z" fill="black"/>
<path d="M124.523 46.2266C124.52 45.9547 124.573 45.685 124.679 45.4344C124.784 45.1837 124.94 44.9573 125.136 44.7692C125.333 44.5811 125.566 44.4353 125.821 44.3407C126.076 44.2461 126.348 44.2048 126.619 44.2193C126.908 44.2084 127.196 44.2614 127.462 44.3745C127.728 44.4876 127.966 44.6581 128.158 44.8737L127.69 45.3158C127.559 45.1683 127.398 45.0508 127.218 44.9714C127.038 44.892 126.843 44.8527 126.646 44.856C126.415 44.8559 126.187 44.914 125.984 45.0247C125.781 45.1355 125.61 45.2954 125.485 45.4899C125.36 45.6843 125.286 45.907 125.269 46.1375C125.253 46.3681 125.295 46.599 125.391 46.8092C125.487 47.0194 125.634 47.202 125.819 47.3404C126.005 47.4787 126.222 47.5684 126.45 47.6011C126.679 47.6337 126.913 47.6084 127.129 47.5274C127.346 47.4464 127.538 47.3123 127.69 47.1374L128.158 47.5884C127.964 47.8047 127.725 47.9755 127.458 48.0886C127.19 48.2017 126.901 48.2544 126.61 48.2427C126.339 48.2548 126.068 48.2114 125.814 48.1152C125.56 48.0191 125.328 47.8722 125.133 47.6835C124.938 47.4948 124.783 47.2683 124.678 47.0179C124.573 46.7674 124.52 46.4981 124.523 46.2266Z" fill="white"/>
<path d="M131.316 47.2789H129.361L128.972 48.1631H128.22L129.989 44.2547H130.706L132.475 48.1631H131.696L131.316 47.2789ZM131.068 46.7129L130.334 44.9975L129.6 46.7129H131.068Z" fill="white"/>
<path d="M136.438 44.2723V48.1808H135.836L133.678 45.528V48.1808H132.961V44.2723H133.554L135.712 46.9252V44.2723H136.438Z" fill="white"/>
<path d="M137.207 46.2266C137.227 45.8132 137.368 45.4148 137.613 45.0809C137.857 44.7469 138.195 44.4921 138.583 44.348C138.971 44.2039 139.393 44.1769 139.796 44.2704C140.199 44.3638 140.566 44.5736 140.851 44.8737L140.382 45.3158C140.251 45.1692 140.09 45.0523 139.91 44.973C139.73 44.8937 139.535 44.8538 139.339 44.856C139.149 44.8407 138.958 44.865 138.778 44.9272C138.598 44.9894 138.432 45.0882 138.292 45.2173C138.152 45.3465 138.041 45.5032 137.964 45.6777C137.888 45.8522 137.848 46.0406 137.848 46.231C137.848 46.4215 137.888 46.6099 137.964 46.7843C138.041 46.9588 138.152 47.1155 138.292 47.2447C138.432 47.3739 138.598 47.4727 138.778 47.5349C138.958 47.5971 139.149 47.6213 139.339 47.6061C139.536 47.6089 139.732 47.5684 139.913 47.4874C140.093 47.4065 140.253 47.287 140.382 47.1374L140.851 47.5884C140.566 47.8888 140.198 48.0987 139.794 48.1918C139.39 48.2849 138.967 48.2572 138.579 48.1121C138.19 47.9669 137.853 47.7108 137.609 47.3755C137.365 47.0403 137.226 46.6407 137.207 46.2266Z" fill="white"/>
<path d="M144.478 47.5795V48.1808H141.55V44.2723H144.398V44.8825H142.311V45.8994H144.195V46.5007H142.311V47.5795H144.478Z" fill="white"/>
<path d="M145.292 44.2723H146.017V47.5707H148.06V48.1808H145.292V44.2723Z" fill="white"/>
<path d="M151.572 47.5795V48.1808H148.635V44.2723H151.492V44.8825H149.387V45.8994H151.28V46.5007H149.387V47.5795H151.572Z" fill="white"/>
<path d="M152.377 44.2724H154.084C154.356 44.2464 154.631 44.2777 154.89 44.3641C155.15 44.4505 155.389 44.5902 155.591 44.7742C155.793 44.9582 155.955 45.1824 156.066 45.4325C156.176 45.6826 156.234 45.9531 156.234 46.2266C156.234 46.5001 156.176 46.7706 156.066 47.0207C155.955 47.2708 155.793 47.495 155.591 47.679C155.389 47.863 155.15 48.0027 154.89 48.0891C154.631 48.1755 154.356 48.2068 154.084 48.1808H152.377V44.2724ZM154.057 47.5707C154.25 47.6022 154.447 47.5915 154.634 47.5393C154.822 47.4872 154.996 47.3948 155.145 47.2687C155.294 47.1425 155.413 46.9855 155.495 46.8086C155.577 46.6317 155.619 46.4392 155.619 46.2443C155.619 46.0494 155.577 45.8568 155.495 45.6799C155.413 45.5031 155.294 45.3461 155.145 45.2199C154.996 45.0937 154.822 45.0014 154.634 44.9492C154.447 44.8971 154.25 44.8864 154.057 44.9179H153.102V47.5707H154.057Z" fill="white"/>
<path opacity="0.2" d="M33.9037 54.8217H20.8128V65.7071H33.9037V54.8217Z" fill="black"/>
<path d="M27.9686 61.0118L29.49 62.0732L29.9411 61.7548C29.9839 61.7252 30.0194 61.6864 30.0451 61.6412C30.0707 61.5959 30.0858 61.5455 30.0892 61.4936C30.0926 61.4417 30.0842 61.3897 30.0647 61.3415C30.0452 61.2933 30.015 61.2501 29.9765 61.2152L29.0919 60.2069L27.9686 61.0118Z" fill="white"/>
<path d="M31.0998 57.7398H30.7017C30.4546 57.7414 30.2138 57.8186 30.0118 57.9609L28.1101 59.3049L23.8644 58.5179C23.7899 58.5033 23.7132 58.5036 23.6388 58.5188C23.5644 58.534 23.4938 58.5638 23.4309 58.6064L22.7853 59.075L26.5091 60.4368L24.74 61.7102H23.4221C23.2605 61.7082 23.1025 61.7578 22.971 61.8516L22.3784 62.2761L24.1474 63.2046L30.569 58.6506L31.8428 57.7663L32.3558 57.4038C31.9154 57.4076 31.4832 57.5233 31.0998 57.7398Z" fill="white"/>
<path opacity="0.2" d="M109.46 54.8217H37.8399V65.7071H109.46V54.8217Z" fill="black"/>
<path d="M85.551 59.4469H42.5101C42.2755 59.4469 42.0505 59.3537 41.8847 59.1879C41.7188 59.022 41.6256 58.797 41.6256 58.5624C41.6256 58.3278 41.7188 58.1028 41.8847 57.937C42.0505 57.7711 42.2755 57.6779 42.5101 57.6779H85.551C85.7856 57.6779 86.0105 57.7711 86.1764 57.937C86.3423 58.1028 86.4355 58.3278 86.4355 58.5624C86.4355 58.797 86.3423 59.022 86.1764 59.1879C86.0105 59.3537 85.7856 59.4469 85.551 59.4469Z" fill="white"/>
<path d="M57.9096 62.9044H42.5101C42.2755 62.9044 42.0505 62.8112 41.8847 62.6454C41.7188 62.4795 41.6256 62.2545 41.6256 62.0199C41.6256 61.7853 41.7188 61.5603 41.8847 61.3944C42.0505 61.2286 42.2755 61.1354 42.5101 61.1354H57.9096C58.1442 61.1354 58.3692 61.2286 58.5351 61.3944C58.701 61.5603 58.7942 61.7853 58.7942 62.0199C58.7942 62.2545 58.701 62.4795 58.5351 62.6454C58.3692 62.8112 58.1442 62.9044 57.9096 62.9044Z" fill="white"/>
<path opacity="0.4" d="M113.254 65.7159H167.838V54.8305L113.254 54.8305V65.7159Z" fill="black"/>
<path d="M124.523 59.9416C124.52 59.6697 124.573 59.4 124.679 59.1494C124.784 58.8987 124.94 58.6724 125.136 58.4842C125.333 58.2961 125.566 58.1503 125.821 58.0557C126.076 57.9611 126.348 57.9198 126.619 57.9343C126.906 57.9201 127.193 57.9689 127.459 58.0774C127.724 58.1859 127.963 58.3513 128.158 58.5621L127.69 59.0043C127.559 58.8568 127.398 58.7393 127.218 58.6599C127.038 58.5805 126.843 58.5411 126.646 58.5445C126.415 58.5444 126.187 58.6024 125.984 58.7132C125.781 58.8239 125.61 58.9839 125.485 59.1783C125.36 59.3728 125.286 59.5955 125.269 59.826C125.253 60.0565 125.295 60.2875 125.391 60.4977C125.487 60.7078 125.634 60.8905 125.819 61.0289C126.005 61.1672 126.222 61.2569 126.45 61.2895C126.679 61.3222 126.913 61.2969 127.129 61.2159C127.346 61.1348 127.538 61.0007 127.69 60.8259L128.158 61.2769C127.964 61.4932 127.725 61.664 127.458 61.7771C127.19 61.8902 126.901 61.9428 126.61 61.9312C126.341 61.9431 126.073 61.9006 125.82 61.806C125.568 61.7115 125.338 61.567 125.143 61.3811C124.948 61.1953 124.792 60.972 124.686 60.7246C124.579 60.4772 124.524 60.2109 124.523 59.9416Z" fill="white"/>
<path d="M131.316 60.9939H129.361L128.972 61.8782H128.22L129.989 57.9697H130.706L132.475 61.8782H131.696L131.316 60.9939ZM131.068 60.428L130.334 58.7125L129.6 60.428H131.068Z" fill="white"/>
<path d="M136.438 57.9874V61.8959H135.836L133.678 59.243V61.8959H132.961V57.9874H133.554L135.712 60.6402V57.9874H136.438Z" fill="white"/>
<path d="M137.207 59.9416C137.227 59.5282 137.368 59.1298 137.613 58.7959C137.857 58.4619 138.195 58.2071 138.583 58.063C138.971 57.9189 139.393 57.8919 139.796 57.9854C140.199 58.0788 140.566 58.2886 140.851 58.5887L140.382 59.0308C140.251 58.8842 140.09 58.7673 139.91 58.688C139.73 58.6087 139.535 58.5688 139.339 58.571C139.149 58.5558 138.958 58.58 138.778 58.6422C138.598 58.7044 138.432 58.8032 138.292 58.9323C138.152 59.0615 138.041 59.2183 137.964 59.3927C137.888 59.5672 137.848 59.7556 137.848 59.946C137.848 60.1365 137.888 60.3249 137.964 60.4993C138.041 60.6738 138.152 60.8306 138.292 60.9597C138.432 61.0889 138.598 61.1877 138.778 61.2499C138.958 61.3121 139.149 61.3363 139.339 61.3211C139.536 61.3239 139.732 61.2834 139.913 61.2024C140.093 61.1215 140.253 61.002 140.382 60.8524L140.851 61.3034C140.566 61.6039 140.198 61.8137 139.794 61.9068C139.39 62 138.967 61.9722 138.579 61.8271C138.19 61.6819 137.853 61.4258 137.609 61.0905C137.365 60.7553 137.226 60.3557 137.207 59.9416Z" fill="white"/>
<path d="M144.478 61.2945V61.8959H141.55V57.9874H144.398V58.5622H142.311V59.5791H144.195V60.1804H142.311V61.2592L144.478 61.2945Z" fill="white"/>
<path d="M145.292 57.9874H146.017V61.2857H148.06V61.8959H145.292V57.9874Z" fill="white"/>
<path d="M151.572 61.2945V61.8959H148.635V57.9874H151.492V58.5622H149.387V59.5791H151.28V60.1804H149.387V61.2592L151.572 61.2945Z" fill="white"/>
<path d="M152.377 57.9874H154.084C154.356 57.9615 154.631 57.9927 154.89 58.0791C155.15 58.1655 155.389 58.3052 155.591 58.4892C155.793 58.6732 155.955 58.8974 156.066 59.1476C156.176 59.3977 156.234 59.6681 156.234 59.9416C156.234 60.2151 156.176 60.4856 156.066 60.7357C155.955 60.9858 155.793 61.2101 155.591 61.394C155.389 61.578 155.15 61.7177 154.89 61.8041C154.631 61.8906 154.356 61.9218 154.084 61.8959H152.377V57.9874ZM154.057 61.2857C154.25 61.3172 154.447 61.3065 154.634 61.2544C154.822 61.2022 154.996 61.1099 155.145 60.9837C155.294 60.8575 155.413 60.7005 155.495 60.5237C155.577 60.3468 155.619 60.1542 155.619 59.9593C155.619 59.7644 155.577 59.5719 155.495 59.395C155.413 59.2181 155.294 59.0611 155.145 58.9349C154.996 58.8088 154.822 58.7164 154.634 58.6642C154.447 58.6121 154.25 58.6014 154.057 58.6329H153.102V61.2857H154.057Z" fill="white"/>
<path opacity="0.2" d="M33.9037 68.5367H20.8128V79.4221H33.9037V68.5367Z" fill="black"/>
<path d="M27.9686 74.7268L29.49 75.7883L29.9411 75.4698C29.9827 75.4422 30.0178 75.4058 30.044 75.3632C30.0702 75.3206 30.0868 75.2728 30.0926 75.2232C30.0985 75.1736 30.0936 75.1232 30.0781 75.0757C30.0626 75.0282 30.037 74.9846 30.003 74.948L29.1185 73.9396L27.9686 74.7268Z" fill="white"/>
<path d="M31.0998 71.4548H30.7017C30.4546 71.4564 30.2138 71.5336 30.0118 71.6759L28.1101 73.02L23.8644 72.233C23.7899 72.2184 23.7132 72.2186 23.6388 72.2338C23.5644 72.249 23.4938 72.2788 23.4309 72.3214L22.7853 72.79L26.5091 74.1518L24.74 75.4252H23.4221C23.2605 75.4232 23.1025 75.4728 22.971 75.5666L22.3784 75.9911L24.1474 76.8754L30.569 72.3302L31.8428 71.446L32.3558 71.0834C31.9123 71.098 31.4799 71.2259 31.0998 71.4548Z" fill="white"/>
<path opacity="0.2" d="M109.46 68.5367H37.8399V79.4221H109.46V68.5367Z" fill="black"/>
<path d="M85.551 73.1177H42.5101C42.2755 73.1177 42.0505 73.0245 41.8847 72.8587C41.7188 72.6928 41.6256 72.4678 41.6256 72.2332C41.6256 71.9986 41.7188 71.7736 41.8847 71.6078C42.0505 71.4419 42.2755 71.3487 42.5101 71.3487H85.551C85.7856 71.3487 86.0105 71.4419 86.1764 71.6078C86.3423 71.7736 86.4355 71.9986 86.4355 72.2332C86.4355 72.4678 86.3423 72.6928 86.1764 72.8587C86.0105 73.0245 85.7856 73.1177 85.551 73.1177Z" fill="white"/>
<path d="M57.9096 76.6194H42.5101C42.2755 76.6194 42.0505 76.5263 41.8847 76.3604C41.7188 76.1945 41.6256 75.9695 41.6256 75.7349C41.6256 75.5003 41.7188 75.2754 41.8847 75.1095C42.0505 74.9436 42.2755 74.8504 42.5101 74.8504H57.9096C58.1442 74.8504 58.3692 74.9436 58.5351 75.1095C58.701 75.2754 58.7942 75.5003 58.7942 75.7349C58.7942 75.9695 58.701 76.1945 58.5351 76.3604C58.3692 76.5263 58.1442 76.6194 57.9096 76.6194Z" fill="white"/>
<path opacity="0.4" d="M113.254 79.4309H167.838V68.5456H113.254V79.4309Z" fill="black"/>
<path d="M127.062 71.7024H128.769C129.037 71.6844 129.306 71.7216 129.56 71.8119C129.813 71.9022 130.045 72.0435 130.242 72.2271C130.438 72.4108 130.595 72.6328 130.702 72.8795C130.809 73.1261 130.864 73.3922 130.864 73.661C130.864 73.9299 130.809 74.196 130.702 74.4426C130.595 74.6893 130.438 74.9113 130.242 75.0949C130.045 75.2786 129.813 75.4199 129.56 75.5102C129.306 75.6005 129.037 75.6377 128.769 75.6197H127.062V71.7024ZM128.733 75.0007C128.926 75.0322 129.123 75.0215 129.31 74.9694C129.498 74.9172 129.673 74.8249 129.821 74.6987C129.97 74.5725 130.089 74.4155 130.171 74.2386C130.253 74.0618 130.295 73.8692 130.295 73.6743C130.295 73.4794 130.253 73.2868 130.171 73.11C130.089 72.9331 129.97 72.7761 129.821 72.6499C129.673 72.5238 129.498 72.4314 129.31 72.3792C129.123 72.3271 128.926 72.3164 128.733 72.3479H127.787V75.0007H128.733Z" fill="white"/>
<path d="M134.607 75.0096V75.6197H131.696V71.7024H134.553V72.3125H132.422V73.3294H134.315V73.9308H132.422V75.0096H134.607Z" fill="white"/>
<path d="M135.411 71.7024H136.119V75.0007H138.162V75.6197H135.411V71.7024Z" fill="white"/>
<path d="M141.329 74.7089H139.374L138.985 75.5932H138.233L140.002 71.6759H140.719L142.488 75.5932H141.727L141.329 74.7089ZM141.09 74.143L140.347 72.4275L139.613 74.143H141.09Z" fill="white"/>
<path d="M144.425 74.2314V75.6197H143.699V74.2491L142.16 71.7024H142.939L144.08 73.5947L145.23 71.6847H145.946L144.425 74.2314Z" fill="white"/>
<path d="M149.307 75.0096V75.6197H146.38V71.7024H149.228V72.3125H147.105V73.3294H148.989V73.9308H147.105V75.0096H149.307Z" fill="white"/>
<path d="M150.121 71.7024H151.828C152.097 71.6844 152.366 71.7216 152.619 71.8119C152.872 71.9022 153.105 72.0435 153.301 72.2271C153.497 72.4108 153.654 72.6328 153.761 72.8795C153.868 73.1261 153.924 73.3922 153.924 73.661C153.924 73.9299 153.868 74.196 153.761 74.4426C153.654 74.6893 153.497 74.9113 153.301 75.0949C153.105 75.2786 152.872 75.4199 152.619 75.5102C152.366 75.6005 152.097 75.6377 151.828 75.6197H150.121V71.7024ZM151.793 75.0007C151.985 75.0322 152.182 75.0215 152.37 74.9694C152.558 74.9172 152.732 74.8249 152.881 74.6987C153.029 74.5725 153.149 74.4155 153.23 74.2386C153.312 74.0618 153.355 73.8692 153.355 73.6743C153.355 73.4794 153.312 73.2868 153.23 73.11C153.149 72.9331 153.029 72.7761 152.881 72.6499C152.732 72.5238 152.558 72.4314 152.37 72.3792C152.182 72.3271 151.985 72.3164 151.793 72.3479H150.846V75.0007H151.793Z" fill="white"/>
<path opacity="0.2" d="M33.9037 82.2517H20.8128V93.1371H33.9037V82.2517Z" fill="black"/>
<path d="M27.9686 88.4419L29.49 89.5033L29.9411 89.1849C29.9871 89.1557 30.0256 89.1161 30.0533 89.0692C30.0811 89.0224 30.0974 88.9696 30.1008 88.9153C30.1043 88.8609 30.0948 88.8065 30.0732 88.7565C30.0516 88.7065 30.0184 88.6623 29.9765 88.6276L29.0919 87.6193L27.9686 88.4419Z" fill="white"/>
<path d="M31.0998 85.1698H30.7017C30.4546 85.1715 30.2138 85.2486 30.0118 85.3909L28.1101 86.735L23.8644 85.948C23.7139 85.9231 23.5596 85.9546 23.4309 86.0364L22.7853 86.5051L26.5091 87.8669L24.74 89.1402H23.4221C23.2605 89.1383 23.1025 89.1878 22.971 89.2817L22.3784 89.7061L24.1474 90.6346L30.569 86.0895L31.8428 85.2052L32.3558 84.8427C31.9162 84.8438 31.484 84.9564 31.0998 85.1698Z" fill="white"/>
<path opacity="0.2" d="M109.46 82.2517H37.8399V93.1371H109.46V82.2517Z" fill="black"/>
<path d="M85.551 86.8593H42.5101C42.2755 86.8593 42.0505 86.7661 41.8847 86.6002C41.7188 86.4343 41.6256 86.2094 41.6256 85.9748C41.6256 85.7402 41.7188 85.5152 41.8847 85.3493C42.0505 85.1834 42.2755 85.0902 42.5101 85.0902H85.551C85.7856 85.0902 86.0105 85.1834 86.1764 85.3493C86.3423 85.5152 86.4355 85.7402 86.4355 85.9748C86.4355 86.2094 86.3423 86.4343 86.1764 86.6002C86.0105 86.7661 85.7856 86.8593 85.551 86.8593Z" fill="white"/>
<path d="M57.9096 90.3345H42.5101C42.2755 90.3345 42.0505 90.2413 41.8847 90.0754C41.7188 89.9095 41.6256 89.6845 41.6256 89.45C41.6256 89.2154 41.7188 88.9904 41.8847 88.8245C42.0505 88.6586 42.2755 88.5654 42.5101 88.5654H57.9096C58.1442 88.5654 58.3692 88.6586 58.5351 88.8245C58.701 88.9904 58.7942 89.2154 58.7942 89.45C58.7942 89.6845 58.701 89.9095 58.5351 90.0754C58.3692 90.2413 58.1442 90.3345 57.9096 90.3345Z" fill="white"/>
<path opacity="0.4" d="M113.254 93.1459H167.838V82.2606H113.254V93.1459Z" fill="black"/>
<path d="M124.523 87.3717C124.52 87.0997 124.573 86.8301 124.679 86.5795C124.784 86.3288 124.94 86.1024 125.136 85.9143C125.333 85.7262 125.566 85.5803 125.821 85.4857C126.076 85.3912 126.348 85.3499 126.619 85.3644C126.908 85.3535 127.196 85.4064 127.462 85.5196C127.728 85.6327 127.966 85.8031 128.158 86.0187L127.69 86.4609C127.559 86.3134 127.398 86.1959 127.218 86.1165C127.038 86.0371 126.843 85.9977 126.646 86.0011C126.415 86.001 126.187 86.059 125.984 86.1698C125.781 86.2805 125.61 86.4405 125.485 86.6349C125.36 86.8294 125.286 87.0521 125.269 87.2826C125.253 87.5131 125.295 87.7441 125.391 87.9543C125.487 88.1644 125.634 88.3471 125.819 88.4855C126.005 88.6238 126.222 88.7135 126.45 88.7461C126.679 88.7788 126.913 88.7535 127.129 88.6724C127.346 88.5914 127.538 88.4573 127.69 88.2825L128.158 88.7334C127.964 88.9497 127.725 89.1206 127.458 89.2337C127.19 89.3468 126.901 89.3994 126.61 89.3878C126.339 89.3998 126.068 89.3564 125.814 89.2603C125.56 89.1642 125.328 89.0173 125.133 88.8286C124.938 88.6399 124.783 88.4134 124.678 88.1629C124.573 87.9124 124.52 87.6432 124.523 87.3717Z" fill="white"/>
<path d="M131.316 88.424H129.361L128.972 89.3082H128.22L129.989 85.3909H130.706L132.475 89.3082H131.696L131.316 88.424ZM131.068 87.858L130.334 86.1425L129.6 87.858H131.068Z" fill="white"/>
<path d="M136.438 85.4174V89.3347H135.836L133.678 86.6819V89.3347H132.961V85.4174H133.554L135.712 88.0702V85.4174H136.438Z" fill="white"/>
<path d="M137.207 87.3717C137.227 86.9583 137.368 86.5599 137.613 86.2259C137.857 85.892 138.195 85.6372 138.583 85.4931C138.971 85.349 139.393 85.322 139.796 85.4154C140.199 85.5089 140.566 85.7187 140.851 86.0187L140.382 86.4609C140.251 86.3143 140.09 86.1974 139.91 86.1181C139.73 86.0388 139.535 85.9989 139.339 86.0011C139.149 85.9858 138.958 86.01 138.778 86.0722C138.598 86.1344 138.432 86.2332 138.292 86.3624C138.152 86.4916 138.041 86.6483 137.964 86.8228C137.888 86.9972 137.848 87.1856 137.848 87.3761C137.848 87.5666 137.888 87.7549 137.964 87.9294C138.041 88.1039 138.152 88.2606 138.292 88.3898C138.432 88.5189 138.598 88.6178 138.778 88.6799C138.958 88.7421 139.149 88.7664 139.339 88.7511C139.536 88.754 139.732 88.7135 139.913 88.6325C140.093 88.5515 140.253 88.4321 140.382 88.2825L140.851 88.7334C140.566 89.0339 140.198 89.2438 139.794 89.3369C139.39 89.43 138.967 89.4023 138.579 89.2571C138.19 89.112 137.853 88.8558 137.609 88.5206C137.365 88.1854 137.226 87.7858 137.207 87.3717Z" fill="white"/>
<path d="M144.478 88.7246V89.3347H141.55V85.4174H144.398V86.0276H142.311V87.0445H144.195V87.6458H142.311V88.7246H144.478Z" fill="white"/>
<path d="M145.292 85.4174H146.017V88.7157H148.06V89.3347H145.292V85.4174Z" fill="white"/>
<path d="M151.572 88.7246V89.3347H148.635V85.4174H151.492V86.0276H149.387V87.0445H151.28V87.6458H149.387V88.7246H151.572Z" fill="white"/>
<path d="M152.377 85.4174H154.084C154.352 85.3994 154.621 85.4367 154.875 85.5269C155.128 85.6172 155.36 85.7585 155.557 85.9422C155.753 86.1258 155.91 86.3478 156.017 86.5945C156.124 86.8412 156.179 87.1072 156.179 87.3761C156.179 87.645 156.124 87.911 156.017 88.1576C155.91 88.4043 155.753 88.6263 155.557 88.81C155.36 88.9936 155.128 89.135 154.875 89.2252C154.621 89.3155 154.352 89.3528 154.084 89.3347H152.377V85.4174ZM154.057 88.7158C154.25 88.7473 154.447 88.7366 154.634 88.6844C154.822 88.6323 154.996 88.5399 155.145 88.4137C155.294 88.2875 155.413 88.1306 155.495 87.9537C155.577 87.7768 155.619 87.5842 155.619 87.3893C155.619 87.1945 155.577 87.0019 155.495 86.825C155.413 86.6481 155.294 86.4911 155.145 86.365C154.996 86.2388 154.822 86.1464 154.634 86.0943C154.447 86.0421 154.25 86.0314 154.057 86.0629H153.102V88.7158H154.057Z" fill="white"/>
<path opacity="0.2" d="M33.9037 95.9756H20.8128V106.861H33.9037V95.9756Z" fill="black"/>
<path d="M27.9686 102.157L29.49 103.218L29.9411 102.9C29.9827 102.872 30.0178 102.836 30.044 102.793C30.0702 102.751 30.0868 102.703 30.0926 102.653C30.0985 102.604 30.0936 102.553 30.0781 102.506C30.0626 102.458 30.037 102.415 30.003 102.378L29.1185 101.37L27.9686 102.157Z" fill="white"/>
<path d="M31.0998 98.8849H30.7017C30.4546 98.8865 30.2138 98.9636 30.0118 99.1059L28.1101 100.45L23.8644 99.663C23.7127 99.6371 23.557 99.672 23.4309 99.7603L22.7853 100.22L26.5091 101.582L24.74 102.855H23.4221C23.2605 102.853 23.1025 102.903 22.971 102.997L22.3784 103.421L24.1474 104.35L30.569 99.8045L31.8428 98.9202L32.3558 98.5577C31.9162 98.5589 31.484 98.6714 31.0998 98.8849Z" fill="white"/>
<path opacity="0.2" d="M109.46 95.9756H37.8399V106.861H109.46V95.9756Z" fill="black"/>
<path d="M85.551 100.548H42.5101C42.2755 100.548 42.0505 100.455 41.8847 100.289C41.7188 100.123 41.6256 99.8978 41.6256 99.6633C41.6256 99.4287 41.7188 99.2037 41.8847 99.0378C42.0505 98.8719 42.2755 98.7787 42.5101 98.7787H85.551C85.7856 98.7787 86.0105 98.8719 86.1764 99.0378C86.3423 99.2037 86.4355 99.4287 86.4355 99.6633C86.4355 99.8978 86.3423 100.123 86.1764 100.289C86.0105 100.455 85.7856 100.548 85.551 100.548Z" fill="white"/>
<path d="M57.9096 104.05H42.5101C42.2755 104.05 42.0505 103.956 41.8847 103.79C41.7188 103.625 41.6256 103.4 41.6256 103.165C41.6256 102.93 41.7188 102.705 41.8847 102.54C42.0505 102.374 42.2755 102.28 42.5101 102.28H57.9096C58.1442 102.28 58.3692 102.374 58.5351 102.54C58.701 102.705 58.7942 102.93 58.7942 103.165C58.7942 103.4 58.701 103.625 58.5351 103.79C58.3692 103.956 58.1442 104.05 57.9096 104.05Z" fill="white"/>
<path opacity="0.4" d="M113.254 106.852H167.838V95.9668H113.254V106.852Z" fill="black"/>
<path d="M127.062 99.1324H128.769C129.037 99.1144 129.306 99.1517 129.56 99.2419C129.813 99.3322 130.045 99.4736 130.242 99.6572C130.438 99.8408 130.595 100.063 130.702 100.31C130.809 100.556 130.864 100.822 130.864 101.091C130.864 101.36 130.809 101.626 130.702 101.873C130.595 102.119 130.438 102.341 130.242 102.525C130.045 102.709 129.813 102.85 129.56 102.94C129.306 103.031 129.037 103.068 128.769 103.05H127.062V99.1324ZM128.733 102.431C128.926 102.462 129.123 102.452 129.31 102.399C129.498 102.347 129.673 102.255 129.821 102.129C129.97 102.003 130.089 101.846 130.171 101.669C130.253 101.492 130.295 101.299 130.295 101.104C130.295 100.909 130.253 100.717 130.171 100.54C130.089 100.363 129.97 100.206 129.821 100.08C129.673 99.9538 129.498 99.8614 129.31 99.8093C129.123 99.7571 128.926 99.7464 128.733 99.778H127.787V102.431H128.733Z" fill="white"/>
<path d="M134.607 102.44V103.05H131.696V99.1324H134.553V99.7426H132.422V100.759H134.315V101.361H132.422V102.44H134.607Z" fill="white"/>
<path d="M135.411 99.1324H136.119V102.431H138.162V103.05H135.411V99.1324Z" fill="white"/>
<path d="M141.329 102.139H139.374L138.985 103.023H138.233L140.002 99.1059H140.719L142.488 103.023H141.727L141.329 102.139ZM141.09 101.573L140.347 99.8664L139.613 101.573H141.09Z" fill="white"/>
<path d="M144.425 101.67V103.05H143.699V101.679L142.16 99.1325H142.939L144.08 101.007L145.23 99.0971H145.946L144.425 101.67Z" fill="white"/>
<path d="M149.307 102.44V103.05H146.38V99.1324H149.228V99.7426H147.105V100.759H148.989V101.361H147.105V102.44H149.307Z" fill="white"/>
<path d="M150.121 99.1324H151.828C152.097 99.1144 152.366 99.1517 152.619 99.2419C152.872 99.3322 153.105 99.4736 153.301 99.6572C153.497 99.8408 153.654 100.063 153.761 100.31C153.868 100.556 153.924 100.822 153.924 101.091C153.924 101.36 153.868 101.626 153.761 101.873C153.654 102.119 153.497 102.341 153.301 102.525C153.105 102.709 152.872 102.85 152.619 102.94C152.366 103.031 152.097 103.068 151.828 103.05H150.121V99.1324ZM151.793 102.431C151.985 102.462 152.182 102.452 152.37 102.399C152.558 102.347 152.732 102.255 152.881 102.129C153.029 102.003 153.149 101.846 153.23 101.669C153.312 101.492 153.355 101.299 153.355 101.104C153.355 100.909 153.312 100.717 153.23 100.54C153.149 100.363 153.029 100.206 152.881 100.08C152.732 99.9538 152.558 99.8614 152.37 99.8093C152.182 99.7571 151.985 99.7464 151.793 99.778H150.846V102.431H151.793Z" fill="white"/>
<path opacity="0.2" d="M33.9037 109.691H20.8128V120.576H33.9037V109.691Z" fill="black"/>
<path d="M27.9686 115.872L29.49 116.933L29.9411 116.615C29.9827 116.587 30.0178 116.551 30.044 116.508C30.0702 116.466 30.0868 116.418 30.0926 116.368C30.0985 116.319 30.0936 116.268 30.0781 116.221C30.0626 116.173 30.037 116.13 30.003 116.093L29.1185 115.085L27.9686 115.872Z" fill="white"/>
<path d="M31.0998 112.6H30.7017C30.4546 112.602 30.2138 112.679 30.0118 112.821L28.1101 114.165L23.8644 113.378C23.7127 113.352 23.557 113.387 23.4309 113.475L22.7853 113.935L26.5091 115.297L24.74 116.57H23.4221C23.2605 116.568 23.1025 116.618 22.971 116.712L22.3784 117.136L24.1474 118.02L30.569 113.475L31.8428 112.591L32.3558 112.228C31.9123 112.243 31.4799 112.371 31.0998 112.6Z" fill="white"/>
<path opacity="0.2" d="M109.46 109.691H37.8399V120.576H109.46V109.691Z" fill="black"/>
<path d="M85.551 114.272H42.5101C42.2755 114.272 42.0505 114.178 41.8847 114.013C41.7188 113.847 41.6256 113.622 41.6256 113.387C41.6256 113.153 41.7188 112.928 41.8847 112.762C42.0505 112.596 42.2755 112.503 42.5101 112.503H85.551C85.7856 112.503 86.0105 112.596 86.1764 112.762C86.3423 112.928 86.4355 113.153 86.4355 113.387C86.4355 113.622 86.3423 113.847 86.1764 114.013C86.0105 114.178 85.7856 114.272 85.551 114.272Z" fill="white"/>
<path d="M57.9096 117.809H42.5101C42.2755 117.809 42.0505 117.716 41.8847 117.55C41.7188 117.384 41.6256 117.159 41.6256 116.924C41.6256 116.69 41.7188 116.465 41.8847 116.299C42.0505 116.133 42.2755 116.04 42.5101 116.04H57.9096C58.1442 116.04 58.3692 116.133 58.5351 116.299C58.701 116.465 58.7942 116.69 58.7942 116.924C58.7942 117.159 58.701 117.384 58.5351 117.55C58.3692 117.716 58.1442 117.809 57.9096 117.809Z" fill="white"/>
<path opacity="0.4" d="M113.254 120.567H167.838V109.682H113.254V120.567Z" fill="black"/>
<path d="M124.523 114.802C124.52 114.53 124.573 114.26 124.679 114.009C124.784 113.759 124.94 113.532 125.136 113.344C125.333 113.156 125.566 113.01 125.821 112.916C126.076 112.821 126.348 112.78 126.619 112.794C126.908 112.783 127.196 112.836 127.462 112.95C127.728 113.063 127.966 113.233 128.158 113.449L127.69 113.891C127.559 113.743 127.398 113.626 127.218 113.547C127.038 113.467 126.843 113.428 126.646 113.431C126.415 113.431 126.187 113.489 125.984 113.6C125.781 113.711 125.61 113.871 125.485 114.065C125.36 114.259 125.286 114.482 125.269 114.713C125.253 114.943 125.295 115.174 125.391 115.384C125.487 115.594 125.634 115.777 125.82 115.915C126.005 116.054 126.222 116.143 126.451 116.176C126.679 116.209 126.913 116.183 127.129 116.102C127.346 116.021 127.538 115.887 127.69 115.713L128.158 116.163C127.965 116.38 127.725 116.551 127.458 116.664C127.19 116.777 126.901 116.829 126.611 116.818C126.339 116.831 126.067 116.789 125.813 116.693C125.558 116.597 125.326 116.45 125.13 116.262C124.935 116.073 124.78 115.846 124.675 115.595C124.571 115.343 124.519 115.074 124.523 114.802Z" fill="white"/>
<path d="M131.316 115.854H129.361L128.972 116.738H128.22L129.989 112.821H130.706L132.475 116.738H131.696L131.316 115.854ZM131.068 115.288L130.334 113.581L129.6 115.288H131.068Z" fill="white"/>
<path d="M136.438 112.847V116.765H135.836L133.678 114.112V116.765H132.961V112.847H133.554L135.712 115.5V112.847H136.438Z" fill="white"/>
<path d="M137.207 114.802C137.227 114.388 137.368 113.99 137.613 113.656C137.857 113.322 138.195 113.067 138.583 112.923C138.971 112.779 139.393 112.752 139.796 112.845C140.199 112.939 140.566 113.149 140.851 113.449L140.382 113.891C140.251 113.744 140.09 113.627 139.91 113.548C139.73 113.469 139.535 113.429 139.339 113.431C139.149 113.416 138.958 113.44 138.778 113.502C138.598 113.564 138.432 113.663 138.292 113.792C138.152 113.922 138.041 114.078 137.964 114.253C137.888 114.427 137.848 114.616 137.848 114.806C137.848 114.997 137.888 115.185 137.964 115.359C138.041 115.534 138.152 115.691 138.292 115.82C138.432 115.949 138.598 116.048 138.778 116.11C138.958 116.172 139.149 116.196 139.339 116.181C139.536 116.184 139.732 116.144 139.913 116.063C140.093 115.982 140.253 115.862 140.382 115.713L140.851 116.163C140.566 116.464 140.198 116.674 139.794 116.767C139.39 116.86 138.967 116.832 138.579 116.687C138.19 116.542 137.853 116.286 137.609 115.951C137.365 115.615 137.226 115.216 137.207 114.802Z" fill="white"/>
<path d="M144.478 116.155V116.765H141.55V112.847H144.398V113.458H142.311V114.475H144.195V115.076H142.311V116.155H144.478Z" fill="white"/>
<path d="M145.292 112.847H146.017V116.146H148.06V116.765H145.292V112.847Z" fill="white"/>
<path d="M151.572 116.155V116.765H148.635V112.847H151.492V113.458H149.387V114.475H151.28V115.076H149.387V116.155H151.572Z" fill="white"/>
<path d="M152.377 112.847H154.084C154.352 112.829 154.621 112.867 154.875 112.957C155.128 113.047 155.36 113.189 155.557 113.372C155.753 113.556 155.91 113.778 156.017 114.025C156.124 114.271 156.179 114.537 156.179 114.806C156.179 115.075 156.124 115.341 156.017 115.588C155.91 115.834 155.753 116.056 155.557 116.24C155.36 116.424 155.128 116.565 154.875 116.655C154.621 116.746 154.352 116.783 154.084 116.765H152.377V112.847ZM154.057 116.146C154.25 116.177 154.447 116.167 154.634 116.114C154.822 116.062 154.996 115.97 155.145 115.844C155.294 115.718 155.413 115.561 155.495 115.384C155.577 115.207 155.619 115.014 155.619 114.819C155.619 114.624 155.577 114.432 155.495 114.255C155.413 114.078 155.294 113.921 155.145 113.795C154.996 113.669 154.822 113.576 154.634 113.524C154.447 113.472 154.25 113.461 154.057 113.493H153.102V116.146H154.057Z" fill="white"/>
<path d="M208.323 164.347H205.872V204.343H208.323V164.347Z" fill="#263238"/>
<path opacity="0.4" d="M208.323 164.347H205.872V204.343H208.323V164.347Z" fill="white"/>
<path d="M217.168 164.347H214.718V204.343H217.168V164.347Z" fill="#263238"/>
<path opacity="0.4" d="M217.168 164.347H214.718V204.343H217.168V164.347Z" fill="white"/>
<path d="M199.026 197.578H202.644C202.907 197.578 203.159 197.683 203.345 197.868C203.53 198.054 203.635 198.306 203.635 198.569V202.106H198.036V198.569C198.036 198.306 198.14 198.054 198.326 197.868C198.512 197.683 198.764 197.578 199.026 197.578Z" fill="#263238"/>
<path opacity="0.2" d="M199.026 197.578H202.644C202.907 197.578 203.159 197.683 203.345 197.868C203.53 198.054 203.635 198.306 203.635 198.569V202.106H198.036V198.569C198.036 198.306 198.14 198.054 198.326 197.868C198.512 197.683 198.764 197.578 199.026 197.578Z" fill="white"/>
<path d="M205.289 199.488H208.906C209.169 199.488 209.421 199.593 209.607 199.778C209.793 199.964 209.897 200.216 209.897 200.479V204.016H204.307V200.479C204.307 200.217 204.41 199.967 204.594 199.781C204.778 199.596 205.028 199.491 205.289 199.488Z" fill="#263238"/>
<path opacity="0.2" d="M205.289 199.488H208.906C209.169 199.488 209.421 199.593 209.607 199.778C209.793 199.964 209.897 200.216 209.897 200.479V204.016H204.307V200.479C204.307 200.217 204.41 199.967 204.594 199.781C204.778 199.596 205.028 199.491 205.289 199.488Z" fill="white"/>
<path d="M213.709 291.231C213.709 291.906 213.509 292.566 213.134 293.127C212.759 293.689 212.226 294.126 211.602 294.385C210.978 294.643 210.291 294.711 209.629 294.579C208.967 294.447 208.358 294.122 207.881 293.645C207.403 293.167 207.078 292.559 206.946 291.897C206.815 291.235 206.882 290.549 207.141 289.925C207.399 289.301 207.837 288.768 208.398 288.393C208.96 288.018 209.62 287.818 210.295 287.818C210.744 287.817 211.188 287.904 211.603 288.075C212.018 288.246 212.395 288.498 212.712 288.815C213.029 289.132 213.281 289.509 213.452 289.924C213.623 290.338 213.711 290.783 213.709 291.231Z" fill="#263238"/>
<path d="M220.547 285.121H188.589V288.145V289.392V294.503H190.703L192.109 289.392H193.418V294.636H195.541L196.974 289.392H220.547V285.121Z" fill="#263238"/>
<path opacity="0.2" d="M193.489 285.121V294.636H195.541L196.974 289.392H220.547V285.121H193.489Z" fill="white"/>
<path d="M188.527 200.708H216.345V286.589H188.527C186.866 286.589 185.273 285.929 184.099 284.755C182.924 283.581 182.265 281.989 182.265 280.328V206.934C182.274 205.279 182.938 203.696 184.111 202.53C185.285 201.363 186.872 200.708 188.527 200.708Z" fill="#01635D"/>
<path opacity="0.4" d="M188.527 200.708H216.345V286.589H188.527C186.866 286.589 185.273 285.929 184.099 284.755C182.924 283.581 182.265 281.989 182.265 280.328V206.934C182.274 205.279 182.938 203.696 184.111 202.53C185.285 201.363 186.872 200.708 188.527 200.708Z" fill="white"/>
<path opacity="0.2" d="M187.244 282.097C186.888 282.097 186.546 281.955 186.294 281.703C186.042 281.451 185.9 281.109 185.9 280.753V206.412C185.9 206.056 186.042 205.714 186.294 205.462C186.546 205.21 186.888 205.068 187.244 205.068C187.601 205.068 187.943 205.21 188.195 205.462C188.447 205.714 188.589 206.056 188.589 206.412V280.753C188.589 281.109 188.447 281.451 188.195 281.703C187.943 281.955 187.601 282.097 187.244 282.097Z" fill="black"/>
<path opacity="0.2" d="M196.974 203.176H214.709V283.37H196.974C195.801 283.37 194.676 282.904 193.847 282.075C193.018 281.246 192.552 280.121 192.552 278.949V207.615C192.549 207.033 192.662 206.456 192.883 205.917C193.104 205.379 193.43 204.889 193.841 204.477C194.252 204.064 194.74 203.737 195.278 203.514C195.815 203.291 196.392 203.176 196.974 203.176Z" fill="black"/>
<path d="M214.647 199.444H217.141C217.47 199.444 217.785 199.574 218.017 199.807C218.249 200.039 218.38 200.354 218.38 200.682V287.694H213.409V200.682C213.409 200.354 213.539 200.039 213.771 199.807C214.004 199.574 214.319 199.444 214.647 199.444Z" fill="#263238"/>
<path d="M221.67 291.231C221.67 291.906 221.47 292.566 221.095 293.127C220.719 293.689 220.186 294.126 219.562 294.385C218.939 294.643 218.252 294.711 217.59 294.579C216.927 294.447 216.319 294.122 215.842 293.645C215.364 293.167 215.039 292.559 214.907 291.897C214.775 291.235 214.843 290.549 215.101 289.925C215.36 289.301 215.797 288.768 216.359 288.393C216.92 288.018 217.581 287.818 218.256 287.818C218.704 287.817 219.149 287.904 219.564 288.075C219.979 288.246 220.355 288.498 220.673 288.815C220.99 289.132 221.241 289.509 221.413 289.924C221.584 290.338 221.671 290.783 221.67 291.231Z" fill="#263238"/>
<path opacity="0.4" d="M221.67 291.231C221.67 291.906 221.47 292.566 221.095 293.127C220.719 293.689 220.186 294.126 219.562 294.385C218.939 294.643 218.252 294.711 217.59 294.579C216.927 294.447 216.319 294.122 215.842 293.645C215.364 293.167 215.039 292.559 214.907 291.897C214.775 291.235 214.843 290.549 215.101 289.925C215.36 289.301 215.797 288.768 216.359 288.393C216.92 288.018 217.581 287.818 218.256 287.818C218.704 287.817 219.149 287.904 219.564 288.075C219.979 288.246 220.355 288.498 220.673 288.815C220.99 289.132 221.241 289.509 221.413 289.924C221.584 290.338 221.671 290.783 221.67 291.231Z" fill="white"/>
<path d="M220.149 291.231C220.147 291.605 220.034 291.97 219.825 292.28C219.616 292.59 219.32 292.831 218.974 292.973C218.628 293.115 218.248 293.151 217.881 293.077C217.515 293.003 217.178 292.822 216.914 292.557C216.65 292.292 216.471 291.955 216.399 291.588C216.326 291.221 216.364 290.841 216.508 290.496C216.651 290.151 216.894 289.856 217.205 289.648C217.516 289.441 217.882 289.33 218.256 289.33C218.505 289.33 218.752 289.379 218.982 289.475C219.212 289.57 219.422 289.711 219.597 289.887C219.773 290.064 219.913 290.274 220.007 290.504C220.102 290.735 220.15 290.982 220.149 291.231Z" fill="#01635D"/>
<path opacity="0.2" d="M214.647 199.444H217.141C217.47 199.444 217.785 199.574 218.017 199.807C218.249 200.039 218.38 200.354 218.38 200.682V287.694H213.409V200.682C213.409 200.354 213.539 200.039 213.771 199.807C214.004 199.574 214.319 199.444 214.647 199.444Z" fill="white"/>
<path d="M217.318 163.18H205.979C205.392 163.18 204.917 163.655 204.917 164.241V166.116C204.917 166.702 205.392 167.177 205.979 167.177H217.318C217.904 167.177 218.38 166.702 218.38 166.116V164.241C218.38 163.655 217.904 163.18 217.318 163.18Z" fill="#263238"/>
<path opacity="0.2" d="M217.318 163.18H205.979C205.392 163.18 204.917 163.655 204.917 164.241V166.116C204.917 166.702 205.392 167.177 205.979 167.177H217.318C217.904 167.177 218.38 166.702 218.38 166.116V164.241C218.38 163.655 217.904 163.18 217.318 163.18Z" fill="white"/>
<path d="M304.143 286.306H234.717L235.522 290.409H236.229L236.857 294.636H240.625L241.253 290.409H255.397L256.025 294.636H259.793L260.421 290.409H278.563L279.191 294.636H282.959L283.587 290.409H297.73L298.358 294.636H302.126L302.754 290.409H303.347L304.143 286.306Z" fill="#263238"/>
<path d="M304.718 230.729H234.266C232.043 230.729 230.241 232.531 230.241 234.753V284.59C230.241 286.812 232.043 288.614 234.266 288.614H304.718C306.941 288.614 308.742 286.812 308.742 284.59V234.753C308.742 232.531 306.941 230.729 304.718 230.729Z" fill="#01635D"/>
<path opacity="0.2" d="M308.742 234.364V284.979C308.744 285.456 308.651 285.929 308.469 286.37C308.287 286.81 308.02 287.211 307.683 287.549C307.347 287.886 306.946 288.154 306.506 288.337C306.065 288.52 305.593 288.614 305.116 288.614H281.181C281.658 288.614 282.13 288.52 282.571 288.337C283.011 288.154 283.411 287.886 283.748 287.549C284.085 287.211 284.352 286.81 284.534 286.37C284.715 285.929 284.808 285.456 284.807 284.979V234.364C284.808 233.887 284.715 233.415 284.534 232.974C284.352 232.533 284.085 232.132 283.748 231.794C283.411 231.457 283.011 231.189 282.571 231.006C282.13 230.824 281.658 230.729 281.181 230.729H305.142C306.101 230.736 307.018 231.123 307.693 231.804C308.367 232.485 308.745 233.405 308.742 234.364Z" fill="black"/>
<path d="M297.987 234.532V279.391C297.988 279.443 297.978 279.496 297.959 279.544C297.939 279.593 297.91 279.638 297.873 279.675C297.836 279.712 297.791 279.741 297.742 279.761C297.694 279.78 297.641 279.79 297.589 279.789C297.483 279.789 297.382 279.747 297.307 279.672C297.233 279.598 297.191 279.496 297.191 279.391V234.532C297.188 233.56 296.813 232.626 296.144 231.92C295.475 231.215 294.561 230.792 293.591 230.738H295.988C296.605 231.16 297.109 231.726 297.458 232.387C297.806 233.048 297.988 233.785 297.987 234.532Z" fill="#263238"/>
<path opacity="0.2" d="M267.117 249.131C269.247 249.131 270.973 247.132 270.973 244.666C270.973 242.199 269.247 240.2 267.117 240.2C264.987 240.2 263.26 242.199 263.26 244.666C263.26 247.132 264.987 249.131 267.117 249.131Z" fill="white"/>
<path opacity="0.2" d="M269.682 244.665C269.615 245.173 269.403 245.65 269.072 246.04C268.74 246.429 268.303 246.715 267.813 246.862C267.322 247.008 266.8 247.01 266.309 246.867C265.817 246.724 265.378 246.442 265.043 246.055C264.709 245.668 264.493 245.192 264.423 244.686C264.352 244.179 264.43 243.663 264.646 243.199C264.862 242.735 265.208 242.344 265.642 242.072C266.076 241.801 266.579 241.66 267.09 241.668C267.83 241.727 268.516 242.074 269.001 242.635C269.486 243.196 269.731 243.926 269.682 244.665Z" fill="white"/>
<path opacity="0.2" d="M262.942 250.396L272.468 248.132L272.893 249.706L263.26 251.819L262.942 250.396Z" fill="white"/>
<path opacity="0.2" d="M265.702 265.11L267.382 273.864C267.419 274.047 267.407 274.237 267.348 274.414C267.289 274.592 267.185 274.75 267.045 274.875C266.905 274.999 266.736 275.084 266.553 275.123C266.37 275.161 266.18 275.151 266.002 275.093C263.871 274.43 260.333 273.174 258.104 272.37C257.889 272.294 257.698 272.163 257.55 271.991C257.401 271.819 257.3 271.611 257.256 271.388C257.213 271.165 257.228 270.934 257.3 270.719C257.373 270.503 257.5 270.31 257.67 270.159L263.933 264.517C264.073 264.39 264.246 264.302 264.432 264.264C264.617 264.225 264.81 264.236 264.99 264.296C265.17 264.357 265.331 264.464 265.456 264.607C265.581 264.75 265.666 264.923 265.702 265.11Z" fill="white"/>
<path opacity="0.2" d="M260.076 269.903L262.827 267.55C262.969 267.426 263.141 267.341 263.326 267.303C263.511 267.266 263.703 267.278 263.882 267.338C264.061 267.398 264.221 267.504 264.346 267.645C264.472 267.786 264.558 267.958 264.596 268.143L265.374 271.733C265.416 271.92 265.406 272.114 265.347 272.296C265.287 272.478 265.18 272.64 265.036 272.767C264.893 272.893 264.718 272.979 264.53 273.015C264.342 273.051 264.148 273.036 263.968 272.971L260.43 271.742C260.252 271.678 260.093 271.569 259.97 271.426C259.847 271.282 259.764 271.109 259.728 270.923C259.692 270.737 259.705 270.546 259.766 270.367C259.828 270.188 259.934 270.028 260.076 269.903Z" fill="white"/>
<path opacity="0.2" d="M244.96 261.714C244.96 264.535 242.952 266.816 240.466 266.816C237.981 266.816 235.973 264.535 235.973 261.714C235.973 258.893 237.99 256.639 240.493 256.639C242.996 256.639 244.96 258.893 244.96 261.714Z" fill="white"/>
<path d="M247.587 260.184H233.355V263.236H247.587V260.184Z" fill="#01635D"/>
<path opacity="0.4" d="M247.587 260.184H233.355V263.236H247.587V260.184Z" fill="white"/>
<path opacity="0.2" d="M247.294 275.511L243.073 273.777C242.268 273.447 241.349 273.831 241.018 274.635L239.283 278.855C238.953 279.659 239.337 280.579 240.141 280.909L244.363 282.643C245.167 282.974 246.087 282.59 246.417 281.786L248.152 277.566C248.483 276.761 248.099 275.842 247.294 275.511Z" fill="black"/>
<path d="M248.094 281.774L237.776 277.535L237.282 278.738L247.599 282.976L248.094 281.774Z" fill="#01635D"/>
<path opacity="0.4" d="M248.094 281.774L237.776 277.535L237.282 278.738L247.599 282.976L248.094 281.774Z" fill="white"/>
<path opacity="0.2" d="M243.014 241.668L257.776 233.754L259.041 237.715L243.712 245.338L243.014 241.668Z" fill="black"/>
<path opacity="0.2" d="M278.439 256.188H272.477C271.647 256.188 270.973 256.861 270.973 257.691V258.681C270.973 259.511 271.647 260.184 272.477 260.184H278.439C279.269 260.184 279.942 259.511 279.942 258.681V257.691C279.942 256.861 279.269 256.188 278.439 256.188Z" fill="black"/>
<path opacity="0.4" d="M259.496 254.392L253.888 252.37C253.107 252.088 252.245 252.493 251.963 253.274L251.627 254.205C251.345 254.986 251.75 255.848 252.531 256.129L258.139 258.152C258.92 258.434 259.782 258.029 260.064 257.248L260.4 256.317C260.682 255.536 260.277 254.674 259.496 254.392Z" fill="white"/>
<path opacity="0.2" d="M281.287 279.824C281.289 280.655 281.044 281.468 280.583 282.16C280.122 282.852 279.467 283.392 278.699 283.711C277.932 284.03 277.087 284.115 276.271 283.954C275.456 283.792 274.706 283.393 274.118 282.806C273.529 282.219 273.128 281.471 272.965 280.656C272.802 279.841 272.885 278.996 273.203 278.228C273.521 277.46 274.059 276.803 274.75 276.341C275.441 275.879 276.254 275.633 277.085 275.633C278.198 275.633 279.265 276.074 280.053 276.86C280.841 277.646 281.285 278.712 281.287 279.824Z" fill="black"/>
<path opacity="0.2" d="M277.085 282.433C278.556 282.433 279.748 281.241 279.748 279.771C279.748 278.301 278.556 277.109 277.085 277.109C275.615 277.109 274.423 278.301 274.423 279.771C274.423 281.241 275.615 282.433 277.085 282.433Z" fill="white"/>
<path d="M228.26 127.482C228.26 127.482 229.365 121.876 232.01 122.566C234.655 123.255 235.504 125.218 237.609 123.777C239.714 122.336 242.492 121.407 243.801 122.504C245.11 123.6 244.429 126.633 247.233 127.482C250.037 128.331 251.178 127.624 252.699 131.293C254.22 134.963 250.302 136.511 252.699 139.323C255.096 142.134 257.024 142.311 256.158 144.628C255.291 146.945 252.053 150.314 252.699 152.295C253.345 154.275 249.046 162.34 244.447 162.641C239.847 162.941 236.795 169.175 237.114 171.678C237.432 174.18 235.858 174.95 233.576 175.533C231.294 176.117 229.286 179.07 230.038 179.955C230.79 180.839 227.826 183.492 227.826 183.492C227.826 183.492 230.108 182.086 227.826 179.813C225.544 177.541 222.908 176.382 224.837 173.11C224.837 173.11 220.29 172.297 220.635 168.45C220.98 164.604 222.404 162.393 219.936 160.784C217.469 159.174 215.213 154.461 217.486 152.825C219.76 151.189 220.458 144.867 219.061 140.331C217.663 135.794 221.511 131.842 222.033 132.496C222.555 133.15 220.768 125.174 228.26 127.482Z" fill="#263238"/>
<path d="M220.308 156.044L225.553 153.161C226.813 153.072 228.079 153.072 229.339 153.161C229.923 153.338 227.278 143.77 227.331 143.567C227.384 143.364 224.677 142.807 223.713 143.567C222.749 144.327 223.625 149.615 223.625 149.615L217.433 153.506L220.308 156.044Z" fill="#B97964"/>
<path opacity="0.2" d="M220.308 156.044L225.553 153.161C226.813 153.072 228.079 153.072 229.339 153.161C229.923 153.338 227.278 143.77 227.331 143.567C227.384 143.364 224.677 142.807 223.713 143.567C222.749 144.327 223.625 149.615 223.625 149.615L217.433 153.506L220.308 156.044Z" fill="black"/>
<path d="M235.035 158.149C235.035 158.149 220.175 158.706 219.025 158.608C217.875 158.511 223.448 155.009 223.448 155.009L219.715 151.296C219.715 151.296 208.048 156.212 207.235 159.873C206.421 163.534 225.129 169.441 232.532 169.485C239.935 169.529 235.035 158.149 235.035 158.149Z" fill="#01635D"/>
<path opacity="0.2" d="M233.938 169.317C233.482 169.436 233.012 169.493 232.541 169.485C228.964 169.281 225.423 168.663 221.989 167.646C214.47 165.594 206.704 162.26 207.244 159.873C208.057 156.212 219.724 151.296 219.724 151.296L223.457 155.009C223.457 155.009 217.867 158.547 219.034 158.608C220.202 158.67 235.044 158.149 235.044 158.149C235.044 158.149 239.272 167.973 233.938 169.317Z" fill="white"/>
<path opacity="0.2" d="M233.938 169.317C233.482 169.436 233.012 169.493 232.541 169.485C228.964 169.281 225.423 168.663 221.988 167.646C224.368 164.701 232.01 165.134 232.01 165.134C232.01 165.134 233.072 167.451 233.938 169.317Z" fill="black"/>
<path d="M222.767 287.818L228.242 286.668L227.543 278.869L226.898 271.715L220.184 272.016L221.546 280.381L222.767 287.818Z" fill="#B97964"/>
<path d="M230.038 284.626C229.993 284.007 222.457 284.803 222.457 284.803C222.457 284.803 218.035 289.728 213.524 290.992C209.013 292.257 211.693 294.848 216.743 294.636L229.233 294.114C232.824 293.955 230.453 290.992 230.038 284.626Z" fill="#263238"/>
<path d="M218.468 286.925C218.259 286.935 218.051 286.879 217.875 286.766C217.759 286.669 217.676 286.539 217.636 286.394C217.597 286.248 217.603 286.094 217.654 285.952C217.678 285.84 217.725 285.734 217.792 285.641C217.859 285.548 217.945 285.471 218.044 285.413C218.543 285.181 219.097 285.09 219.645 285.147C219.043 284.847 218.539 284.484 218.495 284.095C218.45 283.706 218.636 283.609 218.972 283.423C219.123 283.341 219.29 283.293 219.461 283.283C219.632 283.272 219.803 283.299 219.963 283.361C221.016 283.741 221.732 285.492 221.732 285.563C221.755 285.62 221.755 285.683 221.732 285.74C221.712 285.77 221.685 285.794 221.652 285.811C220.671 286.379 219.59 286.757 218.468 286.925ZM219.353 285.572C218.981 285.546 218.61 285.616 218.274 285.775C218.177 285.835 218.107 285.93 218.079 286.04C218.079 286.235 218.079 286.359 218.141 286.421C218.495 286.695 219.83 286.235 220.918 285.731C220.399 285.631 219.872 285.577 219.344 285.572H219.353ZM219.547 283.706C219.42 283.71 219.296 283.743 219.185 283.803C219.105 283.803 218.919 283.954 218.928 284.051C218.928 284.387 220.043 284.935 221.166 285.289C220.891 284.649 220.421 284.114 219.821 283.759C219.732 283.722 219.635 283.704 219.538 283.706H219.547Z" fill="#577AFA"/>
<path opacity="0.2" d="M221.59 280.549L227.579 279.019L226.915 271.795L220.193 272.06L221.59 280.549Z" fill="black"/>
<path d="M200.176 216.387C201.645 208.057 232.585 207.951 252.867 205.201L275.131 231.552C275.131 231.552 247.454 224.372 220.202 224.372C220.202 224.372 226.155 239.997 228.162 275.314L218.38 277.233C218.38 277.233 198.699 224.725 200.176 216.387Z" fill="#263238"/>
<path opacity="0.2" d="M200.176 216.387C201.645 208.057 232.585 207.951 252.867 205.201L275.131 231.552C275.131 231.552 247.454 224.372 220.202 224.372C220.202 224.372 226.155 239.997 228.162 275.314L218.38 277.233C218.38 277.233 198.699 224.725 200.176 216.387Z" fill="black"/>
<path d="M246.048 150.508H263.34L275.131 195.058L242.527 198.737L243.819 185.119L238.927 179.053L246.048 150.508Z" fill="#01635D"/>
<path opacity="0.2" d="M246.048 150.508H263.34L275.131 195.058L242.527 198.737L243.819 185.119L238.927 179.053L246.048 150.508Z" fill="white"/>
<path d="M166.069 281.708L170.385 285.253L176.029 279.824L181.203 274.837L176.754 269.796L171.093 276.101L166.069 281.708Z" fill="#B97964"/>
<path d="M172.906 283.759C173.242 283.237 166.715 279.4 166.715 279.4C166.715 279.4 160.205 280.708 155.862 279.055C151.519 277.401 152.094 281.071 156.277 283.901L166.635 290.904C169.598 292.894 169.457 289.127 172.906 283.759Z" fill="#263238"/>
<path d="M165.485 279.753C164.928 279.665 162.168 279.205 161.885 278.25C161.851 278.104 161.861 277.951 161.915 277.811C161.969 277.67 162.063 277.549 162.186 277.463C162.365 277.318 162.593 277.248 162.823 277.269C163.366 277.376 163.869 277.633 164.273 278.011C163.964 277.41 163.769 276.818 163.973 276.482C164.176 276.146 164.371 276.163 164.76 276.225C164.928 276.249 165.09 276.308 165.233 276.4C165.377 276.491 165.499 276.613 165.591 276.756C166.202 277.693 165.742 279.515 165.724 279.594C165.707 279.636 165.675 279.67 165.636 279.691H165.583L165.485 279.753ZM162.717 277.693C162.667 277.69 162.617 277.697 162.57 277.714C162.523 277.73 162.479 277.756 162.442 277.79C162.301 277.914 162.239 278.038 162.266 278.135C162.398 278.56 163.743 279.019 164.919 279.223C164.326 278.595 163.38 277.737 162.77 277.693H162.717ZM164.486 276.632C164.397 276.632 164.318 276.632 164.291 276.703C164.114 276.986 164.671 278.056 165.344 279.019C165.509 278.345 165.454 277.635 165.184 276.994C165.124 276.901 165.043 276.821 164.948 276.761C164.854 276.702 164.747 276.664 164.636 276.65L164.486 276.632Z" fill="#577AFA"/>
<path opacity="0.2" d="M170.987 276.234L175.931 279.939L181.15 274.89L176.736 269.823L170.987 276.234Z" fill="black"/>
<path d="M249.895 193.511C250.152 199.249 250.78 206.633 250.78 206.633C225.049 212.964 214.514 219.72 209.72 225.459C200.725 236.247 174.817 270.283 174.817 270.283L183.388 276.552C208.367 252.491 227.225 235.248 227.225 235.248C252.752 235.292 281.322 233.55 286.762 228.174C294.723 220.277 288.106 197.941 279.014 187.347L249.895 193.511Z" fill="#263238"/>
<path d="M186.342 274.536L176.559 267.206L173.074 271.388L181.477 277.64L186.342 274.536Z" fill="#01635D"/>
<path d="M278.164 185.119L279.571 189.151L251.266 196.632L249.603 191.857L278.164 185.119Z" fill="black"/>
<path d="M270.558 193.651L271.951 193.245L269.883 186.156L268.49 186.562L270.558 193.651Z" fill="#263238"/>
<path d="M257.672 195.269L263.884 193.712L262.704 189.003L256.492 190.56L257.672 195.269Z" fill="white"/>
<path d="M253.066 197.664L254.459 197.257L252.39 190.169L250.997 190.576L253.066 197.664Z" fill="#263238"/>
<path d="M249.603 191.857C249.603 191.857 241.439 173.95 232.01 163.109C232.01 163.109 234.956 157.936 246.525 155.009C258.095 152.083 268.24 158.272 268.24 158.272L278.669 186.569C278.669 186.569 261.235 191.459 249.603 191.857Z" fill="#01635D"/>
<path d="M257.865 152.295C257.865 152.295 257.113 172.182 257.865 176.029C258.617 179.875 272.097 198.772 272.097 198.772L286.965 193.175L277.165 178.478C277.165 178.478 275.484 155.628 257.865 152.295Z" fill="#01635D"/>
<path d="M237.132 157.282C237.132 157.282 241.448 177.797 243.819 185.119V200.832H240.493L242.191 185.119C242.191 185.119 221.033 162.349 237.132 157.282Z" fill="#01635D"/>
<path opacity="0.4" d="M257.865 152.295C257.865 152.295 257.113 172.182 257.865 176.029C258.617 179.875 272.097 198.772 272.097 198.772L286.965 193.175L277.165 178.478C277.165 178.478 275.484 155.628 257.865 152.295Z" fill="white"/>
<path opacity="0.4" d="M237.132 157.282C237.132 157.282 241.448 177.797 243.819 185.119V200.832H240.493L242.191 185.119C242.191 185.119 221.033 162.349 237.132 157.282Z" fill="white"/>
<path d="M257.537 173.04C257.537 173.04 254.079 159.042 253.893 156.645C253.805 155.407 255.459 152.693 257.095 150.349C257.478 149.797 257.978 149.336 258.559 148.999C259.14 148.662 259.788 148.456 260.457 148.397C261.127 148.338 261.801 148.427 262.432 148.657C263.063 148.888 263.636 149.254 264.109 149.73C266.383 152.056 268.532 154.965 267.081 156.645C267.081 156.645 262.659 154.32 260.722 155.009C258.785 155.699 257.537 173.04 257.537 173.04Z" fill="#01635D"/>
<path d="M240.325 171.643C240.325 171.643 235.964 162.65 235.017 159.643C234.071 156.636 238.096 149.403 240.325 148.271C242.554 147.139 248.232 152.259 248.232 152.259C248.232 152.259 236.822 155.231 240.325 171.643Z" fill="#01635D"/>
<path opacity="0.2" d="M257.537 173.04C257.537 173.04 254.079 159.042 253.893 156.645C253.805 155.407 255.459 152.693 257.095 150.349C257.478 149.797 257.978 149.336 258.559 148.999C259.14 148.662 259.788 148.456 260.457 148.397C261.127 148.338 261.801 148.427 262.432 148.657C263.063 148.888 263.636 149.254 264.109 149.73C266.383 152.056 268.532 154.965 267.081 156.645C267.081 156.645 262.659 154.32 260.722 155.009C258.785 155.699 257.537 173.04 257.537 173.04Z" fill="white"/>
<path opacity="0.2" d="M240.325 171.643C240.325 171.643 235.964 162.65 235.017 159.643C234.071 156.636 238.096 149.403 240.325 148.271C242.554 147.139 248.232 152.259 248.232 152.259C248.232 152.259 236.822 155.231 240.325 171.643Z" fill="white"/>
<path d="M246.543 163.737C246.543 163.737 242.315 164.338 241.572 161.199C241.572 161.199 242.536 160.315 241.572 158.272C241.115 157.328 240.518 156.458 239.803 155.69C238.98 154.79 238.093 153.951 237.149 153.179L242.58 146.237C243.007 147.717 243.647 149.126 244.482 150.42C245.782 152.445 247.852 154.452 250.939 154.558C250.921 154.558 251.328 158.299 246.543 163.737Z" fill="#B97964"/>
<path opacity="0.2" d="M244.464 150.42C243.805 153.136 242.844 155.77 241.598 158.272C241.141 157.328 240.545 156.458 239.829 155.69C239.006 154.79 238.12 153.951 237.176 153.179L242.607 146.237C243.019 147.715 243.645 149.124 244.464 150.42Z" fill="black"/>
<path d="M235.761 129.781C228.242 130.347 226.128 134.547 226.155 142.338C226.155 152.065 228.861 158.785 238.104 156.009C250.665 152.295 248.25 128.844 235.761 129.781Z" fill="#B97964"/>
<path d="M230.984 141.551C230.468 142.719 229.811 143.821 229.029 144.831C229.274 145.125 229.595 145.347 229.957 145.471C230.318 145.596 230.707 145.619 231.081 145.539L230.984 141.551Z" fill="#A24E3F"/>
<path d="M235.539 140.596C235.539 141.206 235.937 141.693 236.344 141.675C236.751 141.658 237.07 141.136 237.034 140.517C236.999 139.897 236.645 139.411 236.229 139.437C235.814 139.464 235.513 139.977 235.539 140.596Z" fill="#263238"/>
<path d="M236.406 139.455L235.035 138.995C235.035 138.995 235.761 140.092 236.406 139.455Z" fill="#263238"/>
<path d="M227.844 140.861C227.844 141.481 228.233 141.958 228.649 141.941C229.065 141.923 229.365 141.401 229.339 140.782C229.312 140.163 228.95 139.676 228.534 139.703C228.118 139.729 227.809 140.242 227.844 140.861Z" fill="#263238"/>
<path d="M228.711 139.721L227.331 139.261C227.331 139.261 228.109 140.357 228.711 139.721Z" fill="#263238"/>
<path d="M238.573 136.608C238.487 136.607 238.405 136.572 238.343 136.511C237.928 136.156 237.438 135.899 236.909 135.76C236.381 135.621 235.828 135.602 235.292 135.706C235.25 135.715 235.208 135.716 235.166 135.708C235.125 135.701 235.085 135.685 235.05 135.662C235.014 135.639 234.984 135.609 234.96 135.574C234.936 135.539 234.92 135.5 234.911 135.458C234.896 135.374 234.914 135.287 234.962 135.216C235.01 135.145 235.084 135.095 235.168 135.078C235.809 134.948 236.472 134.97 237.103 135.142C237.734 135.314 238.317 135.631 238.803 136.069C238.834 136.098 238.859 136.133 238.875 136.171C238.892 136.21 238.901 136.252 238.901 136.294C238.901 136.336 238.892 136.378 238.875 136.417C238.859 136.456 238.834 136.491 238.803 136.52C238.773 136.549 238.737 136.573 238.697 136.588C238.658 136.603 238.616 136.61 238.573 136.608Z" fill="#263238"/>
<path d="M226.792 136.652C226.742 136.652 226.693 136.641 226.649 136.62C226.605 136.598 226.566 136.567 226.535 136.529C226.484 136.461 226.461 136.376 226.471 136.292C226.48 136.208 226.523 136.131 226.588 136.077C227.027 135.697 227.546 135.421 228.106 135.267C228.667 135.114 229.254 135.089 229.825 135.193C229.866 135.204 229.905 135.223 229.938 135.25C229.971 135.276 229.999 135.308 230.02 135.345C230.04 135.383 230.053 135.423 230.058 135.466C230.063 135.508 230.059 135.55 230.047 135.591C230.036 135.633 230.018 135.672 229.992 135.706C229.966 135.74 229.933 135.768 229.896 135.789C229.859 135.81 229.817 135.822 229.775 135.826C229.732 135.83 229.689 135.826 229.649 135.812C229.175 135.735 228.691 135.766 228.232 135.902C227.772 136.039 227.349 136.277 226.995 136.599C226.935 136.639 226.863 136.658 226.792 136.652Z" fill="#263238"/>
<path d="M244.915 141.834C244.915 141.834 240.935 135.918 241.112 131.108C241.112 131.108 225.757 126.147 226.155 141.321C226.155 141.321 223.687 128.004 236.592 126.731C249.497 125.457 250.877 144.336 244.623 150.526C244.623 150.526 247.392 145.53 244.915 141.834Z" fill="#263238"/>
<path d="M243.819 143.514C243.828 142.639 244.183 141.803 244.806 141.189C245.429 140.574 246.269 140.231 247.144 140.233C249.497 140.313 250.965 145.008 245.26 146.591C244.438 146.821 243.907 146.043 243.819 143.514Z" fill="#B97964"/>
<path d="M232.01 150.243C231.972 150.251 231.933 150.251 231.895 150.243C231.855 150.229 231.819 150.206 231.788 150.177C231.757 150.148 231.732 150.113 231.715 150.074C231.698 150.036 231.688 149.994 231.687 149.952C231.686 149.909 231.694 149.867 231.709 149.828C231.709 149.828 233.275 145.955 236.893 146.352C236.935 146.356 236.976 146.368 237.014 146.387C237.052 146.407 237.085 146.435 237.111 146.468C237.138 146.501 237.157 146.539 237.168 146.58C237.179 146.621 237.182 146.664 237.176 146.706C237.165 146.79 237.122 146.866 237.056 146.919C236.99 146.971 236.906 146.997 236.822 146.989C233.682 146.627 232.32 150.031 232.311 150.066C232.282 150.121 232.238 150.166 232.185 150.197C232.132 150.228 232.072 150.244 232.01 150.243Z" fill="#263238"/>
<path d="M231.524 206.377L236.627 201.893C236.627 201.893 244.517 204.431 246.41 205.961C248.303 207.491 254.831 211.815 254.831 211.815L248.232 215.078C248.232 215.078 242.394 209.003 240.387 208.481C238.379 207.96 231.524 206.377 231.524 206.377Z" fill="#01635D"/>
<path opacity="0.4" d="M231.524 206.377L236.627 201.893C236.627 201.893 244.517 204.431 246.41 205.961C248.303 207.491 254.831 211.815 254.831 211.815L248.232 215.078C248.232 215.078 242.394 209.003 240.387 208.481C238.379 207.96 231.524 206.377 231.524 206.377Z" fill="white"/>
<path d="M237.609 205.492L242.085 203.839C242.085 203.839 250.444 210.763 249.603 210.763C248.763 210.763 241.563 214.3 241.563 214.3L235.469 207.119C236.054 206.427 236.785 205.871 237.609 205.492Z" fill="#01635D"/>
<path d="M253.893 198.737L249.603 203.299C248.54 203.24 247.474 203.24 246.41 203.299C245.729 203.414 240.387 206.553 240.387 206.553C240.387 206.553 244.013 210.524 244.464 210.763C244.915 211.001 250.877 209.251 250.93 208.543C250.983 207.836 251.027 206.103 251.027 206.103C251.027 206.103 256.662 201.045 256.388 200.797C256.113 200.549 253.893 198.737 253.893 198.737Z" fill="#B97964"/>
<path d="M264.773 157.468C260.191 159.351 264.923 181.166 264.676 182.625C264.428 184.084 249.639 202.079 249.639 202.079L254.291 205.519C254.291 205.519 267.957 191.132 270.566 186.781C273.176 182.431 272.689 166.054 271.982 164.224C271.274 162.393 267.108 156.504 264.773 157.468Z" fill="#01635D"/>
<path opacity="0.2" d="M264.773 157.468C260.191 159.351 264.923 181.166 264.676 182.625C264.428 184.084 249.639 202.079 249.639 202.079L254.291 205.519C254.291 205.519 267.957 191.132 270.566 186.781C273.176 182.431 272.689 166.054 271.982 164.224C271.274 162.393 267.108 156.504 264.773 157.468Z" fill="white"/>
<path d="M216.389 273.917L228.242 271.901V276.42L217.831 278.011L216.389 273.917Z" fill="#01635D"/>
</svg>
