<svg width="343" height="300" viewBox="0 0 343 300" fill="none" xmlns="http://www.w3.org/2000/svg">
<path d="M45.2079 56.8093C-24.7313 106.775 40.9268 221.241 121.542 205.957C146.61 201.21 155.534 171.16 183.874 167.733C212.781 164.218 243.81 187.149 273.459 185.819C342.567 182.723 351.827 97.4422 300.198 44.2108C242.262 -15.5697 95.2984 21.0035 45.2079 56.8093Z" fill="#01635D"/>
<path opacity="0.9" d="M45.2079 56.8093C-24.7313 106.775 40.9268 221.241 121.542 205.957C146.61 201.21 155.534 171.16 183.874 167.733C212.781 164.218 243.81 187.149 273.459 185.819C342.567 182.723 351.827 97.4422 300.198 44.2108C242.262 -15.5697 95.2984 21.0035 45.2079 56.8093Z" fill="white"/>
<path d="M171.5 300C266.217 300 343 295.478 343 289.9C343 284.322 266.217 279.8 171.5 279.8C76.7832 279.8 0 284.322 0 289.9C0 295.478 76.7832 300 171.5 300Z" fill="#F5F5F5"/>
<path d="M223.687 212.256H222.802V218.404H223.687V212.256Z" fill="#01635D"/>
<path d="M223.687 185.096H222.802V205.913H223.687V185.096Z" fill="#01635D"/>
<path d="M218.38 0H207.173C205.951 0 204.961 0.998681 204.961 2.23062V282.994C204.961 284.226 205.951 285.224 207.173 285.224H218.38C219.601 285.224 220.591 284.226 220.591 282.994V2.23062C220.591 0.998681 219.601 0 218.38 0Z" fill="#01635D"/>
<path opacity="0.4" d="M220.591 176.076L204.961 167.296V153.02H220.591V176.076Z" fill="#263238"/>
<path d="M310.432 155.349H106.107L115.129 7.44131H319.454L310.432 155.349Z" fill="#01635D"/>
<path opacity="0.8" d="M310.432 155.349H106.107L115.129 7.44131H319.454L310.432 155.349Z" fill="white"/>
<path d="M109.858 151.78L118.446 11.0103H315.695L307.106 151.78H109.858Z" fill="white"/>
<path d="M312.006 155.349H310.432L319.454 7.44131H321.02L312.006 155.349Z" fill="#01635D"/>
<path opacity="0.4" d="M166.193 31.6569C164.719 32.0157 163.394 32.8336 162.407 33.9946C160.709 36.1003 160.399 38.9823 158.71 41.0255C157.215 42.81 154.632 43.3989 153.403 45.4867C152.518 46.9857 152.677 48.8683 151.881 50.4119C150.873 52.3392 148.803 53.169 147.193 54.4627C145.132 56.1312 144.407 58.4689 142.912 60.6014C140.374 64.2417 136.19 66.3742 133.227 69.6844C130.264 72.9947 128.698 77.8664 130.44 81.6852C131.9 84.8794 135.217 86.6193 137.897 88.8231C140.161 90.6879 142.143 93.6056 141.479 96.8534C140.816 100.101 137.579 102.073 135.827 104.669C134.226 107.052 133.51 109.871 132.829 112.628C132.054 115.21 131.652 117.89 131.635 120.587C131.979 128.858 139.728 134.934 147.299 136.442C150.315 137.141 153.472 136.863 156.322 135.648C157.998 134.868 159.425 133.632 160.443 132.079C162.398 129.001 160.443 125.834 165.069 125.039C166.473 124.708 167.926 124.651 169.351 124.87C170.047 124.987 170.697 125.3 171.224 125.774C171.752 126.248 172.136 126.862 172.331 127.547C172.491 128.305 172.331 129.126 172.553 129.866C172.693 130.321 172.934 130.738 173.258 131.086C173.581 131.434 173.978 131.703 174.419 131.874C176.595 132.766 178.594 131.829 179.867 129.724C180.876 128.073 181.415 126.306 182.751 124.87C185.369 122.291 188.24 119.989 191.322 118C193.976 116.153 196.93 114.6 200.061 114.288C202.927 113.993 206.067 114.912 207.818 117.17C209.729 119.641 208.703 123.255 211.056 125.619C212.231 126.702 213.7 127.404 215.275 127.636C219.492 128.335 223.815 127.415 227.393 125.057C229.149 123.966 230.589 122.428 231.568 120.596C232.85 117.982 231.975 115.608 232.452 112.941C233.133 108.89 236.68 108.167 240.024 107.694C244.048 107.095 247.785 105.238 250.709 102.385C252.796 100.351 255.653 98.6111 258.395 99.9941C259.497 100.617 260.465 101.454 261.244 102.457C262.871 104.357 264.277 106.454 265.94 108.328C269.991 112.887 279.014 116.563 283.1 109.041C283.727 107.882 284.056 106.583 284.056 105.263C284.056 103.942 283.727 102.643 283.1 101.484C281.897 99.3873 279.668 97.3084 280.853 94.5246C282.198 91.3839 285.957 91.2679 286.514 87.3152C287.001 83.8801 285.046 80.6323 287.257 77.4113C288.584 75.484 290.707 74.458 292.352 72.8609C296.775 68.5513 295.837 62.3056 297.456 56.9521C299.552 50.0283 307.92 48.8059 305.231 40.4634C304.632 38.3501 303.767 36.3231 302.657 34.4318C301.535 32.5395 299.811 31.0864 297.765 30.3096C293.405 28.8196 291.963 31.7729 288.832 33.9768C285.701 36.1806 282.295 33.4325 280.172 31.5231C274.202 26.1696 265.542 24.9026 258.59 30.3007C256.556 31.8889 254.592 33.6645 252.248 34.6816C246.454 37.1888 235.637 35.0921 231.665 30.4613C230.86 29.3179 229.995 28.2188 229.073 27.1689C227.882 26.1541 226.385 25.5747 224.827 25.5245C223.268 25.4743 221.738 25.9563 220.485 26.8923C218.981 28.0165 217.902 29.7118 216.257 30.5862C213.462 32.0763 210.127 31.6391 207.412 33.3076C204.475 35.0921 201.936 37.6617 198.292 36.4483C196.16 35.7345 194.754 33.8518 193.171 32.2636C191.587 30.6754 189.473 29.2478 187.227 29.8189C184.007 30.6308 183.547 35.2973 180.151 35.6988C178.824 35.8505 177.639 35.1188 176.542 34.4407C174.437 32.9758 172.04 31.9923 169.519 31.5588C168.413 31.3885 167.286 31.4217 166.193 31.6569Z" fill="#01635D"/>
<path opacity="0.4" d="M267.338 125.075C265.463 122.782 265.949 116.991 262.181 117.518C259.89 117.839 260.094 118.856 258.05 117.393C256.688 116.42 256.051 115.055 253.575 115.037C244.04 114.966 243.969 128.76 251.133 132.186C253.23 133.195 254.557 131.196 256.441 131.294C258.325 131.392 259.43 133.498 260.501 134.72C261.698 136.23 263.337 137.319 265.185 137.832C267.032 138.345 268.993 138.255 270.788 137.575C273.981 136.532 276.785 132.472 275.29 129.188C273.928 126.28 269.408 127.609 267.338 125.075Z" fill="#01635D"/>
<path d="M139.799 94.0339L139.294 93.5966C140.834 91.8122 140.736 89.8314 140.63 87.7614C140.509 86.4686 140.568 85.165 140.807 83.889C141.355 81.5513 142.921 80.6055 144.442 79.6865C145.638 79.1085 146.654 78.2104 147.379 77.0901C148.449 75.145 147.45 73.4587 146.388 71.6742C146.105 71.2013 145.813 70.7016 145.583 70.2198C144.997 68.9602 144.751 67.5669 144.869 66.1806C144.987 64.7943 145.465 63.4638 146.256 62.3234C146.987 61.1724 147.986 60.2184 149.165 59.5437C150.343 58.8691 151.667 58.494 153.022 58.4511C157.648 58.2994 162.363 61.5204 164.769 64.5897C165.653 65.6872 166.423 66.856 167.183 67.9892C167.838 68.9528 168.51 69.9521 169.227 70.8979C169.945 71.9614 170.865 72.8711 171.933 73.5746C174.649 75.1896 177.727 73.5746 179.832 71.9151C183.242 69.2538 187.379 67.7122 191.685 67.4984C195.391 67.32 198.805 66.865 199.76 63.18C199.978 62.234 200.102 61.2687 200.132 60.298C200.091 58.6183 200.504 56.9591 201.326 55.4977C202.545 53.6671 204.232 52.2028 206.209 51.2596C210.285 49.184 214.965 48.6521 219.397 49.7606C221.081 50.1462 222.617 51.0173 223.819 52.2678C225.084 53.7222 225.279 55.4442 225.456 57.1038C225.49 58.494 225.87 59.8533 226.561 61.0564C227.994 63.1621 230.984 64.5183 234.106 64.5183H234.204C237.008 64.5183 240.059 63.5458 243.544 61.6275L243.88 61.4401C247.127 59.8013 250.2 57.8342 253.053 55.5691C253.933 54.7385 254.684 53.779 255.282 52.7228C255.636 52.1607 255.998 51.5808 256.423 51.0187C258.13 48.7702 260.492 48.1189 262.747 49.2342C263.237 49.4594 263.669 49.7943 264.01 50.2133C264.352 50.6323 264.595 51.1244 264.72 51.6522C264.787 52.0889 264.802 52.5323 264.764 52.9727C264.728 53.3197 264.728 53.6695 264.764 54.0166C264.913 54.6689 265.241 55.2658 265.71 55.7391C266.179 56.2124 266.771 56.5431 267.417 56.6933C268.866 57.0415 270.366 57.1112 271.84 56.8986C274.786 56.6577 275.122 55.3996 275.59 53.6508C275.837 52.4713 276.335 51.36 277.05 50.3941C278.303 48.8564 279.957 47.7035 281.826 47.066C284.995 46.077 288.387 46.077 291.556 47.066C299.464 49.2877 307.292 56.0688 306.982 64.7146H306.319C306.619 56.497 298.845 49.832 291.379 47.762C288.332 46.822 285.077 46.822 282.03 47.762C280.276 48.3575 278.723 49.4362 277.545 50.8759C276.888 51.7703 276.435 52.8001 276.218 53.8917C275.741 55.6762 275.281 57.3447 271.884 57.6302C270.336 57.8461 268.761 57.7674 267.241 57.3982C266.471 57.217 265.768 56.8202 265.213 56.2535C264.657 55.6867 264.272 54.9732 264.101 54.1951C264.061 53.8035 264.061 53.4089 264.101 53.0173C264.145 52.632 264.145 52.2427 264.101 51.8574C263.99 51.4313 263.787 51.0354 263.505 50.6989C263.224 50.3623 262.871 50.0936 262.473 49.9123C260.527 48.913 258.475 49.5018 256.98 51.4737C256.573 52.0091 256.211 52.5712 255.866 53.1244C255.233 54.2386 254.437 55.2494 253.504 56.1223C250.618 58.4174 247.51 60.4114 244.225 62.0736L243.889 62.261C240.307 64.2328 237.149 65.1965 234.239 65.2321C230.789 65.2321 227.641 63.8224 226.04 61.4847C225.286 60.1887 224.869 58.7217 224.828 57.2198C224.642 55.587 224.474 54.0523 223.351 52.7585C222.231 51.6033 220.802 50.8032 219.238 50.4565C214.967 49.385 210.457 49.8947 206.527 51.8931C204.656 52.7842 203.057 54.1683 201.901 55.8992C201.145 57.2602 200.767 58.8011 200.804 60.3605C200.783 61.3735 200.655 62.3814 200.424 63.3674C199.256 67.8286 194.727 68.0427 191.729 68.1855C187.553 68.3886 183.539 69.8805 180.23 72.4593C177.966 74.2438 174.631 75.9659 171.588 74.1725C170.454 73.4319 169.472 72.4776 168.696 71.3619C167.971 70.3982 167.29 69.39 166.626 68.4175C165.874 67.2932 165.087 66.1333 164.238 65.0537C161.859 62.029 157.233 59.0043 153.04 59.1738C151.788 59.2051 150.564 59.5472 149.475 60.1697C148.385 60.7922 147.465 61.676 146.795 62.7428C146.071 63.7858 145.631 65.0028 145.521 66.2715C145.411 67.5401 145.634 68.8157 146.167 69.97C146.388 70.4339 146.663 70.8622 146.946 71.3708C148.007 73.1553 149.201 75.1807 147.945 77.4559C147.171 78.6824 146.075 79.6678 144.778 80.3022C143.31 81.1944 141.93 82.0242 141.444 84.0853C141.219 85.2999 141.165 86.5405 141.285 87.7703C141.426 89.8224 141.515 92.0352 139.799 94.0339Z" fill="white"/>
<path d="M202.626 117.625L201.972 117.518C202.178 116.635 202.601 115.819 203.201 115.144C203.631 114.645 203.977 114.078 204.227 113.467C204.45 112.669 204.542 111.841 204.501 111.013C204.456 110.11 204.558 109.206 204.802 108.337C205.155 107.311 205.825 106.426 206.713 105.812C207.369 105.34 208.102 104.989 208.88 104.776C210.608 104.39 212.397 104.369 214.134 104.714C214.92 104.926 215.753 104.882 216.513 104.589C217.398 104.098 217.663 103.135 217.92 102.127C218.057 101.039 218.594 100.043 219.423 99.3338C220.564 98.5129 222.174 98.4415 224.085 99.2446L224.863 99.5747C225.886 100.133 227.026 100.439 228.189 100.467C230.153 100.315 231.126 98.9234 232.152 97.4422C232.39 97.0942 232.638 96.7552 232.886 96.4161C233.624 95.5599 234.507 94.8438 235.495 94.3015C236.335 93.8216 237.101 93.2204 237.768 92.517C238.182 91.9752 238.513 91.3736 238.75 90.7325C238.953 90.2335 239.193 89.7504 239.467 89.2871C240.082 88.3394 240.985 87.6185 242.041 87.2324C243.096 86.8463 244.248 86.8159 245.322 87.1457C245.849 87.3606 246.355 87.6234 246.835 87.9309C247.144 88.1183 247.463 88.3146 247.79 88.4752C251.328 90.1615 258.404 88.7964 261.385 85.8609C262.303 84.873 263.085 83.7657 263.711 82.5685L264.224 81.6762C267.126 76.8938 272.84 74.9398 278.456 76.8046C280.305 77.4202 282.879 78.0359 284.126 76.2157C284.432 75.7435 284.712 75.255 284.966 74.7524C285.771 73.2356 286.523 71.7991 289.071 71.6206C290.605 71.5603 292.116 72.0119 293.369 72.9054L292.998 73.4587C291.863 72.6547 290.501 72.2445 289.115 72.2898C286.939 72.4415 286.355 73.539 285.577 75.0647C285.309 75.589 285.014 76.0983 284.692 76.5904C283.224 78.7854 280.323 78.1251 278.271 77.4381C272.963 75.6536 267.541 77.5094 264.808 82.0242L264.304 82.8719C263.647 84.1197 262.826 85.2723 261.863 86.2981C258.723 89.3942 251.248 90.8218 247.525 89.0373C247.176 88.8645 246.837 88.6739 246.507 88.4662C246.064 88.1833 245.596 87.9414 245.11 87.7435C244.178 87.4692 243.184 87.5022 242.273 87.8377C241.361 88.1731 240.579 88.7934 240.041 89.6083C239.791 90.0449 239.569 90.498 239.378 90.9645C239.118 91.6733 238.748 92.3358 238.281 92.9275C237.569 93.6717 236.753 94.306 235.858 94.8101C234.941 95.3104 234.12 95.9722 233.434 96.7641C233.186 97.0943 232.948 97.4244 232.718 97.7634C231.639 99.307 230.533 100.895 228.295 101.074C227.026 101.081 225.775 100.774 224.651 100.181C224.394 100.074 224.147 99.9584 223.89 99.8602C222.714 99.3873 221.06 98.968 219.857 99.8602C219.167 100.484 218.726 101.341 218.618 102.269C218.335 103.385 218.043 104.527 216.849 105.16C215.966 105.527 214.988 105.596 214.063 105.356C212.415 105.028 210.717 105.043 209.074 105.401C208.379 105.582 207.721 105.884 207.128 106.293C206.356 106.825 205.771 107.591 205.457 108.479C205.238 109.284 205.149 110.118 205.191 110.951C205.235 111.854 205.13 112.759 204.882 113.628C204.613 114.304 204.24 114.934 203.776 115.492C203.22 116.093 202.824 116.827 202.626 117.625Z" fill="white"/>
<path d="M143.646 18.4427H123.444L123.568 16.5065H143.761L143.646 18.4427Z" fill="#01635D"/>
<path d="M143.257 24.7688H123.063L123.178 22.8326H143.381L143.257 24.7688Z" fill="#01635D"/>
<path d="M81.2788 49.8052C79.0144 53.5794 76.6439 57.532 74.4945 61.4044C73.4154 63.3495 72.3894 65.2946 71.4606 67.2129C71.0007 68.1766 70.5761 69.1313 70.2046 70.0503C69.8561 70.8779 69.5607 71.7273 69.3201 72.5932C69.2732 72.7516 69.2349 72.9124 69.2051 73.075C69.1749 73.2015 69.1512 73.3296 69.1343 73.4587C69.1112 73.7914 69.1112 74.1253 69.1343 74.458C69.1652 75.3109 69.2898 76.1578 69.5058 76.983C70.0034 78.9563 70.6784 80.8796 71.5225 82.7291C73.351 86.762 75.4187 90.6801 77.7142 94.4621L77.7761 94.5692C78.1522 95.1682 78.2977 95.8855 78.1851 96.5854C78.0725 97.2853 77.7096 97.9193 77.165 98.3676C76.6204 98.8159 75.9319 99.0473 75.2295 99.0182C74.5272 98.9891 73.8598 98.7014 73.3535 98.2096C69.7411 94.8659 66.5424 91.0941 63.8272 86.9762C62.3805 84.7763 61.1679 82.4286 60.2095 79.9721C59.6783 78.5901 59.2843 77.1585 59.0331 75.6982C58.9015 74.8718 58.8306 74.0368 58.8208 73.1999C58.8208 72.7805 58.8208 72.3077 58.8739 71.8526C58.9269 71.3976 58.9712 71.0228 59.0242 70.6035C59.5083 67.914 60.2855 65.2868 61.3417 62.7695C62.2262 60.4229 63.2965 58.1923 64.3844 56.0242C66.5334 51.7002 68.9438 47.5136 71.6021 43.4881C72.4232 42.1866 73.7232 41.2674 75.2161 40.9327C76.709 40.5981 78.2726 40.8754 79.5628 41.7036C80.8531 42.5318 81.7643 43.8432 82.0961 45.3491C82.4278 46.8551 82.153 48.4323 81.3319 49.7338L81.2788 49.8052Z" fill="#263238"/>
<path d="M78.8994 95.8451L80.0228 99.4141L71.7967 100.155C71.5435 98.6075 71.7211 97.0198 72.3098 95.5685C72.5398 95.0738 72.8945 94.6487 73.3384 94.3356C73.7823 94.0224 74.2999 93.8322 74.8395 93.784L75.5648 93.7038C76.2795 93.6229 77.0001 93.7913 77.6067 94.1808C78.2134 94.5704 78.6696 95.1577 78.8994 95.8451Z" fill="#7F3E3B"/>
<path d="M80.7038 104.232L74.406 105.517L71.7966 100.128L80.0227 99.3873L80.7038 104.232Z" fill="#7F3E3B"/>
<path d="M101.517 18.6301C101.517 19.1922 101.738 19.683 102.1 19.7365C102.463 19.79 102.79 19.3618 102.835 18.8443C102.879 18.3268 102.613 17.7825 102.251 17.7379C101.888 17.6933 101.552 18.068 101.517 18.6301Z" fill="#263238"/>
<path d="M101.685 19.674C102.226 21.4907 103.003 23.2276 103.993 24.8401C102.941 25.6342 101.287 24.9829 101.287 24.9829L101.685 19.674Z" fill="#630F0F"/>
<path d="M99.7033 15.2307C99.6423 15.212 99.5879 15.1762 99.5463 15.1275C99.5047 15.0788 99.4777 15.0192 99.4684 14.9556C99.4591 14.892 99.468 14.8271 99.4939 14.7683C99.5198 14.7096 99.5618 14.6596 99.6148 14.624C100.069 14.3677 100.576 14.2235 101.096 14.2034C101.616 14.1832 102.133 14.2876 102.605 14.508C102.684 14.5483 102.745 14.6183 102.775 14.7031C102.805 14.788 102.801 14.8811 102.764 14.963C102.723 15.0398 102.653 15.0969 102.57 15.122C102.487 15.1471 102.398 15.138 102.321 15.0968C101.947 14.9237 101.538 14.8438 101.127 14.864C100.716 14.8842 100.315 15.0038 99.9598 15.2128C99.9212 15.2354 99.8781 15.2487 99.8336 15.2518C99.7891 15.2549 99.7445 15.2477 99.7033 15.2307Z" fill="#263238"/>
<path d="M83.8262 22.3865C85.0026 27.5436 86.3205 36.9836 82.9417 40.3295C82.9417 40.3295 84.5072 45.567 93.9363 45.7812C104.303 46.0221 98.7127 40.6864 98.7127 40.6864C92.9987 39.1875 92.9987 34.9404 93.8478 30.9699L83.8262 22.3865Z" fill="#7F3E3B"/>
<path d="M79.6249 42.0516C78.5458 41.3378 79.9787 35.0028 81.0224 34.3783C83.7998 32.7187 95.8382 33.37 101.128 36.6802C102.808 38.5897 102.534 42.6048 102.534 42.6048L79.6249 42.0516Z" fill="#263238"/>
<path d="M78.7136 283.386C79.4213 283.386 80.1112 283.315 80.3677 282.976C80.4492 282.86 80.4929 282.721 80.4929 282.579C80.4929 282.437 80.4492 282.298 80.3677 282.182C80.3121 282.081 80.2362 281.993 80.1447 281.924C80.0533 281.855 79.9484 281.806 79.837 281.78C78.8198 281.513 76.9357 282.78 76.8561 282.833C76.8299 282.85 76.8096 282.874 76.7984 282.903C76.7873 282.932 76.7858 282.964 76.7942 282.994C76.8 283.026 76.8147 283.055 76.8367 283.079C76.8586 283.103 76.8869 283.12 76.9181 283.128C77.5068 283.273 78.1082 283.359 78.7136 283.386ZM79.5451 282.075C79.6126 282.066 79.681 282.066 79.7485 282.075C79.8131 282.09 79.8738 282.119 79.9271 282.159C79.9803 282.198 80.0249 282.249 80.0581 282.307C80.2173 282.583 80.1289 282.699 80.0581 282.735C79.7662 283.119 78.351 283.083 77.3072 282.878C77.9696 282.441 78.7237 282.166 79.5097 282.075H79.5451Z" fill="#01635D"/>
<path d="M76.9268 283.137H77.0064C77.7141 282.762 79.0674 281.272 78.8993 280.46C78.8703 280.336 78.8018 280.225 78.7043 280.145C78.6068 280.064 78.4857 280.018 78.3598 280.014C78.2382 279.991 78.113 279.995 77.9936 280.028C77.8741 280.06 77.7635 280.119 77.6698 280.201C76.8738 280.843 76.7853 282.878 76.7853 282.94C76.784 282.97 76.7907 283 76.8047 283.027C76.8187 283.054 76.8395 283.076 76.8649 283.092C76.8804 283.113 76.9021 283.129 76.9268 283.137ZM78.2536 280.335H78.3332C78.5455 280.335 78.5632 280.469 78.5721 280.513C78.6782 280.977 77.8202 282.11 77.1214 282.637C77.1446 281.849 77.4104 281.088 77.8821 280.46C77.9887 280.377 78.1194 280.334 78.2536 280.335Z" fill="#01635D"/>
<path d="M133.306 277.658C134.191 277.462 134.96 277.15 135.12 276.686C135.16 276.56 135.162 276.426 135.124 276.299C135.086 276.173 135.01 276.062 134.907 275.981C134.747 275.82 134.532 275.728 134.306 275.722C133.103 275.668 131.157 277.578 131.077 277.658C131.06 277.685 131.051 277.716 131.051 277.747C131.051 277.779 131.06 277.81 131.077 277.837C131.092 277.869 131.116 277.896 131.146 277.915C131.176 277.934 131.21 277.944 131.245 277.944C131.94 277.912 132.629 277.817 133.306 277.658ZM133.987 276.088C134.093 276.071 134.2 276.071 134.306 276.088C134.375 276.087 134.443 276.099 134.507 276.126C134.571 276.152 134.629 276.19 134.677 276.239C134.845 276.418 134.837 276.525 134.81 276.596C134.624 277.105 132.944 277.489 131.652 277.622C132.317 276.954 133.112 276.431 133.987 276.088Z" fill="#01635D"/>
<path d="M131.237 277.944H131.299C131.997 277.39 133.183 275.535 132.838 274.785C132.758 274.616 132.572 274.419 132.121 274.473C131.962 274.492 131.809 274.545 131.672 274.628C131.535 274.711 131.417 274.822 131.325 274.955C130.679 275.847 131.016 277.756 131.033 277.837C131.04 277.866 131.053 277.893 131.071 277.916C131.089 277.939 131.113 277.958 131.139 277.97L131.237 277.944ZM132.121 274.785H132.219C132.51 274.785 132.563 274.856 132.581 274.892C132.785 275.347 132.024 276.757 131.343 277.462C131.2 276.677 131.302 275.866 131.635 275.142C131.735 274.97 131.896 274.843 132.086 274.785H132.121Z" fill="#01635D"/>
<path d="M123.851 280.629L130.255 279.318L127.575 262.267L121.162 263.578L123.851 280.629Z" fill="#7F3E3B"/>
<path d="M68.9485 282.842L75.9981 283.565L77.5283 267.727L70.4787 266.996L68.9485 282.842Z" fill="#7F3E3B"/>
<path d="M76.3874 282.137L68.5682 281.896C68.4332 281.892 68.3011 281.936 68.1957 282.021C68.0903 282.106 68.0185 282.226 67.9932 282.36L66.7903 288.544C66.7633 288.699 66.7703 288.859 66.8106 289.011C66.8509 289.164 66.9237 289.306 67.0238 289.427C67.124 289.549 67.2491 289.647 67.3905 289.714C67.532 289.782 67.6863 289.818 67.8429 289.819C70.5672 289.819 71.8851 289.739 75.3259 289.819C77.4399 289.882 84.1092 290.408 87.0105 290.203C89.9117 289.998 89.9205 287.08 88.6999 286.893C83.2336 286.09 79.2797 284.216 77.5284 282.583C77.2128 282.302 76.8082 282.144 76.3874 282.137Z" fill="#263238"/>
<path d="M130.264 277.194L122.984 278.889C122.851 278.919 122.734 278.996 122.653 279.105C122.572 279.215 122.532 279.351 122.542 279.487L122.94 285.885C122.949 286.041 122.992 286.193 123.065 286.331C123.138 286.469 123.239 286.59 123.363 286.685C123.486 286.78 123.629 286.847 123.78 286.881C123.931 286.915 124.088 286.916 124.24 286.884C126.894 286.224 130.609 285.18 133.908 284.412C137.773 283.52 139.463 283.351 143.983 282.298C146.725 281.655 146.68 278.64 145.469 278.649C139.923 278.693 137.331 279.157 132.024 277.355C131.463 277.139 130.854 277.083 130.264 277.194Z" fill="#263238"/>
<path opacity="0.2" d="M127.566 262.276L128.955 271.064L122.551 272.376L121.162 263.587L127.566 262.276Z" fill="black"/>
<path opacity="0.2" d="M70.4786 266.996L77.5283 267.727L76.7322 275.891L69.6914 275.169L70.4786 266.996Z" fill="black"/>
<path d="M82.9771 14.9451C82.8887 21.8957 82.4906 25.9376 85.6926 29.9438C86.6809 31.2608 88.0083 32.2791 89.5305 32.8879C91.0527 33.4967 92.7112 33.6727 94.3257 33.3967C95.9401 33.1207 97.4486 32.4032 98.6868 31.3225C99.9251 30.2417 100.846 28.839 101.349 27.267C103.277 21.2712 103.118 10.9033 96.5899 7.26289C90.0621 3.62252 83.0479 7.98561 82.9771 14.9451Z" fill="#7F3E3B"/>
<path d="M96.6961 20.6733C95.0244 23.8497 89.9295 27.4633 87.161 27.7132C86.4019 27.7763 85.6381 27.6794 84.9181 27.4288C84.1981 27.1782 83.5376 26.7793 82.9786 26.2574C82.4196 25.7355 81.9744 25.102 81.6711 24.3972C81.3678 23.6924 81.2132 22.9317 81.217 22.1634C81.1639 18.4427 78.5634 14.035 79.2445 11.4564C79.9256 8.87785 80.9162 7.58409 82.3934 8.12836C83.5123 6.81913 84.9256 5.79903 86.5152 5.15331C88.1047 4.50758 89.8244 4.25498 91.5305 4.41661C94.0888 4.49266 96.611 5.04628 98.9693 6.04943C100.924 6.94167 103.392 11.1352 102.171 12.9019C100.659 15.07 96.643 13.7227 96.6961 20.6733Z" fill="#263238"/>
<path d="M79.1383 17.3988C78.8464 18.184 78.2007 21.2176 81.1904 21.6727C84.18 22.1277 92.185 21.2712 95.5373 19.2993C98.8896 17.3274 101.101 12.313 101.879 10.0378C102.658 7.76256 101.428 5.35349 99.4646 5.24642C97.9697 5.43379 93.0695 3.39055 91.0793 1.93619C89.0891 0.481826 84.8169 3.65822 82.1633 2.19494C74.7864 -1.85586 69.2935 7.03092 74.1584 7.80717C79.0233 8.58342 79.2886 8.69941 78.9171 9.9664C78.5456 11.2334 76.7854 15.766 79.1383 17.3988Z" fill="#01635D"/>
<path opacity="0.2" d="M79.8018 17.3988C81.1993 17.5148 87.9836 17.4791 93.2907 14.4633C94.8271 13.6046 96.1322 12.3802 97.0926 10.8967C98.053 9.41326 98.6395 7.71557 98.8013 5.9513C98.8013 5.9513 98.0848 10.6088 92.477 13.9191C86.8691 17.2293 79.8018 17.3988 79.8018 17.3988Z" fill="black"/>
<path d="M93.609 18.0145C93.499 19.7615 93.9419 21.4986 94.8739 22.9754C96.1299 24.9383 97.8459 24.2334 98.412 22.2705C98.9161 20.486 98.8719 17.3631 97.1736 16.0783C95.4754 14.7935 93.7859 15.9444 93.609 18.0145Z" fill="#7F3E3B"/>
<path d="M98.7923 101.796C98.7923 101.796 97.5628 155.394 96.2537 175.853C94.8119 198.213 80.067 273.598 80.067 273.598L67.3298 272.572C67.3298 272.572 76.5642 210.784 75.9539 179.779C75.4851 155.947 74.8483 101.261 74.8483 101.261L98.7923 101.796Z" fill="#01635D"/>
<path d="M82.2075 269.021C82.2606 269.021 80.7834 273.822 80.7834 273.822L66.4453 272.662L66.808 268.299L82.2075 269.021Z" fill="#263238"/>
<path opacity="0.3" d="M93.8744 124.852C95.5462 121.221 97.2003 120.453 98.2971 120.435C97.8902 135.14 97.271 155.376 96.5988 168.938C93.326 152.28 90.4337 132.32 93.8744 124.852Z" fill="black"/>
<path d="M111.954 102.091C111.954 102.091 121.056 152.057 123.453 173.417C125.956 195.679 130.715 267.995 130.715 267.995L119.419 270.672C119.419 270.672 106.488 198.837 102.746 177.093C98.6684 153.395 85.2502 101.511 85.2502 101.511L111.954 102.091Z" fill="#01635D"/>
<path d="M131.608 262.918C131.661 262.918 132.325 267.888 132.325 267.888L118.579 271.091L116.996 266.871L131.608 262.918Z" fill="#263238"/>
<path d="M152.58 66.7936L177.639 288.517L176.312 288.677L149.051 67.2129L152.58 66.7936Z" fill="#263238"/>
<path d="M144.699 75.5465L152.527 74.1546L152.66 82.0778C152.66 82.0778 146.725 84.0853 143.956 79.6419L144.699 75.5465Z" fill="#7F3E3B"/>
<path d="M156.295 75.5465L156.269 81.3283L152.66 82.0331L152.527 74.11L156.295 75.5465Z" fill="#7F3E3B"/>
<path d="M113.228 45.7187C113.811 51.5808 116.12 66.8917 113.944 100.048C113.892 100.785 113.561 101.474 113.019 101.973C112.478 102.471 111.767 102.74 111.034 102.724L76.3165 101.948C75.6163 101.937 74.9479 101.651 74.4527 101.151C73.9575 100.652 73.6743 99.9777 73.6629 99.2713C73.6629 91.0983 74.627 70.5499 70.8236 49.3948C70.6104 48.1494 70.6619 46.8725 70.9747 45.6487C71.2875 44.425 71.8545 43.2822 72.638 42.296C73.4216 41.3099 74.4039 40.5029 75.5199 39.9286C76.6359 39.3542 77.8602 39.0256 79.1116 38.9644C80.3145 38.9019 81.5882 38.8752 82.8973 38.8841C87.6295 38.8841 94.4492 38.9465 98.633 39.4016C102.311 39.7812 105.953 40.4615 109.521 41.4359C110.5 41.6806 111.38 42.2226 112.043 42.9887C112.706 43.7547 113.119 44.7077 113.228 45.7187Z" fill="#263238"/>
<path d="M79.7663 45.5581C77.5903 43.6933 78.0591 40.6954 78.8817 38.9109C79.0409 38.5897 78.5279 38.3042 78.0768 38.4558C76.6054 38.9202 75.1785 39.5175 73.8134 40.2403C73.602 40.3448 73.4143 40.4923 73.262 40.6735C73.1098 40.8547 72.9964 41.0656 72.9289 41.2932C72.1063 44.4963 72.7432 47.1017 73.6454 47.7174C76.1839 46.8697 79.7663 45.5581 79.7663 45.5581Z" fill="#01635D"/>
<path d="M102.083 47.9494C102.198 44.996 105.727 42.5423 108.328 41.4092C108.779 41.2129 108.655 40.6508 108.115 40.5169C106.326 40.0803 104.503 39.7997 102.667 39.6782C102.024 39.6496 101.386 39.8042 100.827 40.1244C96.7934 42.5691 94.6352 45.2994 94.7148 46.3701C97.7045 47.066 102.083 47.9494 102.083 47.9494Z" fill="#01635D"/>
<path d="M115.262 88.1986C115.459 89.5937 115.559 91.0008 115.563 92.41C115.563 92.9632 115.289 93.3914 114.935 93.3022C113.316 93.0881 108.991 92.2583 106.85 89.5013L105.541 76.8581C106.638 79.0887 109.867 84.6296 114.802 87.3866C114.934 87.4785 115.044 87.5992 115.124 87.7398C115.203 87.8803 115.251 88.0371 115.262 88.1986Z" fill="#01635D"/>
<path opacity="0.2" d="M114.554 61.2706L108.699 59.6378C107.956 69.2829 111.795 75.2878 114.891 78.6426C114.891 71.6742 114.793 65.9459 114.554 61.2706Z" fill="black"/>
<path d="M113.475 45.5938C113.785 46.4861 114.209 47.5746 114.59 48.5828L115.819 51.6433C116.704 53.6686 117.544 55.694 118.473 57.6481C120.245 61.4853 122.406 65.1272 124.921 68.5156C125.531 69.3097 126.168 70.0414 126.814 70.7462C127.289 71.2631 127.824 71.7214 128.406 72.1114C129.905 73.0364 131.551 73.6944 133.271 74.0565C137.39 74.8791 141.598 75.1491 145.787 74.8595H146.017C146.694 74.8303 147.359 75.0439 147.895 75.4625C148.43 75.8811 148.801 76.4776 148.942 77.146C149.084 77.8145 148.985 78.5117 148.665 79.114C148.345 79.7163 147.823 80.1847 147.193 80.436C146.011 80.9113 144.803 81.3195 143.576 81.6584C142.364 81.9885 141.143 82.283 139.905 82.4971C137.342 82.9761 134.733 83.1527 132.13 83.0236C129.236 82.9093 126.391 82.2305 123.753 81.0249C122.28 80.3329 120.913 79.4315 119.694 78.3482C118.688 77.4464 117.728 76.4934 116.819 75.493C113.456 71.6628 110.58 67.4246 108.257 62.8766C107.116 60.6728 106.045 58.4154 105.099 56.1759C104.621 55.0427 104.161 53.9006 103.737 52.7407C103.312 51.5808 102.914 50.4655 102.498 49.1717C102.013 47.7128 102.122 46.1191 102.801 44.7412C103.48 43.3632 104.674 42.3139 106.121 41.8241C107.567 41.3342 109.147 41.444 110.513 42.1292C111.879 42.8144 112.919 44.0189 113.405 45.4778L113.475 45.5938Z" fill="#263238"/>
<path d="M66.3127 44.3179C68.9132 41.2307 95.1039 40.6418 101.287 42.2033C107.469 43.7647 106.302 62.2877 107.027 74.1011C107.753 85.9144 109.486 114.431 105.019 117.027C100.553 119.623 68.409 123.273 64.7028 116.304C60.9967 109.336 62.0493 85.6735 65.5077 81.5602C64.924 73.6103 61.5451 50.0193 66.3127 44.3179Z" fill="#01635D"/>
<path opacity="0.4" d="M66.3127 44.3179C68.9132 41.2307 95.1039 40.6418 101.287 42.2033C107.469 43.7647 106.302 62.2877 107.027 74.1011C107.753 85.9144 109.486 114.431 105.019 117.027C100.553 119.623 68.409 123.273 64.7028 116.304C60.9967 109.336 62.0493 85.6735 65.5077 81.5602C64.924 73.6103 61.5451 50.0193 66.3127 44.3179Z" fill="white"/>
<path opacity="0.2" d="M107.027 74.1367C106.382 63.4298 107.266 47.3693 102.897 43.149C102.737 43.1408 102.579 43.1107 102.428 43.0598C100.314 42.2657 98.6597 42.9616 98.129 47.1374C97.5983 51.3131 98.6686 57.425 98.7128 59.2541C98.757 61.0832 98.1644 66.9631 98.3413 68.7476C98.5182 70.5321 100.606 92.0977 97.9875 100.128C95.3693 108.158 94.6263 119.311 105.064 117.081C109.486 114.466 107.753 85.9412 107.027 74.1367Z" fill="#01635D"/>
<path opacity="0.8" d="M78.1918 67.4182C71.9029 67.4182 66.3216 66.9542 65.3663 65.937C65.2952 65.8502 65.2594 65.7395 65.2659 65.6271C65.2724 65.5147 65.3208 65.4089 65.4014 65.331C65.482 65.2531 65.5888 65.2088 65.7004 65.207C65.812 65.2052 65.9201 65.2461 66.0031 65.3214C67.6572 67.1059 93.4941 67.1059 97.2798 64.5094C98.7304 63.5101 98.3324 59.4147 97.9432 55.4531C97.4302 50.0996 96.8906 44.5677 99.9599 42.8725C100.011 42.8443 100.067 42.8266 100.125 42.8204C100.183 42.8141 100.241 42.8195 100.297 42.836C100.353 42.8526 100.405 42.8801 100.451 42.917C100.496 42.9538 100.534 42.9994 100.561 43.0509C100.589 43.1025 100.607 43.159 100.613 43.2174C100.619 43.2758 100.614 43.3349 100.598 43.3912C100.581 43.4476 100.554 43.5001 100.517 43.5458C100.481 43.5915 100.436 43.6295 100.385 43.6576C97.8282 45.0674 98.3589 50.5458 98.8277 55.3639C99.27 59.9679 99.6592 63.9473 97.7752 65.2411C95.8911 66.5348 86.3737 67.4182 78.1918 67.4182Z" fill="#01635D"/>
<path d="M89.2393 62.3234C88.1602 63.8938 87.656 69.3097 87.9745 71.576C88.0002 71.7225 88.0784 71.8543 88.1942 71.9464C88.31 72.0385 88.4553 72.0845 88.6025 72.0757C89.4339 72.0311 90.3715 71.9329 90.9818 71.8705C91.1296 71.8548 91.2661 71.7838 91.3644 71.6714C91.4627 71.5591 91.5156 71.4136 91.5125 71.2637C91.5125 69.622 91.4506 64.7057 91.8752 62.7606C91.8945 62.6787 91.8962 62.5935 91.8802 62.5108C91.8641 62.4281 91.8306 62.3498 91.7819 62.2813C91.7333 62.2128 91.6707 62.1557 91.5983 62.1137C91.5258 62.0717 91.4453 62.0458 91.3622 62.0379C90.772 61.9914 90.1786 62.0124 89.5931 62.1004C89.452 62.1282 89.326 62.2076 89.2393 62.3234Z" fill="white"/>
<path opacity="0.2" d="M73.3181 83.8711C67.7014 84.0496 65.3574 85.6556 65.0567 86.7709C64.7559 87.8862 63.2876 101.27 64.3225 106.704C65.3574 112.137 90.0532 110.862 92.813 108.711C95.5727 106.561 93.8125 101.939 95.3604 97.7813C96.9083 93.6234 99.1108 85.8073 96.0149 84.692C92.9191 83.5767 85.1442 83.5053 73.3181 83.8711Z" fill="#01635D"/>
<path d="M70.0542 63.1978C68.9751 64.7682 68.4621 70.1841 68.7894 72.4415C68.8113 72.5905 68.8881 72.7256 69.0046 72.8199C69.121 72.9142 69.2684 72.9607 69.4174 72.9501C70.2488 72.8965 71.1864 72.8073 71.7967 72.7448C71.9445 72.7292 72.081 72.6582 72.1793 72.5458C72.2776 72.4334 72.3305 72.2879 72.3275 72.1381C72.3275 70.4875 72.2655 65.5801 72.6901 63.635C72.708 63.5531 72.7086 63.4684 72.6919 63.3863C72.6752 63.3042 72.6416 63.2265 72.5932 63.1584C72.5448 63.0902 72.4828 63.0331 72.4111 62.9907C72.3394 62.9483 72.2597 62.9216 72.1771 62.9123C71.587 62.8655 70.9935 62.8865 70.4081 62.9748C70.2656 62.9992 70.1384 63.0793 70.0542 63.1978Z" fill="white"/>
</svg>
