<svg width="343" height="311" viewBox="0 0 343 311" fill="none">
<path fill-rule="evenodd" clip-rule="evenodd" d="M0 20C0 8.95431 8.9543 0 20 0H323C334.046 0 343 8.9543 343 20V249C336.373 249 331 254.373 331 261C331 267.627 336.373 273 343 273V291C343 302.046 334.046 311 323 311H20C8.9543 311 0 302.046 0 291V273C6.62742 273 12 267.627 12 261C12 254.373 6.62742 249 0 249V20Z" fill="white"/>
<path d="M335 214.514H8V214.671H335V214.514Z" fill="#E6E6E6"/>
<path d="M299.409 218.57H284.204V218.727H299.409V218.57Z" fill="#E6E6E6"/>
<path d="M244.094 221.995H171.873V222.152H244.094V221.995Z" fill="#E6E6E6"/>
<path d="M140.978 222.077H133.895V222.234H140.978V222.077Z" fill="#E6E6E6"/>
<path d="M83.5763 220.185H59.0121V220.342H83.5763V220.185Z" fill="#E6E6E6"/>
<path d="M277.873 218.57H263.498V218.727H277.873V218.57Z" fill="#E6E6E6"/>
<path d="M53.6753 220.185H41.7791V220.342H53.6753V220.185Z" fill="#E6E6E6"/>
<path d="M162.998 186.382H36.7171C35.7279 186.38 34.7797 186 34.0808 185.325C33.3819 184.65 32.9893 183.734 32.9893 182.78V11.5702C32.9979 10.6215 33.3943 9.71442 34.0923 9.04596C34.7902 8.37749 35.7335 8.00163 36.7171 8H162.998C163.988 8 164.938 8.37946 165.639 9.05491C166.339 9.73036 166.732 10.6465 166.732 11.6017V182.78C166.732 183.736 166.339 184.652 165.639 185.327C164.938 186.003 163.988 186.382 162.998 186.382V186.382ZM36.7171 8.12615C35.7712 8.12783 34.8646 8.49141 34.1964 9.13711C33.5281 9.7828 33.1528 10.6578 33.1528 11.5702V182.78C33.1528 183.693 33.5281 184.568 34.1964 185.213C34.8646 185.859 35.7712 186.223 36.7171 186.224H162.998C163.945 186.223 164.852 185.859 165.521 185.214C166.19 184.568 166.567 183.693 166.569 182.78V11.5702C166.567 10.6573 166.19 9.78224 165.521 9.13672C164.852 8.49121 163.945 8.12782 162.998 8.12615H36.7171Z" fill="#E6E6E6"/>
<path d="M304.465 186.382H178.177C177.188 186.38 176.239 186 175.539 185.325C174.839 184.65 174.445 183.735 174.443 182.78V11.5702C174.453 10.6209 174.851 9.71385 175.55 9.04556C176.249 8.37727 177.193 8.00161 178.177 8H304.465C305.447 8.00328 306.389 8.37988 307.085 9.04817C307.782 9.71646 308.177 10.6226 308.186 11.5702V182.78C308.186 183.733 307.794 184.648 307.097 185.323C306.399 185.998 305.453 186.379 304.465 186.382V186.382ZM178.177 8.12615C177.231 8.12782 176.324 8.49121 175.654 9.13672C174.985 9.78224 174.608 10.6573 174.607 11.5702V182.78C174.608 183.693 174.985 184.568 175.654 185.214C176.324 185.859 177.231 186.223 178.177 186.224H304.465C305.411 186.223 306.319 185.859 306.988 185.214C307.657 184.568 308.034 183.693 308.036 182.78V11.5702C308.034 10.6573 307.657 9.78224 306.988 9.13672C306.319 8.49121 305.411 8.12782 304.465 8.12615H178.177Z" fill="#E6E6E6"/>
<path d="M219.615 102.691H269.038V19.7009H219.615V102.691Z" fill="#E6E6E6"/>
<path d="M216.946 102.691H266.369V19.7009H216.946V102.691Z" fill="#F5F5F5"/>
<path d="M261.569 98.7996V23.5991L221.734 23.5991V98.7996H261.569Z" fill="#FAFAFA"/>
<path d="M223.755 98.7996V23.5991H221.734V98.7996H223.755Z" fill="#E6E6E6"/>
<path d="M218.928 80.646H264.388V75.4169H218.928V80.646Z" fill="#F5F5F5"/>
<path d="M135.622 102.691H185.044V19.7009H135.622V102.691Z" fill="#E6E6E6"/>
<path d="M132.953 102.691H182.376V19.7009H132.953V102.691Z" fill="#F5F5F5"/>
<path d="M177.582 98.7996V23.5991L137.747 23.5991V98.7996H177.582Z" fill="#FAFAFA"/>
<path d="M139.761 98.7933V23.5928H137.741V98.7933H139.761Z" fill="#E6E6E6"/>
<path d="M134.935 80.646H180.394V75.4169H134.935V80.646Z" fill="#F5F5F5"/>
<path d="M51.6349 102.691H101.058L101.058 19.7009H51.6349L51.6349 102.691Z" fill="#E6E6E6"/>
<path d="M48.9666 102.691H98.3894L98.3894 19.7009H48.9666L48.9666 102.691Z" fill="#F5F5F5"/>
<path d="M93.589 98.7933V23.5928L53.7538 23.5928L53.7538 98.7933H93.589Z" fill="#FAFAFA"/>
<path d="M55.7747 98.7996L55.7747 23.5991H53.7538L53.7538 98.7996H55.7747Z" fill="#E6E6E6"/>
<path d="M50.9482 80.646H96.4077V75.4169H50.9482V80.646Z" fill="#F5F5F5"/>
<path d="M99.5601 154.036C90.6461 155.222 85.1328 136.538 104.792 120.719C103.765 139.03 115.112 151.967 99.5601 154.036Z" fill="#E6E6E6"/>
<path d="M93.0201 178.504C80.097 169.768 88.9391 139.245 128.931 141.459C111.639 163.927 115.557 193.731 93.0201 178.504Z" fill="#E0E0E0"/>
<path d="M97.5979 178.308C106.185 169.389 93.9617 146.94 63.0602 155.14C80.4958 169.9 82.6148 193.85 97.5979 178.308Z" fill="#E0E0E0"/>
<path d="M86.5715 165.289C83.6023 161.801 80.0969 157.878 80.9471 153.727C81.7973 149.577 83.9228 146.492 82.2551 142.077C80.2277 136.778 80.6201 130.458 84.047 130.988C87.474 131.518 91.313 135.403 91.241 140.519C91.1822 145.489 94.511 147.079 97.7156 149.722C100.92 152.365 102.052 156.231 102.621 160.016C103.615 166.027 111.692 164.892 113.837 170.108C116.054 175.154 111.633 181.872 104.563 183.417C97.4933 184.963 92.4575 185.941 87.6375 180.604C82.739 174.984 90.9663 170.285 86.5715 165.289Z" fill="#F5F5F5"/>
<path d="M110.894 214.514H84.3349L82.3337 179.62H112.895L110.894 214.514Z" fill="#EBEBEB"/>
<path d="M114.877 178.907H80.3521V182.667H114.877V178.907Z" fill="#EBEBEB"/>
<path d="M267.468 209.777H285.335V135.05H267.468V209.777Z" fill="#EBEBEB"/>
<path d="M127.453 214.514L281.902 214.514V209.777L127.453 209.777V214.514Z" fill="#EBEBEB"/>
<path d="M267.468 135.05H124.026V209.777H267.468V135.05Z" fill="#F5F5F5"/>
<path d="M260.444 144.247H131.05V168.758H260.444V144.247Z" fill="#EBEBEB"/>
<path d="M260.444 176.069H131.05V200.581H260.444V176.069Z" fill="#EBEBEB"/>
<path d="M155.497 158.18H235.997C236.458 158.179 236.9 158.001 237.226 157.687C237.551 157.373 237.735 156.947 237.737 156.502V156.502C237.737 156.057 237.554 155.63 237.228 155.314C236.902 154.998 236.459 154.82 235.997 154.818H155.497C155.035 154.82 154.592 154.998 154.266 155.314C153.94 155.63 153.757 156.057 153.757 156.502V156.502C153.759 156.947 153.942 157.373 154.268 157.687C154.594 158.001 155.036 158.179 155.497 158.18V158.18Z" fill="#F5F5F5"/>
<path d="M155.497 190.003H235.997C236.458 190.001 236.9 189.824 237.226 189.509C237.551 189.195 237.735 188.769 237.737 188.325V188.325C237.735 187.88 237.551 187.455 237.226 187.14C236.9 186.826 236.458 186.649 235.997 186.647H155.497C155.036 186.649 154.594 186.826 154.268 187.14C153.942 187.455 153.759 187.88 153.757 188.325V188.325C153.759 188.769 153.942 189.195 154.268 189.509C154.594 189.824 155.036 190.001 155.497 190.003V190.003Z" fill="#F5F5F5"/>
<path d="M227.868 124.144C227.868 124.144 248.338 142.853 260.49 124.068C260.49 124.068 257.259 118.032 253.852 117.515C250.444 116.997 250.307 122.737 247.312 120.965C244.316 119.192 240.817 113.131 238.908 116.367C236.998 119.602 234.376 114.991 231.518 114.727C228.66 114.462 227.868 124.144 227.868 124.144Z" fill="#F5F5F5"/>
<path d="M261.791 122.851C261.791 122.851 261.347 135.05 244.094 135.05C226.842 135.05 226.397 122.851 226.397 122.851H261.791Z" fill="#EBEBEB"/>
<path d="M174.515 116.493H184.449V135.05H155.281C155.281 130.129 157.307 125.41 160.914 121.93C164.521 118.45 169.413 116.494 174.515 116.493V116.493Z" fill="#F5F5F5"/>
<path d="M193.612 116.493H184.449V135.05H193.612V116.493Z" fill="#E6E6E6"/>
<path d="M171.5 243C241.532 243 298.304 239.803 298.304 235.86C298.304 231.916 241.532 228.719 171.5 228.719C101.468 228.719 44.696 231.916 44.696 235.86C44.696 239.803 101.468 243 171.5 243Z" fill="#F5F5F5"/>
<path d="M150.572 98.0488L150.14 98.6796C150.01 98.8625 149.872 99.0265 149.741 99.1968C149.473 99.5374 149.192 99.8276 148.911 100.174C148.342 100.805 147.766 101.436 147.152 101.991C145.922 103.13 144.611 104.184 143.228 105.145C141.846 106.105 140.392 106.966 138.879 107.719C138.113 108.078 137.355 108.45 136.563 108.753L135.38 109.207L135.046 109.327C134.863 109.384 134.693 109.447 134.49 109.491C134.095 109.586 133.688 109.631 133.28 109.623C132.503 109.618 131.739 109.435 131.05 109.087C130.496 108.808 129.988 108.454 129.539 108.034C128.829 107.358 128.216 106.595 127.715 105.763C126.858 104.323 126.159 102.801 125.628 101.222C124.6 98.244 123.864 95.1797 123.431 92.0691L126.165 91.4888C126.662 92.8702 127.172 94.2957 127.734 95.6708C128.297 97.0459 128.859 98.4146 129.513 99.714C130.109 100.968 130.818 102.169 131.632 103.303C131.956 103.773 132.345 104.198 132.79 104.565C132.917 104.666 133.061 104.747 133.215 104.804C133.306 104.804 133.3 104.804 133.254 104.804H133.208L133.424 104.703L134.399 104.249C135.053 103.946 135.674 103.618 136.302 103.253C137.54 102.537 138.737 101.756 139.886 100.912C141.019 100.053 142.096 99.1262 143.11 98.1371C143.62 97.6577 144.104 97.1468 144.568 96.6295C144.797 96.3709 145.026 96.1123 145.222 95.8537L145.536 95.4689L145.791 95.1409L150.572 98.0488Z" fill="#B97964"/>
<path d="M142.652 97.7773L145.968 105.448L143.568 106.892L139.84 99.9346L142.652 97.7773Z" fill="#263238"/>
<path d="M152.037 91.3184C146.628 91.249 141.135 97.8532 140.997 98.0172L145.275 107.718C145.275 107.718 154.79 100.269 155.268 97.3549C155.765 94.3209 155.464 91.3626 152.037 91.3184Z" fill="#01635D"/>
<path opacity="0.3" d="M152.037 91.3184C146.628 91.249 141.135 97.8532 140.997 98.0172L145.275 107.718C145.275 107.718 154.79 100.269 155.268 97.3549C155.765 94.3209 155.464 91.3626 152.037 91.3184Z" fill="black"/>
<path d="M125.72 90.4856L121.979 87.6787L121.22 93.2043C121.22 93.2043 124.857 94.5793 126.792 93.3872L126.74 92.3779C126.721 92.0104 126.619 91.6513 126.443 91.3248C126.267 90.9983 126.021 90.7121 125.72 90.4856V90.4856Z" fill="#B97964"/>
<path d="M116.996 87.4014L117.231 91.596L121.24 93.2045L121.999 87.6789L116.996 87.4014Z" fill="#B97964"/>
<path d="M198.968 90.0377L204.749 88.6437L200.708 84.6636C200.708 84.6636 196.96 86.1396 197.876 89.2934L198.968 90.0377Z" fill="#B97964"/>
<path d="M207.62 87.6534L207.143 83.2759L200.675 84.6636L204.717 88.6437L207.62 87.6534Z" fill="#B97964"/>
<path d="M180.113 230.327L174.731 230.825L170.238 218.576L175.62 218.071L180.113 230.327Z" fill="#B97964"/>
<path d="M237.731 204.574L233.767 208.282L223.578 200.612L227.548 196.903L237.731 204.574Z" fill="#B97964"/>
<path d="M232.623 207.563L235.67 202.347C235.722 202.257 235.805 202.188 235.905 202.154C236.005 202.119 236.114 202.12 236.213 202.157L240.844 203.886C240.958 203.934 241.061 204.004 241.145 204.093C241.229 204.182 241.293 204.287 241.333 204.401C241.372 204.515 241.387 204.636 241.374 204.756C241.362 204.876 241.324 204.992 241.262 205.097C240.17 206.901 239.549 207.714 238.208 210.01C237.384 211.423 235.775 214.659 234.637 216.608C233.499 218.557 231.439 217.573 231.733 216.665C233.041 212.584 232.819 210.307 232.466 208.503C232.401 208.182 232.457 207.849 232.623 207.563V207.563Z" fill="#263238"/>
<path d="M173.658 229.236H180.198C180.316 229.239 180.429 229.277 180.522 229.347C180.615 229.416 180.683 229.512 180.715 229.621L182.141 234.623C182.177 234.741 182.183 234.866 182.16 234.987C182.137 235.108 182.084 235.223 182.006 235.32C181.928 235.418 181.828 235.497 181.712 235.55C181.597 235.603 181.47 235.629 181.343 235.626C179.047 235.588 177.929 235.456 175.045 235.456C173.272 235.456 167.498 235.639 165.045 235.639C162.593 235.639 162.148 233.299 163.142 233.116C167.589 232.163 171.343 230.857 172.71 229.608C172.963 229.369 173.304 229.235 173.658 229.236V229.236Z" fill="#263238"/>
<path d="M170.244 218.576L172.553 224.896H178.125L175.627 218.071L170.244 218.576Z" fill="#A76755"/>
<path d="M227.554 196.903L223.585 200.619L228.836 204.567L232.806 200.858L227.554 196.903Z" fill="#A76755"/>
<path d="M146.772 93.0022C146.772 93.0022 144.549 94.6359 159.532 122.838L180.891 116.183C177.726 107.914 175.986 102.748 174.351 84.2471C171.183 84.5851 168.045 85.1438 164.96 85.9186C161.662 86.7192 158.422 87.7285 155.261 88.94C151.18 90.6305 146.772 93.0022 146.772 93.0022Z" fill="#01635D"/>
<path opacity="0.3" d="M146.772 93.0022C146.772 93.0022 144.549 94.6359 159.532 122.838L180.891 116.183C177.726 107.914 175.986 102.748 174.351 84.2471C171.183 84.5851 168.045 85.1438 164.96 85.9186C161.662 86.7192 158.422 87.7285 155.261 88.94C151.18 90.6305 146.772 93.0022 146.772 93.0022Z" fill="black"/>
<path d="M160.441 75.6816C160.833 78.886 162.069 84.5881 164.927 85.9191C164.927 85.9191 165.091 89.2369 159.296 91.0409C152.92 93.0278 155.228 88.9405 155.228 88.9405C158.44 87.0481 157.511 84.5881 156.124 82.4435L160.441 75.6816Z" fill="#B97964"/>
<path d="M149.722 91.4763C151.298 90.6878 153.306 89.729 155.229 88.9532C158.393 87.7194 161.645 86.7055 164.96 85.9192C166.824 85.4272 168.708 85.0613 170.297 84.8027C170.447 85.2317 169.996 86.3418 168.891 87.8746C165.392 90.6752 157.93 94.3147 152.429 94.1823C150.023 93.3181 149.421 92.4035 149.722 91.4763Z" fill="#B97964"/>
<path d="M168.884 87.8745C166.508 90.9459 163.669 93.6568 160.46 95.9168C157.728 95.596 155.036 95.015 152.423 94.1822C157.897 94.3147 165.359 90.6751 168.884 87.8745Z" fill="#263238"/>
<path d="M158.682 78.438L156.125 82.4308C156.458 82.9284 156.745 83.4541 156.981 84.0014C158.25 83.4022 159.865 81.6297 159.558 80.2168C159.376 79.5791 159.079 78.9771 158.682 78.438V78.438Z" fill="#A76755"/>
<path d="M161.736 69.7651C162.063 75.0447 162.324 77.2713 159.918 80.2864C156.301 84.8153 149.506 84.071 147.544 78.9744C145.785 74.4013 145.543 66.5356 150.598 63.8359C151.709 63.2338 152.961 62.9154 154.235 62.9107C155.509 62.906 156.763 63.2153 157.879 63.8091C158.994 64.403 159.934 65.2618 160.609 66.3041C161.284 67.3464 161.672 68.5377 161.736 69.7651V69.7651Z" fill="#B97964"/>
<path d="M172.547 60.3029C173.784 55.058 170.378 49.8395 164.94 48.6469C159.502 47.4543 154.091 50.7394 152.855 55.9843C151.618 61.2291 155.024 66.4477 160.462 67.6403C165.9 68.8329 171.311 65.5478 172.547 60.3029Z" fill="#263238"/>
<path d="M160.179 62.3724C162.259 63.697 163.292 65.7281 162.488 66.9076C161.684 68.0872 159.342 67.9736 157.256 66.649C155.17 65.3244 154.143 63.2933 154.947 62.1138C155.752 60.9342 158.093 61.0478 160.179 62.3724Z" fill="#01635D"/>
<path opacity="0.6" d="M160.179 62.3724C162.259 63.697 163.292 65.7281 162.488 66.9076C161.684 68.0872 159.342 67.9736 157.256 66.649C155.17 65.3244 154.143 63.2933 154.947 62.1138C155.752 60.9342 158.093 61.0478 160.179 62.3724Z" fill="#FAFAFA"/>
<path d="M159.074 73.3665C159.617 72.1554 157.727 68.56 158.132 67.2165C157.047 66.2388 146.04 69.6954 146.929 67.1723C147.779 64.7501 150.461 61.5395 156.582 62.883C163.122 64.3212 163.691 69.7774 162.959 71.5183C162.226 73.2592 161.186 75.0696 161.186 75.0696L159.074 73.3665Z" fill="#263238"/>
<path d="M163.175 74.3951C163.188 75.4168 162.784 76.4026 162.05 77.139C161.062 78.104 159.872 77.4102 159.565 76.1613C159.283 75.0385 159.466 73.1777 160.735 72.6857C161.015 72.5807 161.317 72.545 161.615 72.5821C161.913 72.6192 162.196 72.7278 162.439 72.8979C162.682 73.0681 162.876 73.2944 163.005 73.556C163.133 73.8175 163.192 74.1061 163.175 74.3951V74.3951Z" fill="#B97964"/>
<path d="M159.532 122.838C159.532 122.838 149.63 169.414 155.15 184.773C160.892 200.751 170.238 223.055 170.238 223.055L178.969 222.575C178.969 222.575 171.775 194.392 170.002 181.664C167.576 164.115 177.968 117.123 177.968 117.123L159.532 122.838Z" fill="#01635D"/>
<path opacity="0.6" d="M159.532 122.838C159.532 122.838 149.63 169.414 155.15 184.773C160.892 200.751 170.238 223.055 170.238 223.055L178.969 222.575C178.969 222.575 171.775 194.392 170.002 181.664C167.576 164.115 177.968 117.123 177.968 117.123L159.532 122.838Z" fill="#FAFAFA"/>
<path d="M179.655 222.777L169.551 223.338L167.929 219.503L179.073 218.387L179.655 222.777Z" fill="#01635D"/>
<path opacity="0.2" d="M179.655 222.777L169.551 223.338L167.929 219.503L179.073 218.387L179.655 222.777Z" fill="black"/>
<path d="M170.002 126.421C168.485 131.833 169.754 139.945 172.618 145.634C173.318 141.219 174.064 136.942 174.77 133.113C173.298 130.37 171.677 127.935 170.002 126.421Z" fill="#01635D"/>
<path opacity="0.4" d="M170.002 126.421C168.485 131.833 169.754 139.945 172.618 145.634C173.318 141.219 174.064 136.942 174.77 133.113C173.298 130.37 171.677 127.935 170.002 126.421Z" fill="#FAFAFA"/>
<path d="M165.169 121.078C165.169 121.078 179.871 154.97 189.609 173.577C197.457 188.628 226.58 204.378 226.58 204.378L231.812 199.029C231.812 199.029 210.047 180.39 204.619 170.184C187.248 137.516 190.819 123.248 180.905 116.184L165.169 121.078Z" fill="#01635D"/>
<path opacity="0.6" d="M165.169 121.078C165.169 121.078 179.871 154.97 189.609 173.577C197.457 188.628 226.58 204.378 226.58 204.378L231.812 199.029C231.812 199.029 210.047 180.39 204.619 170.184C187.248 137.516 190.819 123.248 180.905 116.184L165.169 121.078Z" fill="#FAFAFA"/>
<path d="M232.786 198.265L225.592 205.639L221.04 203.33L229.327 195.181L232.786 198.265Z" fill="#01635D"/>
<path opacity="0.2" d="M232.786 198.265L225.592 205.639L221.04 203.33L229.327 195.181L232.786 198.265Z" fill="black"/>
<path d="M180.806 114.878L182.383 116.423C182.507 116.543 182.383 116.745 182.134 116.82L159.734 123.759C159.538 123.822 159.349 123.759 159.296 123.664L158.492 121.885C158.433 121.759 158.564 121.602 158.773 121.532L180.401 114.802C180.47 114.78 180.543 114.775 180.614 114.788C180.685 114.801 180.751 114.832 180.806 114.878V114.878Z" fill="#263238"/>
<path d="M178.694 118.113L179.269 117.937C179.387 117.899 179.453 117.811 179.426 117.748L178.354 115.433C178.354 115.37 178.197 115.344 178.086 115.376L177.504 115.559C177.392 115.559 177.321 115.679 177.353 115.748L178.426 118.057C178.445 118.126 178.563 118.151 178.694 118.113Z" fill="#01635D"/>
<path opacity="0.6" d="M178.694 118.113L179.269 117.937C179.387 117.899 179.453 117.811 179.426 117.748L178.354 115.433C178.354 115.37 178.197 115.344 178.086 115.376L177.504 115.559C177.392 115.559 177.321 115.679 177.353 115.748L178.426 118.057C178.445 118.126 178.563 118.151 178.694 118.113Z" fill="#FAFAFA"/>
<path d="M161.428 123.488L162.01 123.305C162.122 123.267 162.194 123.185 162.161 123.115L161.088 120.807C161.056 120.737 160.938 120.712 160.82 120.75L160.238 120.927C160.127 120.964 160.055 121.046 160.088 121.116L161.16 123.424C161.193 123.494 161.311 123.519 161.428 123.488Z" fill="#01635D"/>
<path opacity="0.6" d="M161.428 123.488L162.01 123.305C162.122 123.267 162.194 123.185 162.161 123.115L161.088 120.807C161.056 120.737 160.938 120.712 160.82 120.75L160.238 120.927C160.127 120.964 160.055 121.046 160.088 121.116L161.16 123.424C161.193 123.494 161.311 123.519 161.428 123.488Z" fill="#FAFAFA"/>
<path d="M170.055 120.801L170.63 120.618C170.748 120.618 170.82 120.498 170.787 120.428L169.715 118.12C169.682 118.05 169.558 118.025 169.446 118.063L168.864 118.246C168.753 118.277 168.681 118.366 168.714 118.429L169.787 120.744C169.819 120.78 169.862 120.805 169.911 120.815C169.959 120.825 170.01 120.82 170.055 120.801V120.801Z" fill="#01635D"/>
<path opacity="0.6" d="M170.055 120.801L170.63 120.618C170.748 120.618 170.82 120.498 170.787 120.428L169.715 118.12C169.682 118.05 169.558 118.025 169.446 118.063L168.864 118.246C168.753 118.277 168.681 118.366 168.714 118.429L169.787 120.744C169.819 120.78 169.862 120.805 169.911 120.815C169.959 120.825 170.01 120.82 170.055 120.801V120.801Z" fill="#FAFAFA"/>
<path d="M153.678 72.1998C153.731 72.6224 153.541 73.0009 153.253 73.0324C152.966 73.064 152.684 72.7486 152.632 72.3197C152.58 71.8907 152.769 71.5186 153.057 71.487C153.345 71.4555 153.626 71.7709 153.678 72.1998Z" fill="#263238"/>
<path d="M148.675 72.7863C148.734 73.2152 148.538 73.5874 148.25 73.6189C147.963 73.6504 147.681 73.335 147.629 72.9124C147.577 72.4898 147.766 72.1113 148.054 72.0735C148.342 72.0357 148.61 72.3384 148.675 72.7863Z" fill="#263238"/>
<path d="M148.185 72.0863L147.086 71.916C147.086 71.916 147.734 72.654 148.185 72.0863Z" fill="#263238"/>
<path d="M150.095 73.3667C149.821 74.3856 149.405 75.3638 148.859 76.2746C149.105 76.4012 149.376 76.4758 149.655 76.4932C149.934 76.5106 150.213 76.4705 150.474 76.3755L150.095 73.3667Z" fill="#A24E3F"/>
<path d="M152.227 77.8702C152.195 77.8705 152.164 77.8598 152.14 77.8401C152.116 77.8204 152.101 77.793 152.096 77.7629C152.094 77.729 152.104 77.6956 152.126 77.6688C152.148 77.6421 152.179 77.6239 152.214 77.6178C152.765 77.5649 153.295 77.3877 153.762 77.1007C154.229 76.8136 154.619 76.4246 154.901 75.9652C154.909 75.9497 154.919 75.9357 154.932 75.9241C154.944 75.9124 154.959 75.9034 154.976 75.8975C154.992 75.8916 155.01 75.889 155.027 75.8898C155.045 75.8906 155.062 75.8948 155.078 75.9021C155.094 75.9095 155.107 75.9198 155.119 75.9324C155.13 75.9449 155.139 75.9596 155.144 75.9754C155.15 75.9913 155.152 76.008 155.151 76.0247C155.149 76.0413 155.145 76.0576 155.137 76.0724C154.84 76.5736 154.422 76.9985 153.919 77.3114C153.416 77.6243 152.842 77.8159 152.246 77.8702H152.227Z" fill="#263238"/>
<path d="M154.3 70.686C154.237 70.6853 154.177 70.6629 154.13 70.6229C153.888 70.4072 153.596 70.2505 153.279 70.166C152.961 70.0815 152.627 70.0716 152.305 70.1372C152.272 70.1468 152.237 70.1498 152.202 70.146C152.167 70.1423 152.134 70.1319 152.103 70.1154C152.073 70.099 152.046 70.0768 152.024 70.0502C152.003 70.0236 151.987 69.9931 151.978 69.9606C151.968 69.9287 151.965 69.8952 151.969 69.8622C151.973 69.8291 151.984 69.7972 152.001 69.7683C152.018 69.7394 152.041 69.7141 152.069 69.6941C152.096 69.674 152.128 69.6595 152.161 69.6515C152.567 69.5656 152.988 69.574 153.389 69.676C153.79 69.778 154.161 69.9707 154.47 70.2381C154.495 70.2616 154.514 70.2896 154.528 70.3205C154.541 70.3513 154.548 70.3844 154.548 70.4179C154.548 70.4514 154.541 70.4845 154.528 70.5153C154.514 70.5462 154.495 70.5742 154.47 70.5977C154.427 70.6465 154.366 70.6779 154.3 70.686V70.686Z" fill="#263238"/>
<path d="M146.092 70.8313C146.053 70.8401 146.013 70.8401 145.974 70.8313C145.914 70.7992 145.869 70.7459 145.848 70.6825C145.827 70.619 145.833 70.5503 145.863 70.4907C146.042 70.13 146.307 69.8155 146.637 69.5731C146.967 69.3308 147.352 69.1674 147.76 69.0967C147.828 69.0896 147.897 69.1087 147.951 69.1501C148.005 69.1914 148.039 69.2515 148.048 69.3174C148.052 69.3506 148.05 69.3843 148.041 69.4166C148.032 69.4489 148.016 69.4792 147.995 69.5056C147.973 69.532 147.947 69.5541 147.917 69.5705C147.886 69.5869 147.853 69.5974 147.819 69.6013C147.496 69.6593 147.192 69.7909 146.933 69.9851C146.673 70.1793 146.466 70.4305 146.327 70.7177C146.302 70.755 146.267 70.7852 146.226 70.8051C146.184 70.8251 146.138 70.8341 146.092 70.8313Z" fill="#263238"/>
<path d="M178.694 89.1737L178.943 89.4764L179.25 89.836C179.459 90.0757 179.675 90.3217 179.904 90.5614C180.355 91.0471 180.826 91.5264 181.33 91.9806C182.316 92.9131 183.357 93.7893 184.449 94.6046C185.558 95.4147 186.708 96.1704 187.896 96.8691C188.491 97.216 189.099 97.544 189.714 97.8657L190.649 98.3262L191.1 98.5469C191.212 98.5974 191.323 98.6479 191.427 98.6857C191.761 98.8199 192.119 98.8906 192.48 98.8939C192.813 98.8755 193.132 98.7612 193.396 98.5659C194.272 97.8652 194.965 96.9748 195.417 95.9671C196.024 94.752 196.512 93.485 196.875 92.1824C197.28 90.854 197.614 89.5067 197.876 88.1455L200.668 88.3158C200.756 91.421 200.296 94.518 199.308 97.4746C199.028 98.2806 198.667 99.0581 198.229 99.7959C197.743 100.637 197.115 101.393 196.372 102.035C195.486 102.794 194.403 103.306 193.239 103.517C192.107 103.708 190.945 103.63 189.851 103.29C189.596 103.221 189.361 103.133 189.119 103.044L188.55 102.817L187.438 102.369C186.699 102.048 185.973 101.739 185.26 101.348C183.829 100.619 182.451 99.7996 181.133 98.8939C179.814 97.9765 178.558 96.9778 177.373 95.904C176.784 95.3615 176.215 94.7875 175.659 94.1946C175.385 93.8918 175.11 93.5638 174.849 93.2737L174.45 92.7754C174.312 92.5987 174.208 92.46 174.024 92.2077L178.694 89.1737Z" fill="#B97964"/>
<path d="M183.331 92.4977L179.237 99.1271L177.242 97.3105L181.022 90.6685L183.331 92.4977Z" fill="#263238"/>
<path d="M174.378 84.2472C176.732 84.2094 182.448 90.7189 182.448 90.7189L177.478 99.064C177.478 99.064 171.147 93.6836 171.153 90.7379C171.16 87.666 171.696 84.3229 174.378 84.2472Z" fill="#01635D"/>
<path opacity="0.3" d="M174.378 84.2472C176.732 84.2094 182.448 90.7189 182.448 90.7189L177.478 99.064C177.478 99.064 171.147 93.6836 171.153 90.7379C171.16 87.666 171.696 84.3229 174.378 84.2472Z" fill="black"/>
<path d="M231.55 210.395C231.368 210.388 231.194 210.324 231.053 210.212C230.987 210.17 230.935 210.111 230.902 210.042C230.868 209.973 230.855 209.897 230.863 209.821C230.922 209.14 232.695 208.244 232.891 208.143C232.912 208.13 232.937 208.123 232.963 208.123C232.988 208.123 233.013 208.13 233.035 208.143C233.054 208.159 233.069 208.18 233.077 208.203C233.085 208.227 233.086 208.252 233.081 208.276C232.878 208.957 232.427 210.13 231.773 210.338C231.702 210.37 231.627 210.389 231.55 210.395V210.395ZM232.734 208.503C232.041 208.881 231.158 209.474 231.125 209.828C231.12 209.862 231.126 209.896 231.142 209.927C231.159 209.957 231.185 209.982 231.217 209.998C231.278 210.055 231.354 210.095 231.437 210.114C231.52 210.133 231.606 210.13 231.688 210.105C232.047 210.004 232.427 209.411 232.734 208.516V208.503Z" fill="#01635D"/>
<path d="M231.308 208.743C231.021 208.766 230.733 208.697 230.491 208.547C230.412 208.482 230.359 208.392 230.34 208.294C230.321 208.195 230.337 208.093 230.386 208.005C230.421 207.913 230.478 207.831 230.552 207.764C230.626 207.697 230.714 207.648 230.811 207.62C231.57 207.374 232.956 208.112 233.015 208.143C233.037 208.155 233.054 208.171 233.067 208.191C233.08 208.211 233.087 208.234 233.087 208.257C233.086 208.279 233.08 208.3 233.068 208.318C233.057 208.337 233.041 208.353 233.022 208.364C232.488 208.614 231.902 208.743 231.308 208.743ZM231.171 207.822C231.078 207.821 230.985 207.833 230.896 207.86C230.836 207.878 230.78 207.909 230.734 207.95C230.688 207.992 230.652 208.043 230.628 208.099C230.563 208.251 230.628 208.314 230.628 208.358C230.922 208.598 232.008 208.497 232.629 208.251C232.176 208.019 231.681 207.873 231.171 207.822V207.822Z" fill="#01635D"/>
<path d="M170.754 230.283C170.297 230.32 169.839 230.216 169.446 229.987C169.344 229.914 169.26 229.819 169.202 229.709C169.144 229.6 169.114 229.479 169.113 229.356C169.105 229.289 169.116 229.222 169.145 229.161C169.174 229.1 169.219 229.047 169.276 229.009C169.872 228.618 172.108 229.602 172.546 229.797C172.572 229.809 172.592 229.828 172.605 229.852C172.618 229.876 172.623 229.903 172.618 229.93C172.616 229.956 172.605 229.98 172.588 229.999C172.57 230.018 172.546 230.032 172.52 230.037C171.942 230.176 171.35 230.259 170.754 230.283V230.283ZM169.708 229.192C169.62 229.184 169.531 229.202 169.453 229.242C169.433 229.255 169.418 229.274 169.409 229.295C169.399 229.316 169.397 229.339 169.401 229.362C169.403 229.445 169.425 229.526 169.464 229.599C169.504 229.672 169.561 229.736 169.63 229.785C170.146 230.163 171.376 230.018 172.095 229.892C171.341 229.544 170.536 229.308 169.708 229.192V229.192Z" fill="#01635D"/>
<path d="M172.52 230.063H172.468C171.729 229.772 170.238 228.618 170.323 228.019C170.323 227.886 170.427 227.722 170.767 227.685C172.075 227.521 172.625 229.823 172.644 229.918C172.65 229.94 172.649 229.964 172.642 229.986C172.635 230.008 172.623 230.028 172.605 230.044C172.58 230.058 172.55 230.065 172.52 230.063V230.063ZM170.885 227.924H170.8C170.663 227.924 170.584 227.981 170.578 228.044C170.532 228.385 171.559 229.306 172.317 229.697C172.154 229.154 171.67 227.924 170.885 227.924Z" fill="#01635D"/>
<path d="M153.188 71.4931L152.089 71.3228C152.089 71.3228 152.737 72.0608 153.188 71.4931Z" fill="#263238"/>
<path d="M112.274 27.415C111.116 28.8154 104.74 30.4617 99.6712 30.0075C97.925 41.0586 104.027 53.7813 104.027 53.7813C104.027 53.7813 117.27 52.2611 117.597 47.0005C117.924 41.7398 112.274 27.415 112.274 27.415Z" fill="#01635D"/>
<path opacity="0.4" d="M112.274 27.415C111.116 28.8154 104.74 30.4617 99.6712 30.0075C97.925 41.0586 104.027 53.7813 104.027 53.7813C104.027 53.7813 117.27 52.2611 117.597 47.0005C117.924 41.7398 112.274 27.415 112.274 27.415Z" fill="#FAFAFA"/>
<path d="M212.525 19.0068C213.709 20.6153 219.719 22.2112 224.369 21.3785C226.861 34.4607 222.244 50.0029 222.244 50.0029C222.244 50.0029 209.903 48.9432 209.164 42.6923C208.425 36.4413 212.525 19.0068 212.525 19.0068Z" fill="#01635D"/>
<path opacity="0.4" d="M212.525 19.0068C213.709 20.6153 219.719 22.2112 224.369 21.3785C226.861 34.4607 222.244 50.0029 222.244 50.0029C222.244 50.0029 209.903 48.9432 209.164 42.6923C208.425 36.4413 212.525 19.0068 212.525 19.0068Z" fill="#FAFAFA"/>
<path d="M125.72 132.306C125.626 132.319 125.53 132.315 125.438 132.292C125.346 132.269 125.259 132.229 125.183 132.174C125.107 132.119 125.043 132.05 124.995 131.971C124.947 131.892 124.915 131.804 124.903 131.713L109.37 25.4472C109.357 25.3534 109.364 25.258 109.39 25.1668C109.417 25.0756 109.462 24.9904 109.523 24.9163C109.584 24.8421 109.659 24.7806 109.746 24.7353C109.832 24.6899 109.926 24.6618 110.024 24.6524V24.6524C110.119 24.64 110.215 24.6456 110.307 24.669C110.399 24.6924 110.486 24.7331 110.562 24.7887C110.637 24.8444 110.701 24.9139 110.749 24.9933C110.797 25.0728 110.829 25.1605 110.842 25.2517L126.374 131.511C126.387 131.605 126.38 131.701 126.354 131.792C126.327 131.883 126.283 131.968 126.222 132.042C126.161 132.116 126.085 132.178 125.999 132.223C125.912 132.269 125.818 132.297 125.72 132.306V132.306Z" fill="#01635D"/>
<path opacity="0.2" d="M125.72 132.306C125.626 132.319 125.53 132.315 125.438 132.292C125.346 132.269 125.259 132.229 125.183 132.174C125.107 132.119 125.043 132.05 124.995 131.971C124.947 131.892 124.915 131.804 124.903 131.713L109.37 25.4472C109.357 25.3534 109.364 25.258 109.39 25.1668C109.417 25.0756 109.462 24.9904 109.523 24.9163C109.584 24.8421 109.659 24.7806 109.746 24.7353C109.832 24.6899 109.926 24.6618 110.024 24.6524V24.6524C110.119 24.64 110.215 24.6456 110.307 24.669C110.399 24.6924 110.486 24.7331 110.562 24.7887C110.637 24.8444 110.701 24.9139 110.749 24.9933C110.797 25.0728 110.829 25.1605 110.842 25.2517L126.374 131.511C126.387 131.605 126.38 131.701 126.354 131.792C126.327 131.883 126.283 131.968 126.222 132.042C126.161 132.116 126.085 132.178 125.999 132.223C125.912 132.269 125.818 132.297 125.72 132.306V132.306Z" fill="black"/>
<path d="M199.733 124.409C199.83 124.421 199.929 124.415 200.024 124.389C200.118 124.364 200.207 124.321 200.284 124.262C200.36 124.203 200.424 124.13 200.471 124.047C200.518 123.964 200.547 123.872 200.557 123.778L216.122 17.5185C216.136 17.4274 216.131 17.3345 216.108 17.2452C216.085 17.1559 216.043 17.0719 215.986 16.9981C215.929 16.9243 215.857 16.862 215.775 16.815C215.693 16.7679 215.602 16.7369 215.508 16.7238V16.7238C215.41 16.7115 215.311 16.7182 215.217 16.7434C215.122 16.7687 215.034 16.812 214.957 16.8709C214.88 16.9297 214.816 17.0028 214.769 17.0859C214.722 17.169 214.693 17.2603 214.684 17.3545L199.118 123.614C199.092 123.798 199.142 123.984 199.257 124.133C199.372 124.282 199.543 124.381 199.733 124.409Z" fill="#01635D"/>
<path opacity="0.2" d="M199.733 124.409C199.83 124.421 199.929 124.415 200.024 124.389C200.118 124.364 200.207 124.321 200.284 124.262C200.36 124.203 200.424 124.13 200.471 124.047C200.518 123.964 200.547 123.872 200.557 123.778L216.122 17.5185C216.136 17.4274 216.131 17.3345 216.108 17.2452C216.085 17.1559 216.043 17.0719 215.986 16.9981C215.929 16.9243 215.857 16.862 215.775 16.815C215.693 16.7679 215.602 16.7369 215.508 16.7238V16.7238C215.41 16.7115 215.311 16.7182 215.217 16.7434C215.122 16.7687 215.034 16.812 214.957 16.8709C214.88 16.9297 214.816 17.0028 214.769 17.0859C214.722 17.169 214.693 17.2603 214.684 17.3545L199.118 123.614C199.092 123.798 199.142 123.984 199.257 124.133C199.372 124.282 199.543 124.381 199.733 124.409Z" fill="black"/>
<path d="M108.749 27.6925L111.692 48.5584C111.71 48.6902 111.757 48.8168 111.831 48.9293C111.904 49.0418 112.002 49.1376 112.118 49.2102C112.233 49.2827 112.364 49.3302 112.5 49.3494C112.637 49.3687 112.776 49.3592 112.908 49.3216C119.487 47.505 156.072 38.4471 212.27 44.2124C212.509 44.2389 212.749 44.1777 212.943 44.0409C213.137 43.9041 213.271 43.7018 213.317 43.4744C214.376 38.1885 216.201 23.132 216.665 19.278C216.693 19.035 216.621 18.7912 216.464 18.599C216.308 18.4068 216.079 18.2814 215.828 18.2498C208.281 17.3289 156.765 11.8223 109.409 26.6832C109.195 26.7517 109.012 26.8897 108.891 27.0737C108.771 27.2578 108.721 27.4765 108.749 27.6925V27.6925Z" fill="#01635D"/>
<path opacity="0.6" d="M108.749 27.6925L111.692 48.5584C111.71 48.6902 111.757 48.8168 111.831 48.9293C111.904 49.0418 112.002 49.1376 112.118 49.2102C112.233 49.2827 112.364 49.3302 112.5 49.3494C112.637 49.3687 112.776 49.3592 112.908 49.3216C119.487 47.505 156.072 38.4471 212.27 44.2124C212.509 44.2389 212.749 44.1777 212.943 44.0409C213.137 43.9041 213.271 43.7018 213.317 43.4744C214.376 38.1885 216.201 23.132 216.665 19.278C216.693 19.035 216.621 18.7912 216.464 18.599C216.308 18.4068 216.079 18.2814 215.828 18.2498C208.281 17.3289 156.765 11.8223 109.409 26.6832C109.195 26.7517 109.012 26.8897 108.891 27.0737C108.771 27.2578 108.721 27.4765 108.749 27.6925V27.6925Z" fill="#FAFAFA"/>
<path d="M118.186 31.3386L121.286 30.7079L123.477 36.2019L124.033 30.1717L127.126 29.5409L129.84 34.9277L129.879 29.0048L132.966 28.374L132.561 39.034L129.363 39.6648L126.296 33.5968L125.642 40.3839L122.443 41.0147L118.186 31.3386Z" fill="#FAFAFA"/>
<path d="M134.484 28.2601L143.306 26.9985L143.594 29.1936L138.074 29.9758L138.29 31.6158L143.411 30.8904L143.685 32.9909L138.565 33.7162L138.8 35.7536L144.483 34.9526L144.791 37.2864L135.805 38.548L134.484 28.2601Z" fill="#FAFAFA"/>
<path d="M145.549 26.7527L148.859 26.4058L149.565 34.2084L154.725 33.6722L154.96 36.1953L146.458 37.0784L145.549 26.7527Z" fill="#FAFAFA"/>
<path d="M163.037 31.3762L165.987 32.007C165.865 32.7356 165.586 33.4317 165.169 34.0507C164.787 34.6079 164.265 35.0634 163.652 35.3753C162.918 35.7166 162.119 35.9098 161.304 35.943C160.332 36.0429 159.349 35.9419 158.42 35.6465C157.616 35.3114 156.933 34.7538 156.458 34.0443C155.832 33.1164 155.494 32.0353 155.484 30.9283C155.312 29.476 155.745 28.0174 156.687 26.8725C157.192 26.3557 157.799 25.9424 158.474 25.6574C159.148 25.3723 159.875 25.2214 160.611 25.2136C161.721 25.0736 162.848 25.2721 163.835 25.7813C164.702 26.3371 165.355 27.1529 165.692 28.1025L162.795 28.9351C162.716 28.6922 162.594 28.464 162.436 28.2602C162.235 28.0311 161.979 27.8534 161.69 27.7429C161.22 27.5578 160.696 27.5426 160.216 27.7002C159.735 27.8579 159.33 28.1777 159.074 28.6008C158.756 29.249 158.636 29.9708 158.727 30.6823C158.784 31.8303 159.002 32.6062 159.381 33.0099C159.579 33.2111 159.823 33.3645 160.093 33.4577C160.364 33.5509 160.653 33.5811 160.938 33.546C161.206 33.5429 161.471 33.485 161.714 33.3763C161.958 33.2676 162.174 33.1105 162.351 32.9153C162.712 32.4674 162.949 31.9374 163.037 31.3762V31.3762Z" fill="#FAFAFA"/>
<path d="M167.197 30.1712C167.145 29.4457 167.244 28.7175 167.486 28.0289C167.729 27.3403 168.111 26.7049 168.609 26.1595C169.144 25.6518 169.779 25.2529 170.477 24.9863C171.174 24.7198 171.92 24.5911 172.671 24.6078C173.415 24.5363 174.167 24.6112 174.881 24.828C175.595 25.0449 176.256 25.3991 176.824 25.8694C177.333 26.3801 177.729 26.9861 177.987 27.65C178.244 28.3139 178.358 29.0217 178.321 29.7297C178.378 30.7656 178.176 31.7996 177.733 32.7448C177.332 33.532 176.703 34.1896 175.921 34.6371C175.012 35.1268 173.987 35.3831 172.945 35.3814C171.917 35.4511 170.885 35.2914 169.93 34.9146C169.109 34.5505 168.424 33.9515 167.968 33.1989C167.432 32.2755 167.165 31.2292 167.197 30.1712V30.1712ZM170.512 30.0829C170.455 30.8818 170.686 31.6754 171.166 32.3285C171.371 32.551 171.626 32.7241 171.912 32.8336C172.199 32.9432 172.508 32.9862 172.815 32.9592C173.128 32.966 173.439 32.9043 173.725 32.7787C174.01 32.6531 174.262 32.4668 174.463 32.2338C174.919 31.5003 175.114 30.6431 175.019 29.7928C175.074 29.0312 174.842 28.2759 174.365 27.6671C174.156 27.4454 173.896 27.2731 173.607 27.1637C173.318 27.0543 173.006 27.0107 172.697 27.0363C172.389 27.0354 172.086 27.1012 171.808 27.229C171.531 27.3568 171.287 27.5431 171.095 27.7743C170.634 28.4554 170.429 29.2676 170.512 30.0766V30.0829Z" fill="#FAFAFA"/>
<path d="M180.335 24.5825H184.698L186.202 30.9344L188.053 24.6267L192.415 24.6645L192.121 35.0722H189.4L189.622 27.1308L187.307 35.0533H184.848L182.984 27.093L182.762 35.0344H180.041L180.335 24.5825Z" fill="#FAFAFA"/>
<path d="M194.809 24.7656L203.683 25.1504L203.546 27.3707L197.987 27.131L197.876 28.8152L203.029 29.0359L202.892 31.1238L197.738 30.903L197.608 32.9593L203.324 33.199L203.167 35.5581L194.128 35.167L194.809 24.7656Z" fill="#FAFAFA"/>
<line x1="16" y1="258.5" x2="327" y2="258.5" stroke="#050505" stroke-dasharray="8 8"/>
<path d="M142.18 284.3V287.8H146.88V290.02H142.18V293.72H147.48V296H139.38V282.02H147.48V284.3H142.18ZM154.645 293.42L157.445 284.92H160.425L156.325 296H152.925L148.845 284.92H151.845L154.645 293.42ZM172.297 290.22C172.297 290.62 172.271 290.98 172.217 291.3H164.117C164.184 292.1 164.464 292.727 164.957 293.18C165.451 293.633 166.057 293.86 166.777 293.86C167.817 293.86 168.557 293.413 168.997 292.52H172.017C171.697 293.587 171.084 294.467 170.177 295.16C169.271 295.84 168.157 296.18 166.837 296.18C165.771 296.18 164.811 295.947 163.957 295.48C163.117 295 162.457 294.327 161.977 293.46C161.511 292.593 161.277 291.593 161.277 290.46C161.277 289.313 161.511 288.307 161.977 287.44C162.444 286.573 163.097 285.907 163.937 285.44C164.777 284.973 165.744 284.74 166.837 284.74C167.891 284.74 168.831 284.967 169.657 285.42C170.497 285.873 171.144 286.52 171.597 287.36C172.064 288.187 172.297 289.14 172.297 290.22ZM169.397 289.42C169.384 288.7 169.124 288.127 168.617 287.7C168.111 287.26 167.491 287.04 166.757 287.04C166.064 287.04 165.477 287.253 164.997 287.68C164.531 288.093 164.244 288.673 164.137 289.42H169.397ZM180.481 284.76C181.801 284.76 182.868 285.18 183.681 286.02C184.494 286.847 184.901 288.007 184.901 289.5V296H182.101V289.88C182.101 289 181.881 288.327 181.441 287.86C181.001 287.38 180.401 287.14 179.641 287.14C178.868 287.14 178.254 287.38 177.801 287.86C177.361 288.327 177.141 289 177.141 289.88V296H174.341V284.92H177.141V286.3C177.514 285.82 177.988 285.447 178.561 285.18C179.148 284.9 179.788 284.76 180.481 284.76ZM190.824 287.22V292.58C190.824 292.953 190.91 293.227 191.084 293.4C191.27 293.56 191.577 293.64 192.004 293.64H193.304V296H191.544C189.184 296 188.004 294.853 188.004 292.56V287.22H186.684V284.92H188.004V282.18H190.824V284.92H193.304V287.22H190.824ZM199.558 296.18C198.651 296.18 197.838 296.02 197.118 295.7C196.398 295.367 195.824 294.92 195.398 294.36C194.984 293.8 194.758 293.18 194.718 292.5H197.538C197.591 292.927 197.798 293.28 198.158 293.56C198.531 293.84 198.991 293.98 199.538 293.98C200.071 293.98 200.484 293.873 200.778 293.66C201.084 293.447 201.238 293.173 201.238 292.84C201.238 292.48 201.051 292.213 200.678 292.04C200.318 291.853 199.738 291.653 198.938 291.44C198.111 291.24 197.431 291.033 196.898 290.82C196.378 290.607 195.924 290.28 195.538 289.84C195.164 289.4 194.978 288.807 194.978 288.06C194.978 287.447 195.151 286.887 195.498 286.38C195.858 285.873 196.364 285.473 197.018 285.18C197.684 284.887 198.464 284.74 199.358 284.74C200.678 284.74 201.731 285.073 202.518 285.74C203.304 286.393 203.738 287.28 203.818 288.4H201.138C201.098 287.96 200.911 287.613 200.578 287.36C200.258 287.093 199.824 286.96 199.278 286.96C198.771 286.96 198.378 287.053 198.098 287.24C197.831 287.427 197.698 287.687 197.698 288.02C197.698 288.393 197.884 288.68 198.258 288.88C198.631 289.067 199.211 289.26 199.998 289.46C200.798 289.66 201.458 289.867 201.978 290.08C202.498 290.293 202.944 290.627 203.318 291.08C203.704 291.52 203.904 292.107 203.918 292.84C203.918 293.48 203.738 294.053 203.378 294.56C203.031 295.067 202.524 295.467 201.858 295.76C201.204 296.04 200.438 296.18 199.558 296.18Z" fill="#050505"/>
</svg>
