<svg width="343" height="311" viewBox="0 0 343 311" fill="none">
<path fill-rule="evenodd" clip-rule="evenodd" d="M0 20C0 8.95431 8.9543 0 20 0H323C334.046 0 343 8.9543 343 20V249C336.373 249 331 254.373 331 261C331 267.627 336.373 273 343 273V291C343 302.046 334.046 311 323 311H20C8.9543 311 0 302.046 0 291V273C6.62742 273 12 267.627 12 261C12 254.373 6.62742 249 0 249V20Z" fill="white"/>
<path d="M335 214.515H8V214.671H335V214.515Z" fill="#EBEBEB"/>
<path d="M302.235 224.664H280.574V224.82H302.235V224.664Z" fill="#EBEBEB"/>
<path d="M224.618 226.379H218.935V226.536H224.618V226.379Z" fill="#EBEBEB"/>
<path d="M279.92 218.81H267.37V218.967H279.92V218.81Z" fill="#EBEBEB"/>
<path d="M70.555 219.87H42.3088V220.026H70.555V219.87Z" fill="#EBEBEB"/>
<path d="M80.522 219.87H76.3822V220.026H80.522V219.87Z" fill="#EBEBEB"/>
<path d="M155.248 222.532H93.9813V222.688H155.248V222.532Z" fill="#EBEBEB"/>
<path d="M245.055 214.294H41.8445C41.8445 214.294 48.1099 204.984 53.3353 197.522C56.6446 192.804 59.5287 188.817 60.15 188.388C61.7523 187.284 65.8725 186.622 67.7037 182.528C69.5349 178.435 69.5349 176.687 72.1509 172.057C74.7669 167.428 84.8712 154.837 85.9307 154.869C86.9902 154.9 96.0808 141.156 99.56 140.052C103.039 138.948 103.392 135.637 107.127 130.673C110.861 125.708 123.307 109.813 128.571 109.441C133.836 109.069 146.72 132.975 151.703 134.754C156.687 136.532 162.213 128.793 163.972 130.673C165.732 132.552 169.309 139.611 172.939 145.351C176.569 151.091 180.237 153.734 180.564 155.903C180.891 158.073 188.301 161.908 191.996 161.908C193.239 161.908 195.92 164.583 198.988 168.134C204.926 175.073 212.12 185.291 212.12 185.291C213.107 186.666 214.834 184.622 217.803 185.726C220.772 186.83 245.055 214.294 245.055 214.294Z" fill="#F0F0F0"/>
<path d="M245.055 214.294H41.8445C41.8445 214.294 48.1099 204.983 53.3353 197.521C56.3633 194.298 58.7962 191.889 59.7184 191.378C63.0341 189.561 65.6044 185.354 67.6056 184.824C69.1767 184.282 70.6507 183.508 71.9743 182.528C71.9743 182.528 75.0743 173.167 75.8264 171.515C76.5785 169.862 85.898 159.568 87.9908 158.842C90.0836 158.117 91.4439 160.539 92.693 161.864C93.9422 163.188 103.484 179.721 103.484 179.721L109.547 175.835C109.547 175.835 113.072 171.464 114.419 169.282C115.766 167.099 117.035 167.579 117.035 167.579C117.035 167.579 123.379 160.539 123.706 158.641C124.033 156.742 127.904 157.625 128.186 157.625C128.467 157.625 134.726 160.539 134.726 160.539C134.726 160.539 128.12 152.528 125.334 154.692C122.548 156.856 106.728 171.515 106.728 171.515L97.7092 160.539L101.941 154.692C101.941 154.692 107.735 147.672 108.239 146.7C108.742 145.729 118.559 132.375 118.703 131.644C118.846 130.912 127.113 124.604 128.146 125.084C129.18 125.563 131.416 127.033 133.869 130.199C136.321 133.366 137.433 135.289 140.016 139.371C142.6 143.452 144.732 144.511 145.589 145.539C146.445 146.568 155.863 156.345 156.157 156.647L148.996 145.539C148.996 145.539 152.541 142.329 154.83 140.146C157.119 137.964 157.831 140.872 160.833 143.061C163.835 145.249 164.371 146.7 166.634 150.062C168.897 153.424 179.636 165.396 179.636 165.396C179.636 165.396 177.968 168.064 176.157 170.77C174.345 173.476 173.135 177.854 173.135 177.854L176.294 176.081C176.294 176.081 183.004 169.774 184.175 168.146C185.345 166.519 188.543 163.453 191.329 163.693C194.115 163.933 198.582 167.85 198.909 168.108C204.847 175.047 212.041 185.265 212.041 185.265C213.029 186.641 214.756 184.597 217.725 185.701C220.694 186.805 245.055 214.294 245.055 214.294Z" fill="#E6E6E6"/>
<path d="M133.352 64.7692C133.354 63.9047 133.566 63.0526 133.969 62.2807C134.373 61.5088 134.958 60.8384 135.677 60.3227C136.397 59.8071 137.231 59.4604 138.113 59.3103C138.996 59.1602 139.903 59.2108 140.762 59.4581C140.681 58.8938 140.639 58.3248 140.638 57.755C140.632 56.0229 141.023 54.311 141.784 52.742C142.545 51.1729 143.656 49.7856 145.038 48.6794C146.42 47.5732 148.039 46.7755 149.778 46.3434C151.517 45.9114 153.334 45.8557 155.098 46.1804C156.298 44.2681 158.112 42.7851 160.265 41.9558C162.417 41.1264 164.791 40.9959 167.027 41.584C169.264 42.172 171.241 43.4466 172.659 45.2149C174.077 46.9831 174.859 49.1488 174.888 51.3843H175.064C177.673 51.3843 180.175 52.3838 182.02 54.1629C183.864 55.942 184.9 58.355 184.9 60.8711C184.9 63.3871 183.864 65.8001 182.02 67.5792C180.175 69.3583 177.673 70.3578 175.064 70.3578H138.95C137.445 70.3183 136.015 69.7108 134.968 68.666C133.922 67.6211 133.341 66.2221 133.352 64.7692V64.7692Z" fill="#EBEBEB"/>
<path d="M59.6071 52.3558C59.6071 51.414 59.995 50.5107 60.6856 49.8447C61.3761 49.1788 62.3126 48.8046 63.2891 48.8046C63.648 48.8062 64.0047 48.8572 64.3486 48.956C64.287 48.5951 64.252 48.2304 64.244 47.8648C64.2439 46.8731 64.4473 45.8913 64.8423 44.9757C65.2374 44.0602 65.8163 43.2291 66.5457 42.5302C67.2752 41.8314 68.1408 41.2786 69.0926 40.9037C70.0445 40.5289 71.0638 40.3393 72.092 40.346C72.5749 40.3451 73.0567 40.3894 73.5308 40.4784C74.2991 39.2608 75.457 38.3171 76.8299 37.7895C78.2028 37.262 79.7164 37.1792 81.1423 37.5536C82.5683 37.928 83.8294 38.7394 84.7356 39.8654C85.6417 40.9915 86.1438 42.3711 86.166 43.7963H86.2772C87.1192 43.7701 87.958 43.9074 88.7439 44.2001C89.5298 44.4927 90.2466 44.9348 90.8518 45.5C91.457 46.0652 91.9382 46.7419 92.2669 47.49C92.5955 48.2381 92.7649 49.0423 92.7649 49.8548C92.7649 50.6673 92.5955 51.4715 92.2669 52.2196C91.9382 52.9678 91.457 53.6445 90.8518 54.2097C90.2466 54.7749 89.5298 55.2169 88.7439 55.5096C87.958 55.8023 87.1192 55.9396 86.2772 55.9134H63.1845C62.2245 55.8887 61.3127 55.5026 60.6441 54.8377C59.9756 54.1729 59.6034 53.282 59.6071 52.3558V52.3558Z" fill="#EBEBEB"/>
<path d="M209.805 83.8187C209.805 83.2415 210.042 82.688 210.466 82.2799C210.889 81.8718 211.463 81.6425 212.061 81.6425C212.283 81.6405 212.504 81.6725 212.715 81.7371C212.681 81.5158 212.664 81.2923 212.663 81.0685C212.66 80.3907 212.813 79.7206 213.11 79.1064C213.407 78.4922 213.842 77.9491 214.383 77.5162C214.924 77.0832 215.557 76.7711 216.238 76.6023C216.919 76.4334 217.63 76.412 218.32 76.5396C218.789 75.7905 219.499 75.2094 220.342 74.8844C221.184 74.5594 222.114 74.5082 222.989 74.7386C223.865 74.9689 224.638 75.4683 225.193 76.1609C225.748 76.8536 226.053 77.7018 226.063 78.577H226.129C226.647 78.5563 227.165 78.6371 227.651 78.8143C228.136 78.9916 228.58 79.2617 228.954 79.6084C229.329 79.9552 229.627 80.3714 229.831 80.832C230.034 81.2927 230.139 81.7883 230.139 82.2891C230.139 82.7898 230.034 83.2855 229.831 83.7461C229.627 84.2068 229.329 84.623 228.954 84.9697C228.58 85.3164 228.136 85.5866 227.651 85.7638C227.165 85.9411 226.647 86.0218 226.129 86.0012H212.002C211.413 85.9863 210.853 85.7497 210.442 85.3418C210.032 84.9339 209.803 84.3872 209.805 83.8187V83.8187Z" fill="#EBEBEB"/>
<path d="M265.055 51.9519C265.056 51.3753 265.295 50.8227 265.717 50.415C266.14 50.0072 266.713 49.7774 267.311 49.7757C267.533 49.7769 267.753 49.8088 267.965 49.8704C267.933 49.6488 267.918 49.4254 267.919 49.2017C267.921 48.5259 268.077 47.8588 268.375 47.2474C268.674 46.6359 269.108 46.0952 269.647 45.6632C270.186 45.2313 270.816 44.9187 271.494 44.7476C272.172 44.5765 272.881 44.5509 273.57 44.6728C274.042 43.9282 274.752 43.3516 275.593 43.0297C276.435 42.7078 277.361 42.658 278.234 42.8877C279.108 43.1174 279.88 43.6143 280.435 44.3036C280.99 44.9929 281.298 45.8375 281.313 46.7102H281.379C281.897 46.6896 282.415 46.7703 282.901 46.9476C283.386 47.1248 283.83 47.3949 284.204 47.7416C284.579 48.0884 284.877 48.5046 285.081 48.9652C285.284 49.4259 285.389 49.9215 285.389 50.4223C285.389 50.9231 285.284 51.4187 285.081 51.8793C284.877 52.34 284.579 52.7562 284.204 53.1029C283.83 53.4497 283.386 53.7198 282.901 53.897C282.415 54.0743 281.897 54.155 281.379 54.1344H267.252C266.664 54.1164 266.106 53.8787 265.696 53.4715C265.286 53.0643 265.056 52.5195 265.055 51.9519Z" fill="#EBEBEB"/>
<path d="M298.304 214.293H85.9371C85.9371 214.293 92.6472 199.861 96.0741 201.249C99.5011 202.637 110.344 193.976 111.907 190.488C113.471 187 118.892 191.63 126.21 190.154C133.529 188.678 144.215 166.027 147.511 167.194C150.807 168.361 160.382 189.561 162.658 190.349C164.934 191.138 167.099 184.269 170.264 183.676C173.429 183.083 175.947 188.388 176.555 189.857C177.164 191.327 180.244 196.039 180.244 196.039C180.244 196.039 185.103 194.569 186.64 193.39C188.177 192.21 195.796 177.501 197.385 175.406C198.974 173.312 202.192 171.622 207.025 172.499C211.858 173.375 213.781 165.137 219.131 160.117C224.48 155.096 227.208 156.9 229.065 156.654C230.922 156.408 240.942 140.127 243.381 141.515C245.821 142.903 256.801 162.797 258.783 165.15C260.764 167.503 265.323 163.68 265.892 165.15C266.461 166.62 274.943 178.1 274.943 178.1C274.943 178.1 278.776 177.803 281.078 179.569C281.464 179.866 282.209 181.052 283.184 182.812L283.38 183.171C288.259 192.109 298.304 214.293 298.304 214.293Z" fill="#EBEBEB"/>
<path d="M298.304 214.294H196.64C193.592 210.005 188.602 202.858 188.792 202.36C189.014 201.634 198.399 183.758 202.866 181.323C207.333 178.889 210.668 180.882 210.668 180.882L207.058 190.343C207.326 190.009 215.828 179.444 218.085 177.86C220.341 176.277 219.549 174.921 219.157 174.259C218.765 173.596 213.781 175.312 213.513 175.4C213.899 175.016 223.84 165.308 225.632 164.387C227.424 163.466 231.079 163.447 231.079 163.447C231.079 163.447 237.731 154.97 240.02 151.816C242.309 148.662 248.142 153.336 249.235 156.963C250.327 160.59 254.211 164.349 254.211 164.349L256.958 171.849C256.958 171.849 248.607 165.895 247.063 166.336C245.365 166.679 243.642 166.901 241.91 166.999C241.91 166.999 240.255 162.362 238.195 161.7C236.135 161.038 231.786 164.129 228.581 168.317C224.546 173.603 234.075 162.362 238.653 168.317C243.231 174.271 243.996 172.291 246.357 170.745C248.718 169.2 256.952 181.563 258.783 183.329C260.614 185.095 264.165 179.141 264.165 179.141C264.165 179.141 260.621 182.232 261.078 180.018C261.536 177.804 261.732 169.988 265.153 169.648C268.573 169.307 272.04 178.914 272.04 178.914L268.403 183.657L278.213 179.797L283.157 182.818L283.354 183.178C288.259 192.11 298.304 214.294 298.304 214.294Z" fill="#E0E0E0"/>
<path d="M89.1745 214.294C90.4825 212.136 91.6466 210.03 91.3785 209.651C90.7964 208.844 97.2253 206.27 98.651 205.444C100.077 204.618 101.568 204.056 105.263 204.264C108.958 204.472 107.748 204.725 108.729 205.444C109.71 206.163 109.893 211.316 109.893 211.316C109.893 211.316 111.855 207.816 111.908 205.444C111.96 203.072 108.729 201.249 108.729 201.249C108.729 201.249 109.579 199.862 110.331 198.878C111.084 197.894 114.602 192.816 116.904 192.141C119.206 191.466 123.307 193.245 125.145 194.342C126.982 195.44 126.969 195.452 128.571 196.329C130.174 197.206 129.716 198.102 130.409 201.249C131.102 204.397 132.234 200.965 134.229 202.359C136.223 203.753 138.323 206.857 138.323 206.857C138.323 206.857 137.734 202.952 136.295 201.249C134.856 199.546 134.229 195.011 134.229 195.011L136.295 190.349C136.295 190.349 140.939 182.648 143.705 179.122C146.471 175.596 146.426 177.135 149.676 180.226C152.926 183.316 152.606 182.869 154.476 186.483C156.347 190.097 162.377 198.878 162.377 198.878L162.194 195.452C162.194 195.452 166.333 191.258 168.165 192.582C169.996 193.907 171.369 196.777 171.369 196.777L169.296 198.878C169.296 198.878 166.791 203.615 165.732 204.264C164.672 204.914 168.394 203.394 171.369 202.372C174.345 201.35 176.634 197.673 178.465 198.89C179.773 199.773 187.758 209.228 191.99 214.306L89.1745 214.294Z" fill="#E0E0E0"/>
<path d="M169.32 243C239.352 243 296.124 239.803 296.124 235.86C296.124 231.916 239.352 228.719 169.32 228.719C99.2881 228.719 42.516 231.916 42.516 235.86C42.516 239.803 99.2881 243 169.32 243Z" fill="#F5F5F5"/>
<path d="M76.7878 131.663C75.8302 128.228 75.6077 124.642 76.1338 121.122C77.1082 115.881 80.2867 114.323 83.2558 113.951C86.225 113.578 88.8214 115.572 88.8214 115.572C88.8214 115.572 92.3726 116.07 93.9226 118.126C95.4726 120.183 95.4464 127.695 90.4498 132.003C90.4564 132.016 82.0263 131.101 76.7878 131.663Z" fill="#01635D"/>
<path opacity="0.4" d="M76.7878 131.663C75.8302 128.228 75.6077 124.642 76.1338 121.122C77.1082 115.881 80.2867 114.323 83.2558 113.951C86.225 113.578 88.8214 115.572 88.8214 115.572C88.8214 115.572 92.3726 116.07 93.9226 118.126C95.4726 120.183 95.4464 127.695 90.4498 132.003C90.4564 132.016 82.0263 131.101 76.7878 131.663Z" fill="black"/>
<path d="M66.9516 185.455C83.8052 171.578 88.7167 161.101 88.7167 161.101L75.7806 155.285C75.7806 155.285 59.0121 175.59 56.9389 184.238C56.7767 185.048 56.7414 185.877 56.8342 186.698C58.43 195.484 82.4776 213.878 82.4776 213.878C83.0596 214.174 84.7339 211.26 84.7404 210.566C78.1285 202.139 72.5302 189.246 66.9516 185.455Z" fill="#263238"/>
<path opacity="0.4" d="M81.9478 206.693C82.8634 208.049 83.7921 209.355 84.7404 210.566C84.7404 211.26 83.0596 214.174 82.4776 213.878C82.4776 213.878 81.8236 213.392 80.7772 212.547C79.201 211.285 76.6766 209.241 73.8382 206.775C66.7685 200.644 57.7891 191.952 56.8342 186.698C56.7414 185.877 56.7767 185.048 56.9389 184.238C58.9794 175.59 75.7806 155.285 75.7806 155.285L88.7167 161.101C88.7167 161.101 87.1341 164.545 82.5561 170.108C79.9182 173.298 77.0788 176.327 74.0541 179.179C71.9613 181.172 69.6069 183.272 66.9516 185.487C70.3328 187.783 73.7205 193.415 77.3306 199.363C78.8283 201.811 80.3652 204.334 81.9478 206.693Z" fill="white"/>
<path opacity="0.2" d="M82.556 170.109C79.9181 173.298 77.0787 176.327 74.054 179.179C75.2121 174.45 77.7016 170.122 81.248 166.671C81.8897 167.734 82.3324 168.898 82.556 170.109V170.109Z" fill="black"/>
<path opacity="0.2" d="M81.9479 206.693C81.8776 208.691 81.4826 210.666 80.7772 212.546C79.2011 211.285 76.6767 209.241 73.8383 206.775C74.7404 204.192 75.9082 201.703 77.3241 199.344C78.8283 201.811 80.3652 204.334 81.9479 206.693Z" fill="black"/>
<path d="M78.4815 141.2C77.2196 146.36 75.5872 151.429 73.5961 156.37C72.4582 158.818 71.1044 161.126 69.7637 163.441C68.423 165.756 67.0234 167.945 65.5258 170.14C65.3328 170.418 65.0415 170.618 64.7064 170.704C64.3712 170.789 64.0152 170.754 63.705 170.605C63.3947 170.456 63.1515 170.203 63.0207 169.893C62.89 169.583 62.8808 169.238 62.9948 168.922C64.5055 164.753 66.3825 160.357 68.0698 156.244C69.2994 153.342 69.973 150.416 70.8886 147.293C71.5426 144.808 72.2489 142.298 72.9552 139.825C73.1443 139.118 73.6167 138.513 74.2686 138.142C74.9205 137.771 75.6984 137.665 76.4312 137.848C77.1641 138.03 77.7918 138.486 78.1763 139.114C78.5608 139.743 78.6706 140.493 78.4815 141.2V141.2Z" fill="#E9B376"/>
<path d="M79.9008 135.006C76.6308 134.11 73.2954 136.658 71.7192 142.19L75.3816 145.256C75.3816 145.256 81.1761 138.86 79.9008 135.006Z" fill="#263238"/>
<path d="M70.8822 236.446C73.9167 236.446 74.3157 236.402 76.0226 236.346C77.481 236.295 77.8277 236.472 79.0049 236.446C79.9793 236.446 79.9466 235.519 79.6589 234.478C79.5084 233.955 79.273 232.851 79.0637 232.006L74.6231 231.697C73.9691 232.851 72.5826 234.491 70.8756 234.712C69.1687 234.933 69.6723 236.446 70.8822 236.446Z" fill="#01635D"/>
<path d="M86.2119 219.201C86.4007 216.937 86.3151 214.659 85.9568 212.414C85.7998 211.033 86.1138 211.153 86.0026 209.74C85.9689 209.535 85.8864 209.34 85.7614 209.17C85.6364 209.001 85.4723 208.862 85.2822 208.764C85.092 208.666 84.8809 208.612 84.6654 208.606C84.45 208.601 84.2361 208.643 84.0406 208.731C83.3562 209.116 82.6358 209.44 81.8889 209.696L81.1041 213.241C82.4644 213.916 84.5834 217.29 84.5049 219.479C84.4395 221.05 86.0941 220.343 86.2119 219.201Z" fill="#01635D"/>
<path d="M71.3727 141.351L76.1403 145.823L75.4863 146.574L70.4505 142.896L71.3727 141.351Z" fill="#01635D"/>
<path opacity="0.5" d="M71.3727 141.351L76.1403 145.823L75.4863 146.574L70.4505 142.896L71.3727 141.351Z" fill="white"/>
<path d="M77.8864 156.13C77.8864 156.13 77.664 180.541 77.8537 192.324C78.0499 204.7 75.5058 224.178 73.8839 232.063C74.5379 232.555 77.1212 232.618 78.5731 232.384C78.5731 232.384 90.6329 207.5 86.2314 194.683C94.2102 167.175 89.4622 159.543 89.4622 159.543L77.8864 156.13Z" fill="#263238"/>
<g opacity="0.4">
<path opacity="0.4" d="M77.8864 156.13C77.8864 156.13 77.664 180.541 77.8537 192.324C78.0499 204.7 75.5058 224.178 73.8839 232.063C74.5379 232.555 77.1212 232.618 78.5731 232.384C78.5731 232.384 90.6329 207.5 86.2314 194.683C94.2102 167.175 89.4622 159.543 89.4622 159.543L77.8864 156.13Z" fill="white"/>
</g>
<path d="M93.9094 139.888C93.8702 140.027 93.831 140.159 93.7852 140.279C93.323 141.541 92.9045 142.726 92.5295 143.837C89.9789 151.368 89.3249 155.683 89.3511 159.574L73.0011 158.565C72.8703 153.405 72.8506 150.315 72.9357 147.173C72.932 145.023 73.0828 142.876 73.3869 140.746C73.5173 139.564 73.9469 138.431 74.638 137.446C75.3291 136.462 76.2605 135.656 77.3502 135.1C77.5368 135.012 77.7317 134.94 77.9322 134.886C78.2534 134.78 78.5876 134.714 78.9263 134.69C79.7307 134.634 80.5678 134.59 81.3853 134.571C83.1446 134.526 87.9253 133.706 90.5413 133.271C91.542 133.101 92.2091 132.987 92.2483 133C94.2888 133.524 94.5438 137.63 93.9094 139.888Z" fill="#263238"/>
<path d="M88.8279 126.938C88.03 129.196 86.9575 133.366 88.4028 134.999C88.4028 134.999 86.1661 134.532 81.1761 137.1C79.9139 135.094 80.9865 134.545 80.9865 134.545C83.7333 134.097 83.9426 132.199 83.7333 130.388L88.8279 126.938Z" fill="#EBB376"/>
<path opacity="0.2" d="M86.7481 128.345L83.7332 130.37C83.7899 130.788 83.8053 131.21 83.779 131.631C84.8188 131.555 86.395 130.571 86.6239 129.556C86.7406 129.163 86.7827 128.752 86.7481 128.345V128.345Z" fill="black"/>
<path d="M91.1692 122.441C90.2013 126.112 89.8612 127.683 87.5526 129.329C84.0668 131.808 79.613 130.111 79.4299 126.295C79.2664 122.857 80.8818 117.426 84.9366 116.442C85.7999 116.203 86.7138 116.191 87.5836 116.408C88.4533 116.624 89.2473 117.061 89.8831 117.673C90.5189 118.285 90.9734 119.05 91.1995 119.888C91.4257 120.726 91.4152 121.608 91.1692 122.441Z" fill="#EBB376"/>
<path d="M86.2054 122.756C86.14 123.065 85.9176 123.299 85.7083 123.267C85.4991 123.236 85.3879 122.964 85.4533 122.636C85.5187 122.308 85.7476 122.094 85.9503 122.119C86.1531 122.144 86.2773 122.441 86.2054 122.756Z" fill="#263238"/>
<path d="M82.1767 122.094C82.1113 122.409 81.8824 122.636 81.6797 122.611C81.4769 122.586 81.3527 122.308 81.4246 121.98C81.4965 121.652 81.7124 121.438 81.9216 121.469C82.1309 121.501 82.2421 121.785 82.1767 122.094Z" fill="#263238"/>
<path d="M82.0133 121.539L81.2939 121.217C81.2939 121.217 81.5554 121.829 82.0133 121.539Z" fill="#263238"/>
<path d="M83.2624 122.945C82.8241 123.619 82.2988 124.235 81.6993 124.781C81.84 124.916 82.0109 125.019 82.199 125.082C82.3872 125.144 82.5875 125.164 82.7849 125.14L83.2624 122.945Z" fill="#D58745"/>
<path d="M84.3677 126.541C84.1871 126.556 84.0055 126.556 83.8249 126.541C83.8 126.536 83.7779 126.523 83.7633 126.503C83.7486 126.483 83.7426 126.458 83.7464 126.434C83.7527 126.409 83.7682 126.388 83.79 126.374C83.8118 126.36 83.8383 126.354 83.8641 126.358C84.2711 126.411 84.6851 126.377 85.0765 126.257C85.4678 126.137 85.8266 125.934 86.127 125.664C86.1355 125.656 86.1457 125.649 86.1569 125.645C86.1681 125.64 86.1802 125.638 86.1924 125.638C86.2046 125.638 86.2166 125.64 86.2278 125.645C86.2391 125.649 86.2493 125.656 86.2578 125.664C86.2675 125.672 86.2753 125.683 86.2807 125.694C86.286 125.706 86.2888 125.718 86.2888 125.73C86.2888 125.743 86.286 125.755 86.2807 125.767C86.2753 125.778 86.2675 125.788 86.2578 125.797C85.7446 126.261 85.0714 126.526 84.3677 126.541V126.541Z" fill="#263238"/>
<path d="M87.2255 120.908C87.1755 120.903 87.1291 120.88 87.0948 120.845C86.9544 120.664 86.7698 120.52 86.5575 120.425C86.3452 120.331 86.1118 120.288 85.8783 120.302C85.8541 120.306 85.8294 120.304 85.8057 120.298C85.7821 120.292 85.76 120.281 85.741 120.266C85.7219 120.252 85.7062 120.233 85.695 120.212C85.6837 120.191 85.6771 120.168 85.6756 120.145C85.6735 120.094 85.6912 120.045 85.7251 120.006C85.759 119.968 85.8067 119.943 85.8587 119.936C86.1527 119.915 86.4475 119.965 86.7168 120.08C86.9861 120.196 87.2215 120.374 87.4021 120.599C87.4176 120.619 87.4288 120.641 87.4352 120.665C87.4416 120.689 87.443 120.714 87.4394 120.739C87.4358 120.764 87.4271 120.787 87.414 120.809C87.4009 120.83 87.3835 120.849 87.3629 120.864C87.3243 120.894 87.2754 120.91 87.2255 120.908V120.908Z" fill="#263238"/>
<path d="M80.9603 119.823C80.9231 119.825 80.8863 119.816 80.8546 119.797C80.8229 119.778 80.798 119.751 80.7831 119.718C80.7682 119.685 80.764 119.648 80.7711 119.613C80.7782 119.578 80.7963 119.546 80.8229 119.521C81.0201 119.29 81.2695 119.107 81.5519 118.985C81.8342 118.862 82.142 118.804 82.4514 118.814C82.4759 118.816 82.4997 118.824 82.5212 118.835C82.5427 118.847 82.5615 118.863 82.5763 118.882C82.591 118.901 82.6015 118.922 82.6071 118.946C82.6126 118.969 82.613 118.993 82.6084 119.016C82.5988 119.065 82.5709 119.109 82.5298 119.139C82.4888 119.169 82.4375 119.184 82.386 119.18C82.1367 119.171 81.8886 119.218 81.6615 119.318C81.4345 119.417 81.2346 119.567 81.078 119.754C81.0492 119.791 81.0072 119.815 80.9603 119.823V119.823Z" fill="#263238"/>
<path d="M86.0418 122.169L85.3224 121.854C85.3224 121.854 85.5906 122.491 86.0418 122.169Z" fill="#263238"/>
<path d="M86.5586 117.691C86.5586 117.691 87.7816 123.999 89.4362 125.147C91.0908 126.295 93.4125 121.249 93.3602 119.318C93.3079 117.388 88.841 116.007 88.841 116.007C88.841 116.007 87.6835 113.484 83.2755 115.376C78.8675 117.268 77.5988 120.807 79.43 124.674C79.4169 124.693 79.4169 116.272 86.5586 117.691Z" fill="#01635D"/>
<path opacity="0.4" d="M86.5586 117.691C86.5586 117.691 87.7816 123.999 89.4362 125.147C91.0908 126.295 93.4125 121.249 93.3602 119.318C93.3079 117.388 88.841 116.007 88.841 116.007C88.841 116.007 87.6835 113.484 83.2755 115.376C78.8675 117.268 77.5988 120.807 79.43 124.674C79.4169 124.693 79.4169 116.272 86.5586 117.691Z" fill="black"/>
<path d="M91.8363 125.658C91.3129 126.286 90.5538 126.689 89.7239 126.781C88.6644 126.869 88.4159 125.828 88.8998 124.889C89.3838 123.949 90.476 122.996 91.4374 123.331C92.3987 123.665 92.5034 124.863 91.8363 125.658Z" fill="#EBB376"/>
<path d="M63.8189 166.999L60.5946 171.035L64.656 173.155C64.656 173.155 67.3178 170.632 66.1144 167.913L63.8189 166.999Z" fill="#EBB376"/>
<path d="M59.9669 174.606L63.3873 175.489L64.656 173.149L60.5947 171.029L59.9669 174.606Z" fill="#EBB376"/>
<path d="M90.5545 133.271C89.9528 134.211 86.7155 138.822 81.2089 138.122C76.9448 137.58 76.8205 136.003 77.9389 134.886C78.26 134.78 78.5942 134.714 78.9329 134.691C79.7374 134.634 80.5745 134.59 81.392 134.571C83.1578 134.527 87.9647 133.707 90.5545 133.271Z" fill="#EBB376"/>
<path opacity="0.5" d="M93.9096 139.888C93.8703 140.027 93.8311 140.159 93.7853 140.279C93.3231 141.54 92.9046 142.726 92.5296 143.836C91.9707 143.001 91.5699 142.076 91.3459 141.105C91.3459 141.105 92.9613 138.651 93.3537 138.778C93.6119 139.109 93.8007 139.486 93.9096 139.888Z" fill="black"/>
<path d="M92.366 157.222L91.8755 156.143C91.7809 155.943 91.7385 155.723 91.7522 155.503C91.7659 155.283 91.8352 155.07 91.954 154.881L93.0527 153.103C93.2639 152.747 93.5619 152.446 93.9209 152.226C94.2799 152.006 94.689 151.874 95.1128 151.841L95.636 151.816C96.5843 153.551 96.29 156.099 96.29 156.099V156.862C96.2943 157.013 96.2675 157.163 96.2111 157.303C96.1548 157.444 96.0699 157.572 95.9615 157.681C95.8532 157.79 95.7235 157.876 95.58 157.936C95.4365 157.996 95.2822 158.027 95.1259 158.029H93.6151C93.3477 158.028 93.0866 157.951 92.8644 157.807C92.6422 157.663 92.4689 157.46 92.366 157.222V157.222Z" fill="#EBB376"/>
<path d="M97.029 135.264C100.219 136.604 103.086 138.569 105.446 141.036C106.274 141.917 107.014 142.871 107.656 143.887C107.894 144.319 108.038 144.794 108.081 145.282C108.124 145.769 108.064 146.26 107.905 146.725C106.355 150.844 99.1479 153.733 95.1781 155.253C94.8558 155.355 94.5065 155.343 94.1924 155.22C93.8782 155.097 93.6197 154.87 93.4627 154.58C93.3057 154.29 93.2605 153.956 93.3351 153.637C93.4097 153.318 93.5993 153.034 93.8701 152.837C95.8321 151.513 97.8595 150.131 99.7104 148.693C100.92 147.722 102.241 146.713 102.98 145.539C103.046 145.413 103.065 145.319 103.026 145.382C102.953 145.616 102.964 145.867 103.059 146.095L103.307 146.561C101.084 143.855 97.9642 141.881 94.8054 140.329C94.1703 140.005 93.6852 139.462 93.4467 138.808C93.2082 138.154 93.2338 137.438 93.5183 136.802C93.8028 136.165 94.3255 135.656 94.9822 135.374C95.6388 135.093 96.3813 135.06 97.0617 135.283L97.029 135.264Z" fill="#E9B376"/>
<path d="M89.4361 134.009C92.1829 132.117 94.982 132.918 99.7693 136.047C100.057 138.179 97.271 142.19 97.271 142.19L91.3458 141.093C91.3458 141.093 89.5015 135.75 89.4361 134.009Z" fill="#263238"/>
<path d="M96.6236 142.512L99.6124 135.347L100.77 136.16L97.4869 142.897L96.6236 142.512Z" fill="#01635D"/>
<path opacity="0.5" d="M96.6236 142.512L99.6124 135.347L100.77 136.16L97.4869 142.897L96.6236 142.512Z" fill="white"/>
<path d="M72.9815 157.386L72.3536 159.575L90.0051 160.887L89.3642 158.433L72.9815 157.386Z" fill="#263238"/>
<path opacity="0.4" d="M72.9815 157.386L72.3536 159.575L90.0051 160.887L89.3642 158.433L72.9815 157.386Z" fill="white"/>
<path d="M78.1611 158.982C78.1611 159.095 78.1143 159.205 78.0309 159.285C77.9475 159.365 77.8343 159.411 77.7164 159.411C77.5984 159.411 77.4853 159.365 77.4019 159.285C77.3185 159.205 77.2717 159.095 77.2717 158.982C77.2717 158.868 77.3185 158.759 77.4019 158.678C77.4853 158.598 77.5984 158.553 77.7164 158.553C77.8343 158.553 77.9475 158.598 78.0309 158.678C78.1143 158.759 78.1611 158.868 78.1611 158.982Z" fill="white"/>
<path opacity="0.1" d="M73.328 159.644L87.1339 160.646C87.1339 160.646 77.0296 160.47 73.328 159.644Z" fill="black"/>
<path opacity="0.1" d="M76.5197 159.883L76.7551 158.023L77.5333 157.896L77.0298 158.243L76.7878 159.883H76.5197Z" fill="black"/>
<path opacity="0.1" d="M82.9484 158.508L82.7719 160.344H83.1316C83.1316 160.344 83.2427 158.88 82.9484 158.508Z" fill="black"/>
<path opacity="0.1" d="M87.4415 160.647V158.957C87.5591 159.224 87.6197 159.511 87.6197 159.802C87.6197 160.092 87.5591 160.38 87.4415 160.647Z" fill="black"/>
<path opacity="0.1" d="M73.328 159.644L73.6681 157.896C73.4844 158.147 73.3589 158.433 73.3002 158.734C73.2415 159.036 73.251 159.346 73.328 159.644Z" fill="black"/>
<path d="M102.483 136.047V138.942C102.48 138.978 102.48 139.013 102.483 139.049C102.509 139.605 102.738 140.135 103.129 140.545C103.521 140.954 104.049 141.218 104.622 141.288L117.761 142.916V132.615L104.727 133.688C104.197 133.732 103.696 133.94 103.299 134.281C102.901 134.622 102.629 135.077 102.523 135.58C102.493 135.734 102.48 135.89 102.483 136.047Z" fill="#263238"/>
<path opacity="0.4" d="M102.483 136.047V138.942C102.48 138.978 102.48 139.014 102.483 139.049H108.716C109.007 139.048 109.285 138.935 109.491 138.737C109.697 138.539 109.813 138.27 109.815 137.99V136.64C109.815 136.359 109.699 136.089 109.493 135.89C109.287 135.692 109.007 135.58 108.716 135.58H102.516C102.489 135.734 102.478 135.891 102.483 136.047V136.047Z" fill="white"/>
<path d="M253.25 136.047V138.942C253.253 138.978 253.253 139.013 253.25 139.049C253.224 139.605 252.995 140.135 252.604 140.545C252.213 140.954 251.684 141.218 251.111 141.288L237.973 142.916V132.615L251.007 133.688C251.537 133.732 252.037 133.94 252.435 134.281C252.832 134.622 253.104 135.077 253.211 135.58C253.24 135.734 253.253 135.89 253.25 136.047V136.047Z" fill="#263238"/>
<path opacity="0.4" d="M253.25 136.047V138.942C253.253 138.978 253.253 139.014 253.25 139.049H247.011C246.72 139.048 246.442 138.935 246.236 138.737C246.03 138.539 245.914 138.27 245.912 137.99V136.64C245.912 136.501 245.941 136.363 245.996 136.234C246.051 136.106 246.132 135.989 246.234 135.89C246.336 135.792 246.457 135.714 246.59 135.661C246.724 135.607 246.867 135.58 247.011 135.58H253.211C253.24 135.734 253.253 135.89 253.25 136.047V136.047Z" fill="white"/>
<path d="M112.405 144.247L113.013 142.039C119.075 120.044 126.897 104.925 126.976 104.773L127.218 104.313L127.676 104.054C128.12 103.796 138.99 97.8096 177.857 97.8096C216.724 97.8096 227.561 103.796 228.038 104.054L228.496 104.313L228.732 104.773C228.81 104.925 236.632 120.044 242.694 142.039L243.303 144.247H112.405Z" fill="#01635D"/>
<path opacity="0.2" d="M112.405 144.247L113.013 142.039C119.075 120.044 126.897 104.925 126.976 104.773L127.218 104.313L127.676 104.054C128.12 103.796 138.99 97.8096 177.857 97.8096C216.724 97.8096 227.561 103.796 228.038 104.054L228.496 104.313L228.732 104.773C228.81 104.925 236.632 120.044 242.694 142.039L243.303 144.247H112.405Z" fill="black"/>
<path d="M226.953 108.104C226.953 108.104 223.316 98.3329 221.243 96.5037L218.281 95.9486C218.121 95.9182 217.955 95.9265 217.8 95.9727C217.644 96.0189 217.502 96.1016 217.388 96.2134C217.273 96.3252 217.189 96.4627 217.143 96.6135C217.096 96.7643 217.09 96.9238 217.123 97.0777L219 105.568L222.996 110.614L226.953 108.104Z" fill="#263238"/>
<path d="M128.755 108.104C128.755 108.104 132.397 98.3329 134.464 96.5037L137.433 95.9486C137.593 95.9177 137.758 95.9258 137.914 95.9719C138.07 96.0181 138.211 96.1009 138.325 96.213C138.439 96.325 138.523 96.4627 138.568 96.6137C138.613 96.7647 138.619 96.9241 138.584 97.0777L136.714 105.568L132.718 110.614L128.755 108.104Z" fill="#263238"/>
<path d="M240.929 145.035H114.779C120.861 122.958 128.611 108.104 128.611 108.104C128.611 108.104 138.754 102.282 176.215 102.124C176.752 102.124 177.301 102.124 177.857 102.124C181.402 102.124 184.717 102.181 187.798 102.269C194.168 102.452 199.57 102.812 204.148 103.272C209.69 103.757 215.186 104.647 220.589 105.934C221.557 106.174 222.388 106.401 223.12 106.621C224.476 106.994 225.79 107.495 227.044 108.116C227.044 108.116 234.846 122.965 240.929 145.035Z" fill="#263238"/>
<path opacity="0.2" d="M176.215 102.124L133.051 145.016H114.739C120.822 122.939 128.571 108.085 128.571 108.085C128.571 108.085 138.754 102.282 176.215 102.124Z" fill="white"/>
<path opacity="0.2" d="M204.2 103.247L164.443 145.023H145.654L187.798 102.244C194.168 102.439 199.583 102.799 204.2 103.247Z" fill="white"/>
<path opacity="0.2" d="M223.166 106.608L190.342 145.035H186.457L220.635 105.927C221.583 106.161 222.414 106.4 223.166 106.608Z" fill="white"/>
<path opacity="0.4" d="M240.929 145.035H114.779C120.861 122.958 128.611 108.104 128.611 108.104C128.611 108.104 138.754 102.282 176.215 102.124C176.752 102.124 177.301 102.124 177.857 102.124C181.402 102.124 184.717 102.181 187.798 102.269C194.168 102.452 199.57 102.812 204.148 103.272C209.69 103.757 215.186 104.647 220.589 105.934C221.557 106.174 222.388 106.401 223.12 106.621C224.476 106.994 225.79 107.495 227.044 108.116C227.044 108.116 234.846 122.965 240.929 145.035Z" fill="white"/>
<path opacity="0.2" d="M235.899 142.455C235.678 141.419 235.11 140.481 234.283 139.785C233.456 139.089 232.416 138.673 231.321 138.601C211.183 137.634 191.024 137.213 170.846 137.34C170.526 136.709 170.192 136.078 169.878 135.479C169.474 134.632 168.83 133.914 168.019 133.407C167.209 132.9 166.266 132.625 165.3 132.615C162.763 132.653 160.225 132.703 157.688 132.766C156.813 131.473 155.6 130.425 154.172 129.728C152.744 129.03 151.15 128.708 149.552 128.793C147.919 128.871 146.329 129.324 144.914 130.114C143.499 130.904 142.3 132.008 141.416 133.334C138.883 133.448 136.348 133.574 133.81 133.713C132.849 133.787 131.924 134.097 131.122 134.614C130.321 135.13 129.67 135.836 129.232 136.665C128.912 137.251 128.578 137.838 128.264 138.424L124.399 138.601C123.304 138.673 122.264 139.089 121.437 139.785C120.61 140.481 120.043 141.419 119.821 142.455C119.258 145.117 118.696 147.76 118.134 150.384H237.587C237.024 147.76 236.462 145.117 235.899 142.455ZM149.539 130.748C150.589 130.696 151.64 130.855 152.623 131.214C153.607 131.574 154.503 132.126 155.255 132.836C151.444 132.937 147.636 133.069 143.829 133.233C145.328 131.725 147.374 130.835 149.539 130.748V130.748Z" fill="black"/>
<path d="M232.832 208.314C232.558 207.744 232.166 207.233 231.681 206.813V189.782H225.128V206.813C224.645 207.235 224.254 207.745 223.977 208.314H200.06V206.314H192.265V203.98H187.157C186.107 202.541 184.714 201.366 183.095 200.555C181.476 199.744 179.678 199.321 177.854 199.321C176.029 199.321 174.232 199.744 172.612 200.555C170.993 201.366 169.6 202.541 168.551 203.98H163.443V206.314H155.647V208.314H131.75C131.471 207.746 131.08 207.236 130.599 206.813V189.782H124.059V206.813C123.574 207.233 123.183 207.744 122.908 208.314H118.506V212.288H122.908C123.299 213.104 123.925 213.795 124.711 214.28C125.496 214.764 126.409 215.022 127.342 215.022C128.275 215.022 129.188 214.764 129.973 214.28C130.759 213.795 131.385 213.104 131.776 212.288H155.673V214.262H163.469V216.596H168.577C169.626 218.035 171.019 219.21 172.639 220.021C174.258 220.832 176.055 221.255 177.88 221.255C179.704 221.255 181.502 220.832 183.121 220.021C184.74 219.21 186.134 218.035 187.183 216.596H192.291V214.262H200.086V212.262H223.99C224.382 213.079 225.007 213.77 225.793 214.254C226.579 214.739 227.492 214.996 228.424 214.996C229.357 214.996 230.27 214.739 231.056 214.254C231.841 213.77 232.467 213.079 232.858 212.262H237.26V208.289L232.832 208.314Z" fill="black"/>
<path d="M122.967 177.186V231.848C122.975 232.449 122.861 233.045 122.631 233.603C122.401 234.161 122.058 234.67 121.624 235.101C121.19 235.531 120.672 235.875 120.1 236.112C119.528 236.35 118.913 236.476 118.291 236.484H90.7048C90.0821 236.476 89.4672 236.35 88.8952 236.112C88.3232 235.875 87.8053 235.531 87.3711 235.101C86.9369 234.67 86.5948 234.161 86.3645 233.603C86.1342 233.045 86.0201 232.449 86.0287 231.848V177.186C86.0147 175.975 86.4992 174.808 87.3758 173.941C88.2524 173.075 89.4496 172.579 90.7048 172.562H118.291C119.546 172.579 120.743 173.075 121.62 173.941C122.496 174.808 122.981 175.975 122.967 177.186V177.186Z" fill="#263238"/>
<path opacity="0.1" d="M120.665 177.186V231.848C120.665 234.409 120.874 236.484 118.291 236.484H90.7049C88.0889 236.484 88.3308 234.409 88.3308 231.848V177.186C88.3308 174.662 88.1216 172.562 90.7049 172.562H118.291C120.874 172.562 120.665 174.637 120.665 177.186Z" fill="white"/>
<path d="M93.5628 233.955C93.4939 234.027 93.4556 234.122 93.4556 234.22C93.4556 234.318 93.4939 234.413 93.5628 234.485L95.5837 236.485H96.6628L94.1122 233.961C94.0772 233.925 94.0349 233.896 93.988 233.876C93.941 233.856 93.8903 233.845 93.8389 233.845C93.7875 233.844 93.7366 233.854 93.6891 233.873C93.6417 233.892 93.5987 233.92 93.5628 233.955V233.955Z" fill="#263238"/>
<path d="M114.89 229.136L107.467 236.484H108.559L115.433 229.666C115.47 229.632 115.499 229.59 115.52 229.545C115.54 229.499 115.55 229.45 115.55 229.401C115.55 229.351 115.54 229.302 115.52 229.257C115.499 229.211 115.47 229.17 115.433 229.136C115.399 229.098 115.357 229.068 115.31 229.048C115.263 229.027 115.213 229.017 115.161 229.017C115.11 229.017 115.059 229.027 115.012 229.048C114.965 229.068 114.924 229.098 114.89 229.136V229.136Z" fill="#263238"/>
<path d="M115.433 190.564C115.398 190.528 115.356 190.5 115.309 190.48C115.262 190.461 115.212 190.451 115.161 190.451C115.11 190.451 115.06 190.461 115.013 190.48C114.967 190.5 114.925 190.528 114.89 190.564L106.931 198.442L102.608 194.166L115.433 181.462C115.47 181.427 115.5 181.385 115.52 181.338C115.541 181.291 115.551 181.241 115.551 181.191C115.551 181.14 115.541 181.09 115.52 181.044C115.5 180.997 115.47 180.955 115.433 180.92C115.398 180.884 115.356 180.855 115.309 180.836C115.262 180.817 115.212 180.806 115.161 180.806C115.11 180.806 115.06 180.817 115.013 180.836C114.967 180.855 114.925 180.884 114.89 180.92L106.931 188.804L102.608 184.521L114.68 172.537H113.595L106.931 179.134L102.608 174.852L104.949 172.537H103.857L102.065 174.315L100.273 172.537H99.1807L106.375 179.677L102.065 183.985L94.1122 176.1C94.0768 176.065 94.0341 176.036 93.9869 176.017C93.9397 175.997 93.8889 175.987 93.8375 175.987C93.7861 175.987 93.7353 175.997 93.6881 176.017C93.6409 176.036 93.5983 176.065 93.5628 176.1C93.493 176.175 93.4543 176.271 93.4543 176.372C93.4543 176.472 93.493 176.569 93.5628 176.643L106.388 189.34L102.065 193.623L94.1122 185.745C94.0768 185.709 94.0341 185.681 93.9869 185.661C93.9397 185.641 93.8889 185.631 93.8375 185.631C93.7861 185.631 93.7353 185.641 93.6881 185.661C93.6409 185.681 93.5983 185.709 93.5628 185.745C93.4934 185.818 93.455 185.914 93.455 186.013C93.455 186.112 93.4934 186.208 93.5628 186.281L106.388 198.985L102.065 203.268L94.1122 195.383C94.0768 195.347 94.0341 195.319 93.9869 195.299C93.9397 195.28 93.8889 195.27 93.8375 195.27C93.7861 195.27 93.7353 195.28 93.6881 195.299C93.6409 195.319 93.5983 195.347 93.5628 195.383C93.493 195.457 93.4543 195.554 93.4543 195.654C93.4543 195.755 93.493 195.851 93.5628 195.926L106.388 208.629L102.065 212.906L94.1122 205.028C94.0768 204.992 94.0341 204.963 93.9869 204.944C93.9397 204.924 93.8889 204.914 93.8375 204.914C93.7861 204.914 93.7353 204.924 93.6881 204.944C93.6409 204.963 93.5983 204.992 93.5628 205.028C93.4934 205.101 93.455 205.197 93.455 205.296C93.455 205.395 93.4934 205.491 93.5628 205.564L106.388 218.268L102.065 222.55L94.1122 214.672C94.0768 214.636 94.0341 214.608 93.9869 214.588C93.9397 214.569 93.8889 214.559 93.8375 214.559C93.7861 214.559 93.7353 214.569 93.6881 214.588C93.6409 214.608 93.5983 214.636 93.5628 214.672C93.4939 214.744 93.4556 214.839 93.4556 214.937C93.4556 215.035 93.4939 215.13 93.5628 215.202L106.388 227.912L102.065 232.195L94.1122 224.31C94.0768 224.274 94.0341 224.246 93.9869 224.226C93.9397 224.207 93.8889 224.197 93.8375 224.197C93.7861 224.197 93.7353 224.207 93.6881 224.226C93.6409 224.246 93.5983 224.274 93.5628 224.31C93.4939 224.383 93.4556 224.477 93.4556 224.575C93.4556 224.673 93.4939 224.768 93.5628 224.84L105.335 236.484H106.42L102.634 232.7L115.459 219.99C115.496 219.955 115.526 219.914 115.546 219.869C115.566 219.823 115.576 219.774 115.576 219.725C115.576 219.675 115.566 219.626 115.546 219.58C115.526 219.535 115.496 219.494 115.459 219.46C115.424 219.424 115.382 219.396 115.335 219.376C115.288 219.357 115.238 219.347 115.187 219.347C115.137 219.347 115.086 219.357 115.04 219.376C114.993 219.396 114.951 219.424 114.916 219.46L106.957 227.338L102.608 223.093L115.433 210.389C115.47 210.354 115.5 210.313 115.52 210.267C115.54 210.221 115.551 210.171 115.551 210.121C115.551 210.071 115.54 210.022 115.52 209.975C115.5 209.929 115.47 209.888 115.433 209.853C115.398 209.817 115.356 209.789 115.309 209.769C115.262 209.75 115.212 209.74 115.161 209.74C115.11 209.74 115.06 209.75 115.013 209.769C114.967 209.789 114.925 209.817 114.89 209.853L106.931 217.738L102.608 213.455L115.433 200.745C115.47 200.711 115.499 200.669 115.52 200.624C115.54 200.578 115.55 200.529 115.55 200.48C115.55 200.43 115.54 200.381 115.52 200.336C115.499 200.29 115.47 200.249 115.433 200.215C115.398 200.179 115.356 200.151 115.309 200.131C115.262 200.112 115.212 200.102 115.161 200.102C115.11 200.102 115.06 200.112 115.013 200.131C114.967 200.151 114.925 200.179 114.89 200.215L106.931 208.093L102.608 203.81L115.433 191.107C115.471 191.072 115.502 191.03 115.523 190.983C115.543 190.936 115.554 190.886 115.554 190.835C115.554 190.784 115.543 190.734 115.523 190.688C115.502 190.641 115.471 190.599 115.433 190.564V190.564Z" fill="#263238"/>
<path d="M232.741 177.186V231.848C232.732 232.449 232.846 233.045 233.076 233.603C233.307 234.161 233.649 234.67 234.083 235.101C234.517 235.531 235.035 235.875 235.607 236.112C236.179 236.35 236.794 236.476 237.417 236.484H265.022C265.645 236.476 266.26 236.35 266.832 236.112C267.404 235.875 267.922 235.531 268.356 235.101C268.79 234.67 269.132 234.161 269.362 233.603C269.593 233.045 269.707 232.449 269.698 231.848V177.186C269.712 175.975 269.228 174.808 268.351 173.941C267.474 173.075 266.277 172.579 265.022 172.562H237.417C236.161 172.579 234.964 173.075 234.088 173.941C233.211 174.808 232.727 175.975 232.741 177.186V177.186Z" fill="#263238"/>
<path opacity="0.1" d="M235.043 177.186V231.848C235.043 234.409 234.833 236.484 237.417 236.484H265.022C267.605 236.484 267.396 234.409 267.396 231.848V177.186C267.396 174.662 267.605 172.562 265.022 172.562H237.417C234.833 172.562 235.043 174.637 235.043 177.186Z" fill="white"/>
<path d="M262.144 233.955C262.216 234.026 262.257 234.121 262.257 234.22C262.257 234.319 262.216 234.414 262.144 234.485L260.13 236.485H259.051L261.602 233.961C261.636 233.925 261.678 233.896 261.724 233.876C261.771 233.856 261.821 233.846 261.872 233.845C261.922 233.845 261.973 233.854 262.02 233.873C262.067 233.892 262.109 233.92 262.144 233.955V233.955Z" fill="#263238"/>
<path d="M240.824 229.136L248.24 236.485H247.155L240.275 229.666C240.203 229.595 240.163 229.5 240.163 229.401C240.163 229.302 240.203 229.207 240.275 229.136C240.309 229.099 240.351 229.069 240.399 229.048C240.446 229.027 240.497 229.017 240.549 229.017C240.601 229.017 240.653 229.027 240.7 229.048C240.747 229.069 240.79 229.099 240.824 229.136V229.136Z" fill="#263238"/>
<path d="M240.275 190.564C240.31 190.528 240.353 190.5 240.4 190.48C240.447 190.461 240.498 190.451 240.549 190.451C240.601 190.451 240.652 190.461 240.699 190.48C240.746 190.5 240.789 190.528 240.824 190.564L248.777 198.442L253.1 194.166L240.275 181.462C240.202 181.389 240.161 181.292 240.161 181.191C240.161 181.09 240.202 180.992 240.275 180.92C240.31 180.884 240.353 180.855 240.4 180.836C240.447 180.816 240.498 180.806 240.549 180.806C240.601 180.806 240.652 180.816 240.699 180.836C240.746 180.855 240.789 180.884 240.824 180.92L248.777 188.804L253.1 184.521L241.027 172.537H242.132L248.79 179.134L253.113 174.852L250.778 172.537H251.864L253.656 174.315L255.454 172.537H256.52L249.326 179.677L253.642 183.985L261.602 176.107C261.636 176.071 261.679 176.043 261.725 176.023C261.772 176.004 261.822 175.994 261.873 175.994C261.924 175.994 261.974 176.004 262.021 176.023C262.068 176.043 262.11 176.071 262.144 176.107C262.217 176.18 262.258 176.277 262.258 176.378C262.258 176.479 262.217 176.576 262.144 176.649L249.326 189.34L253.649 193.623L261.608 185.745C261.643 185.709 261.685 185.681 261.732 185.661C261.778 185.642 261.829 185.632 261.88 185.632C261.93 185.632 261.981 185.642 262.027 185.661C262.074 185.681 262.116 185.709 262.151 185.745C262.223 185.817 262.264 185.913 262.264 186.013C262.264 186.113 262.223 186.209 262.151 186.281L249.326 198.985L253.649 203.268L261.608 195.383C261.643 195.347 261.685 195.319 261.732 195.3C261.778 195.28 261.829 195.27 261.88 195.27C261.93 195.27 261.981 195.28 262.027 195.3C262.074 195.319 262.116 195.347 262.151 195.383C262.224 195.456 262.264 195.553 262.264 195.654C262.264 195.756 262.224 195.853 262.151 195.926L249.326 208.629L253.649 212.906L261.608 205.028C261.643 204.992 261.685 204.963 261.732 204.944C261.778 204.925 261.829 204.915 261.88 204.915C261.93 204.915 261.981 204.925 262.027 204.944C262.074 204.963 262.116 204.992 262.151 205.028C262.223 205.099 262.264 205.196 262.264 205.296C262.264 205.396 262.223 205.492 262.151 205.564L249.326 218.268L253.649 222.55L261.608 214.672C261.643 214.636 261.685 214.608 261.732 214.589C261.778 214.569 261.829 214.559 261.88 214.559C261.93 214.559 261.981 214.569 262.027 214.589C262.074 214.608 262.116 214.636 262.151 214.672C262.223 214.743 262.263 214.838 262.263 214.937C262.263 215.036 262.223 215.131 262.151 215.202L249.326 227.912L253.649 232.195L261.608 224.31C261.643 224.275 261.685 224.246 261.732 224.227C261.778 224.207 261.829 224.197 261.88 224.197C261.93 224.197 261.981 224.207 262.027 224.227C262.074 224.246 262.116 224.275 262.151 224.31C262.223 224.381 262.263 224.476 262.263 224.575C262.263 224.674 262.223 224.769 262.151 224.84L250.379 236.484H249.326L253.113 232.7L240.288 219.99C240.216 219.919 240.176 219.824 240.176 219.725C240.176 219.626 240.216 219.53 240.288 219.46C240.323 219.424 240.366 219.395 240.413 219.376C240.46 219.356 240.511 219.346 240.562 219.346C240.614 219.346 240.665 219.356 240.712 219.376C240.759 219.395 240.802 219.424 240.837 219.46L248.79 227.338L253.113 223.055L240.288 210.351C240.215 210.28 240.175 210.183 240.175 210.083C240.175 209.983 240.215 209.887 240.288 209.815C240.323 209.779 240.366 209.751 240.413 209.731C240.46 209.712 240.511 209.702 240.562 209.702C240.614 209.702 240.665 209.712 240.712 209.731C240.759 209.751 240.802 209.779 240.837 209.815L248.79 217.7L253.113 213.417L240.288 200.707C240.216 200.636 240.176 200.541 240.176 200.442C240.176 200.343 240.216 200.248 240.288 200.177C240.323 200.141 240.366 200.113 240.413 200.093C240.46 200.074 240.511 200.063 240.562 200.063C240.614 200.063 240.665 200.074 240.712 200.093C240.759 200.113 240.802 200.141 240.837 200.177L248.79 208.055L253.113 203.772L240.288 191.069C240.223 191 240.186 190.911 240.183 190.819C240.181 190.726 240.213 190.636 240.275 190.564V190.564Z" fill="#263238"/>
<path d="M104.733 151.816L90.4367 158.124C89.8528 158.369 89.3561 158.774 89.0075 159.289C88.659 159.803 88.4738 160.404 88.4747 161.019V187.391C88.4696 188.083 88.7005 188.758 89.1319 189.31C89.5632 189.863 90.1711 190.264 90.8618 190.451L101.103 193.302L104.733 151.816Z" fill="#01635D"/>
<path opacity="0.1" d="M104.733 151.816L90.4367 158.124C89.8528 158.369 89.3561 158.774 89.0075 159.289C88.659 159.803 88.4738 160.404 88.4747 161.019V187.391C88.4696 188.083 88.7005 188.758 89.1319 189.31C89.5632 189.863 90.1711 190.264 90.8618 190.451L101.103 193.302L104.733 151.816Z" fill="black"/>
<path opacity="0.4" d="M100.482 156.219H99.9L99.6123 156.698L99.9 157.184H100.482L100.77 156.698L100.482 156.219Z" fill="white"/>
<path opacity="0.4" d="M98.7883 166.583H98.2128L97.9185 167.068L98.2128 167.548H98.7883L99.076 167.068L98.7883 166.583Z" fill="white"/>
<path opacity="0.4" d="M97.0944 176.952H96.5189L96.2312 177.432L96.5189 177.917H97.0944L97.3822 177.432L97.0944 176.952Z" fill="white"/>
<path opacity="0.4" d="M95.4005 187.316H94.825L94.5372 187.802L94.825 188.281H95.4005L95.6948 187.802L95.4005 187.316Z" fill="white"/>
<path d="M250.974 151.816L265.277 158.124C265.854 158.375 266.342 158.782 266.683 159.296C267.025 159.81 267.204 160.409 267.2 161.019V187.391C267.205 188.083 266.974 188.758 266.543 189.31C266.111 189.863 265.503 190.264 264.813 190.451L254.558 193.302L250.974 151.816Z" fill="#01635D"/>
<path opacity="0.1" d="M250.974 151.816L265.277 158.124C265.854 158.375 266.342 158.782 266.683 159.296C267.025 159.81 267.204 160.409 267.2 161.019V187.391C267.205 188.083 266.974 188.758 266.543 189.31C266.111 189.863 265.503 190.264 264.813 190.451L254.558 193.302L250.974 151.816Z" fill="black"/>
<path opacity="0.4" d="M255.232 156.219H255.807L256.101 156.698L255.807 157.184H255.232L254.944 156.698L255.232 156.219Z" fill="white"/>
<path opacity="0.4" d="M256.926 166.583H257.501L257.789 167.068L257.501 167.548H256.926L256.631 167.068L256.926 166.583Z" fill="white"/>
<path opacity="0.4" d="M258.613 176.952H259.195L259.483 177.432L259.195 177.917H258.613L258.325 177.432L258.613 176.952Z" fill="white"/>
<path opacity="0.4" d="M260.307 187.316H260.889L261.176 187.802L260.889 188.281H260.307L260.019 187.802L260.307 187.316Z" fill="white"/>
<path d="M96.6628 189.789H259.051C256.435 175.87 253.806 161.818 251.164 147.634C250.814 145.74 249.81 144.015 248.315 142.74C246.82 141.466 244.922 140.716 242.93 140.614C199.575 138.507 156.138 138.507 112.784 140.614C110.791 140.716 108.894 141.466 107.399 142.74C105.904 144.015 104.9 145.74 104.55 147.634C101.921 161.814 99.2919 175.865 96.6628 189.789Z" fill="#01635D"/>
<path opacity="0.1" d="M96.6628 189.795H259.044C256.428 175.867 253.802 161.814 251.164 147.634C250.814 145.74 249.81 144.015 248.315 142.74C246.82 141.466 244.922 140.716 242.93 140.614C230.979 140.033 219.026 139.613 207.071 139.352C207.535 139.446 207.959 139.674 208.286 140.005C208.613 140.336 208.828 140.755 208.902 141.207L213.827 181.519H141.887L146.805 141.207C146.884 140.757 147.1 140.34 147.427 140.009C147.753 139.679 148.174 139.45 148.636 139.352C136.681 139.604 124.73 140.025 112.784 140.614C110.791 140.716 108.894 141.466 107.399 142.74C105.904 144.015 104.9 145.74 104.55 147.634C101.93 161.805 99.3006 175.859 96.6628 189.795Z" fill="white"/>
<path d="M145.255 181.538H210.459L205.998 138.715C205.94 138.158 205.672 137.641 205.245 137.261C204.819 136.881 204.264 136.664 203.683 136.652C186.466 136.311 169.244 136.311 152.017 136.652C151.437 136.663 150.88 136.879 150.454 137.259C150.027 137.639 149.76 138.157 149.702 138.715L145.255 181.538Z" fill="#01635D"/>
<path opacity="0.1" d="M145.255 181.538H210.459L205.998 138.715C205.94 138.158 205.672 137.641 205.245 137.261C204.819 136.881 204.264 136.664 203.683 136.652C186.466 136.311 169.244 136.311 152.017 136.652C151.437 136.663 150.88 136.879 150.454 137.259C150.027 137.639 149.76 138.157 149.702 138.715L145.255 181.538Z" fill="white"/>
<path d="M215.514 150.195L216.966 168.758L203.971 176.876H151.285L139.506 167.339L143.051 151.791L152.606 156.698H205.292L215.514 150.195Z" fill="black"/>
<path d="M142.914 147.18L151.213 152.92H176.83H178.884H204.501L212.8 147.18L219.15 149.614L218.333 149.747L204.861 158.962H178.884H176.83H150.853L137.381 149.747L136.563 149.614L142.914 147.18Z" fill="#01635D"/>
<path d="M141.756 166.475L150.33 172.404H176.797H178.916H205.384L213.958 166.475L220.517 168.992L219.674 169.131L205.756 178.649H178.916H176.797H149.957L136.04 169.131L135.196 168.992L141.756 166.475Z" fill="#01635D"/>
<g opacity="0.4">
<path opacity="0.4" d="M142.914 147.18L151.213 152.92H176.83H178.884H204.501L212.8 147.18L219.15 149.614L218.333 149.747L204.86 158.962H178.884H176.83H150.853L137.381 149.747L136.563 149.614L142.914 147.18Z" fill="white"/>
<path opacity="0.4" d="M141.756 166.475L150.33 172.404H176.797H178.916H205.384L213.958 166.475L220.517 168.992L219.674 169.131L205.756 178.649H178.916H176.797H149.957L136.04 169.131L135.196 168.992L141.756 166.475Z" fill="white"/>
</g>
<path opacity="0.4" d="M136.563 152.257L137.381 152.39L150.853 161.612H204.861L218.339 152.39L219.15 152.257L217.927 151.791L204.861 160.729H150.853L137.78 151.791L136.563 152.257Z" fill="white"/>
<path opacity="0.4" d="M136.563 156.66L137.381 156.793L150.853 166.008H204.861L218.339 156.793L219.15 156.66L217.927 156.193L204.861 165.131H150.853L137.78 156.193L136.563 156.66Z" fill="white"/>
<path opacity="0.4" d="M136.563 161.063L137.381 161.195L150.853 170.411H204.861L218.339 161.195L219.15 161.063L217.927 160.596L204.861 169.534H150.853L137.78 160.596L136.563 161.063Z" fill="white"/>
<path d="M215.841 173.004C216.255 173.004 216.667 172.946 217.064 172.834L246.71 164.583C247.765 164.292 248.67 163.631 249.247 162.73C249.824 161.83 250.032 160.754 249.83 159.713L248.214 151.337C248.028 150.359 247.492 149.475 246.699 148.839C245.907 148.203 244.909 147.855 243.878 147.855H219.15C218.118 147.856 217.118 148.207 216.325 148.845L210.439 153.576C209.825 154.071 209.362 154.717 209.099 155.446C208.837 156.175 208.785 156.959 208.948 157.714L211.525 169.617C211.735 170.572 212.278 171.428 213.063 172.045C213.849 172.661 214.829 172.999 215.841 173.004Z" fill="#263238"/>
<path d="M139.873 173.004C140.885 172.999 141.865 172.661 142.65 172.045C143.436 171.428 143.979 170.572 144.189 169.617L146.759 157.714C146.923 156.959 146.871 156.174 146.609 155.446C146.346 154.717 145.883 154.07 145.268 153.576L139.382 148.845C138.589 148.207 137.59 147.856 136.557 147.855H111.809C110.778 147.855 109.779 148.203 108.985 148.839C108.192 149.475 107.655 150.359 107.467 151.337L105.858 159.713C105.656 160.754 105.864 161.83 106.441 162.73C107.018 163.631 107.922 164.292 108.978 164.583L138.643 172.834C139.042 172.947 139.456 173.004 139.873 173.004V173.004Z" fill="#263238"/>
<path opacity="0.4" d="M248.057 160.016L246.448 151.639C246.334 151.068 246.018 150.552 245.554 150.18C245.091 149.808 244.508 149.601 243.904 149.596H219.15C218.544 149.597 217.956 149.803 217.489 150.176L211.603 154.907C211.245 155.199 210.974 155.578 210.82 156.005C210.666 156.433 210.634 156.892 210.727 157.335L213.304 169.238C213.379 169.575 213.526 169.893 213.734 170.173C213.942 170.453 214.208 170.689 214.514 170.866C214.821 171.044 215.161 171.159 215.516 171.204C215.87 171.249 216.23 171.224 216.574 171.13L246.246 162.873C246.858 162.693 247.38 162.303 247.714 161.776C248.048 161.25 248.17 160.624 248.057 160.016Z" fill="white"/>
<path opacity="0.2" d="M225.717 166.502C229.548 165.63 231.921 161.927 231.017 158.231C230.113 154.535 226.273 152.247 222.442 153.119C218.61 153.991 216.237 157.694 217.141 161.39C218.045 165.085 221.885 167.374 225.717 166.502Z" fill="white"/>
<path opacity="0.2" d="M233.48 155.052C233.478 155.827 233.715 156.585 234.161 157.23C234.606 157.875 235.24 158.378 235.982 158.675C236.724 158.973 237.541 159.051 238.329 158.901C239.118 158.75 239.842 158.378 240.41 157.83C240.979 157.283 241.367 156.585 241.524 155.825C241.681 155.065 241.601 154.277 241.294 153.561C240.987 152.845 240.466 152.232 239.798 151.802C239.13 151.371 238.345 151.141 237.541 151.141C236.465 151.141 235.433 151.553 234.671 152.286C233.91 153.019 233.481 154.014 233.48 155.052Z" fill="white"/>
<path opacity="0.4" d="M107.656 160.016L109.265 151.639C109.38 151.068 109.696 150.552 110.159 150.18C110.623 149.808 111.206 149.601 111.809 149.596H136.563C137.168 149.599 137.752 149.804 138.218 150.176L144.104 154.907C144.461 155.199 144.73 155.579 144.883 156.006C145.036 156.433 145.068 156.892 144.974 157.335L142.404 169.238C142.328 169.575 142.181 169.893 141.973 170.173C141.765 170.453 141.499 170.689 141.193 170.866C140.887 171.044 140.546 171.159 140.192 171.204C139.837 171.249 139.477 171.224 139.134 171.13L109.462 162.873C108.846 162.699 108.32 162.31 107.986 161.782C107.652 161.253 107.535 160.624 107.656 160.016V160.016Z" fill="white"/>
<path opacity="0.2" d="M136.658 164.66C139.441 161.975 139.441 157.622 136.658 154.937C133.874 152.252 129.36 152.252 126.576 154.937C123.792 157.622 123.792 161.975 126.576 164.66C129.36 167.345 133.874 167.345 136.658 164.66Z" fill="white"/>
<path opacity="0.2" d="M122.228 155.052C122.228 155.825 121.99 156.581 121.544 157.225C121.099 157.868 120.466 158.369 119.725 158.665C118.984 158.961 118.168 159.038 117.382 158.888C116.595 158.737 115.873 158.364 115.306 157.817C114.739 157.27 114.352 156.573 114.196 155.815C114.04 155.056 114.12 154.27 114.427 153.555C114.734 152.841 115.253 152.23 115.92 151.8C116.587 151.37 117.371 151.141 118.173 151.141C119.248 151.141 120.28 151.553 121.04 152.287C121.8 153.02 122.228 154.015 122.228 155.052V155.052Z" fill="white"/>
<path d="M211.263 190.438H144.451L153.123 158.376C153.457 157.136 154.209 156.039 155.26 155.256C156.311 154.472 157.602 154.048 158.93 154.049H196.784C198.112 154.049 199.403 154.475 200.454 155.259C201.505 156.044 202.257 157.142 202.591 158.382L211.263 190.438ZM147.989 187.801H207.718L199.942 159.045C199.76 158.37 199.351 157.772 198.78 157.346C198.208 156.919 197.506 156.687 196.784 156.685H158.93C158.206 156.685 157.503 156.917 156.93 157.344C156.357 157.771 155.947 158.369 155.765 159.045L147.989 187.801Z" fill="#263238"/>
<g opacity="0.5">
<path opacity="0.5" d="M211.263 190.438H144.451L153.123 158.376C153.457 157.136 154.209 156.039 155.26 155.256C156.311 154.472 157.602 154.048 158.93 154.049H196.784C198.112 154.049 199.403 154.475 200.454 155.259C201.505 156.044 202.257 157.142 202.591 158.382L211.263 190.438ZM147.989 187.801H207.718L199.942 159.045C199.76 158.37 199.351 157.772 198.78 157.346C198.208 156.919 197.506 156.687 196.784 156.685H158.93C158.206 156.685 157.503 156.917 156.93 157.344C156.357 157.771 155.947 158.369 155.765 159.045L147.989 187.801Z" fill="white"/>
</g>
<path d="M220.387 181.412H135.321H92.608V191.41L135.321 209.015H220.387L263.106 191.41V181.412H220.387Z" fill="#263238"/>
<path opacity="0.5" d="M220.387 181.412H135.321H92.608V191.41L135.321 209.015H220.387L263.106 191.41V181.412H220.387Z" fill="white"/>
<path d="M114.098 189.915H128.323L126.819 196.941L114.857 194.393L114.098 189.915Z" fill="#263238"/>
<path d="M237.096 189.915H222.872L224.382 196.941L236.344 194.393L237.096 189.915Z" fill="#263238"/>
<path opacity="0.1" d="M135.321 209.014L141.586 184.654H214.128L220.387 209.014H135.321Z" fill="white"/>
<path opacity="0.2" d="M141.586 184.654H92.608V181.412H263.106V184.654H214.128H141.586Z" fill="white"/>
<path d="M148.525 198.903C148.525 199.256 148.416 199.601 148.213 199.895C148.01 200.189 147.721 200.417 147.382 200.552C147.044 200.688 146.672 200.723 146.313 200.654C145.954 200.585 145.624 200.415 145.365 200.165C145.107 199.916 144.93 199.598 144.859 199.251C144.787 198.905 144.824 198.546 144.964 198.22C145.104 197.894 145.342 197.615 145.646 197.419C145.95 197.223 146.308 197.118 146.674 197.118C146.917 197.118 147.158 197.164 147.382 197.254C147.607 197.344 147.811 197.475 147.983 197.641C148.155 197.807 148.291 198.004 148.384 198.22C148.477 198.437 148.525 198.669 148.525 198.903V198.903Z" fill="#263238"/>
<path d="M156.321 198.903C156.321 199.256 156.212 199.601 156.009 199.895C155.805 200.189 155.516 200.417 155.178 200.552C154.84 200.688 154.468 200.723 154.109 200.654C153.75 200.585 153.42 200.415 153.161 200.165C152.902 199.916 152.726 199.598 152.655 199.251C152.583 198.905 152.62 198.546 152.76 198.22C152.9 197.894 153.137 197.615 153.442 197.419C153.746 197.223 154.104 197.118 154.47 197.118C154.961 197.118 155.432 197.306 155.779 197.641C156.126 197.976 156.321 198.43 156.321 198.903V198.903Z" fill="#263238"/>
<path d="M164.116 198.903C164.116 199.256 164.008 199.601 163.805 199.895C163.601 200.189 163.312 200.417 162.974 200.552C162.636 200.688 162.264 200.723 161.905 200.654C161.545 200.585 161.216 200.415 160.957 200.165C160.698 199.916 160.522 199.598 160.45 199.251C160.379 198.905 160.416 198.546 160.556 198.22C160.696 197.894 160.933 197.615 161.237 197.419C161.542 197.223 161.9 197.118 162.266 197.118C162.756 197.118 163.227 197.306 163.574 197.641C163.921 197.976 164.116 198.43 164.116 198.903V198.903Z" fill="#263238"/>
<path d="M171.912 198.903C171.912 199.256 171.804 199.601 171.6 199.895C171.397 200.189 171.108 200.417 170.77 200.552C170.431 200.688 170.059 200.723 169.7 200.654C169.341 200.585 169.011 200.415 168.753 200.165C168.494 199.916 168.317 199.598 168.246 199.251C168.175 198.905 168.211 198.546 168.351 198.22C168.491 197.894 168.729 197.615 169.033 197.419C169.337 197.223 169.695 197.118 170.061 197.118C170.552 197.118 171.023 197.306 171.37 197.641C171.717 197.976 171.912 198.43 171.912 198.903V198.903Z" fill="#263238"/>
<path d="M179.708 198.903C179.708 199.256 179.599 199.601 179.396 199.895C179.192 200.189 178.903 200.417 178.565 200.552C178.227 200.688 177.855 200.723 177.496 200.654C177.137 200.585 176.807 200.415 176.548 200.165C176.289 199.916 176.113 199.598 176.042 199.251C175.97 198.905 176.007 198.546 176.147 198.22C176.287 197.894 176.524 197.615 176.829 197.419C177.133 197.223 177.491 197.118 177.857 197.118C178.348 197.118 178.819 197.306 179.166 197.641C179.513 197.976 179.708 198.43 179.708 198.903V198.903Z" fill="#263238"/>
<path d="M187.503 198.903C187.503 199.256 187.395 199.601 187.191 199.895C186.988 200.189 186.699 200.417 186.361 200.552C186.023 200.688 185.651 200.723 185.291 200.654C184.932 200.585 184.603 200.415 184.344 200.165C184.085 199.916 183.909 199.598 183.837 199.251C183.766 198.905 183.803 198.546 183.943 198.22C184.083 197.894 184.32 197.615 184.624 197.419C184.929 197.223 185.287 197.118 185.653 197.118C186.143 197.118 186.614 197.306 186.961 197.641C187.308 197.976 187.503 198.43 187.503 198.903V198.903Z" fill="#263238"/>
<path d="M195.299 198.903C195.299 199.256 195.19 199.601 194.987 199.895C194.784 200.189 194.495 200.417 194.157 200.552C193.818 200.688 193.446 200.723 193.087 200.654C192.728 200.585 192.398 200.415 192.14 200.165C191.881 199.916 191.704 199.598 191.633 199.251C191.562 198.905 191.598 198.546 191.738 198.22C191.878 197.894 192.116 197.615 192.42 197.419C192.724 197.223 193.082 197.118 193.448 197.118C193.939 197.118 194.41 197.306 194.757 197.641C195.104 197.976 195.299 198.43 195.299 198.903V198.903Z" fill="#263238"/>
<path d="M203.095 198.903C203.095 199.256 202.986 199.601 202.783 199.895C202.58 200.189 202.29 200.417 201.952 200.552C201.614 200.688 201.242 200.723 200.883 200.654C200.524 200.585 200.194 200.415 199.935 200.165C199.676 199.916 199.5 199.598 199.429 199.251C199.357 198.905 199.394 198.546 199.534 198.22C199.674 197.894 199.911 197.615 200.216 197.419C200.52 197.223 200.878 197.118 201.244 197.118C201.735 197.118 202.206 197.306 202.553 197.641C202.9 197.976 203.095 198.43 203.095 198.903V198.903Z" fill="#263238"/>
<path d="M210.89 198.903C210.89 199.256 210.782 199.601 210.579 199.895C210.375 200.189 210.086 200.417 209.748 200.552C209.41 200.688 209.038 200.723 208.679 200.654C208.32 200.585 207.99 200.415 207.731 200.165C207.472 199.916 207.296 199.598 207.224 199.251C207.153 198.905 207.19 198.546 207.33 198.22C207.47 197.894 207.707 197.615 208.011 197.419C208.316 197.223 208.674 197.118 209.04 197.118C209.531 197.118 210.001 197.306 210.348 197.641C210.695 197.976 210.89 198.43 210.89 198.903V198.903Z" fill="#263238"/>
<path d="M152.423 191.346C152.423 191.699 152.314 192.044 152.111 192.338C151.907 192.631 151.618 192.86 151.28 192.995C150.942 193.13 150.57 193.166 150.211 193.097C149.852 193.028 149.522 192.858 149.263 192.608C149.004 192.359 148.828 192.041 148.757 191.694C148.685 191.348 148.722 190.989 148.862 190.663C149.002 190.337 149.239 190.058 149.544 189.862C149.848 189.666 150.206 189.561 150.572 189.561C151.063 189.561 151.534 189.749 151.881 190.084C152.228 190.419 152.423 190.873 152.423 191.346V191.346Z" fill="#263238"/>
<path d="M160.219 191.346C160.219 191.699 160.11 192.044 159.907 192.338C159.703 192.631 159.414 192.86 159.076 192.995C158.738 193.13 158.366 193.166 158.007 193.097C157.648 193.028 157.318 192.858 157.059 192.608C156.8 192.359 156.624 192.041 156.552 191.694C156.481 191.348 156.518 190.989 156.658 190.663C156.798 190.337 157.035 190.058 157.339 189.862C157.644 189.666 158.002 189.561 158.368 189.561C158.859 189.561 159.329 189.749 159.676 190.084C160.024 190.419 160.219 190.873 160.219 191.346V191.346Z" fill="#263238"/>
<path d="M168.014 191.346C168.014 191.699 167.906 192.044 167.702 192.338C167.499 192.631 167.21 192.86 166.872 192.995C166.533 193.13 166.161 193.166 165.802 193.097C165.443 193.028 165.113 192.858 164.855 192.608C164.596 192.359 164.42 192.041 164.348 191.694C164.277 191.348 164.313 190.989 164.453 190.663C164.594 190.337 164.831 190.058 165.135 189.862C165.439 189.666 165.797 189.561 166.163 189.561C166.654 189.561 167.125 189.749 167.472 190.084C167.819 190.419 168.014 190.873 168.014 191.346V191.346Z" fill="#263238"/>
<path d="M175.81 191.346C175.81 191.699 175.701 192.044 175.498 192.338C175.295 192.631 175.005 192.86 174.667 192.995C174.329 193.13 173.957 193.166 173.598 193.097C173.239 193.028 172.909 192.858 172.65 192.608C172.391 192.359 172.215 192.041 172.144 191.694C172.072 191.348 172.109 190.989 172.249 190.663C172.389 190.337 172.626 190.058 172.931 189.862C173.235 189.666 173.593 189.561 173.959 189.561C174.45 189.561 174.921 189.749 175.268 190.084C175.615 190.419 175.81 190.873 175.81 191.346V191.346Z" fill="#263238"/>
<path d="M183.605 191.346C183.605 191.699 183.497 192.044 183.294 192.338C183.09 192.631 182.801 192.86 182.463 192.995C182.125 193.13 181.753 193.166 181.394 193.097C181.035 193.028 180.705 192.858 180.446 192.608C180.187 192.359 180.011 192.041 179.939 191.694C179.868 191.348 179.905 190.989 180.045 190.663C180.185 190.337 180.422 190.058 180.726 189.862C181.031 189.666 181.389 189.561 181.755 189.561C182.246 189.561 182.716 189.749 183.063 190.084C183.411 190.419 183.605 190.873 183.605 191.346V191.346Z" fill="#263238"/>
<path d="M191.401 191.346C191.401 191.699 191.293 192.044 191.089 192.338C190.886 192.631 190.597 192.86 190.259 192.995C189.92 193.13 189.548 193.166 189.189 193.097C188.83 193.028 188.5 192.858 188.242 192.608C187.983 192.359 187.806 192.041 187.735 191.694C187.664 191.348 187.7 190.989 187.84 190.663C187.98 190.337 188.218 190.058 188.522 189.862C188.826 189.666 189.184 189.561 189.55 189.561C190.041 189.561 190.512 189.749 190.859 190.084C191.206 190.419 191.401 190.873 191.401 191.346V191.346Z" fill="#263238"/>
<path d="M199.197 191.346C199.197 191.699 199.088 192.044 198.885 192.338C198.682 192.631 198.393 192.86 198.054 192.995C197.716 193.13 197.344 193.166 196.985 193.097C196.626 193.028 196.296 192.858 196.037 192.608C195.779 192.359 195.602 192.041 195.531 191.694C195.459 191.348 195.496 190.989 195.636 190.663C195.776 190.337 196.013 190.058 196.318 189.862C196.622 189.666 196.98 189.561 197.346 189.561C197.837 189.561 198.308 189.749 198.655 190.084C199.002 190.419 199.197 190.873 199.197 191.346V191.346Z" fill="#263238"/>
<path d="M206.993 191.346C206.993 191.699 206.884 192.044 206.681 192.338C206.477 192.631 206.188 192.86 205.85 192.995C205.512 193.13 205.14 193.166 204.781 193.097C204.422 193.028 204.092 192.858 203.833 192.608C203.574 192.359 203.398 192.041 203.327 191.694C203.255 191.348 203.292 190.989 203.432 190.663C203.572 190.337 203.809 190.058 204.114 189.862C204.418 189.666 204.776 189.561 205.142 189.561C205.633 189.561 206.103 189.749 206.45 190.084C206.798 190.419 206.993 190.873 206.993 191.346V191.346Z" fill="#263238"/>
<line x1="16" y1="258.5" x2="327" y2="258.5" stroke="#050505" stroke-dasharray="8 8"/>
<path d="M132.38 282.04V284.3H128.66V296H125.86V284.3H122.14V282.04H132.38ZM137.223 286.64C137.583 286.053 138.05 285.593 138.623 285.26C139.21 284.927 139.876 284.76 140.623 284.76V287.7H139.883C139.003 287.7 138.336 287.907 137.883 288.32C137.443 288.733 137.223 289.453 137.223 290.48V296H134.423V284.92H137.223V286.64ZM141.789 290.42C141.789 289.3 142.009 288.307 142.449 287.44C142.902 286.573 143.509 285.907 144.269 285.44C145.042 284.973 145.902 284.74 146.849 284.74C147.676 284.74 148.396 284.907 149.009 285.24C149.636 285.573 150.136 285.993 150.509 286.5V284.92H153.329V296H150.509V294.38C150.149 294.9 149.649 295.333 149.009 295.68C148.382 296.013 147.656 296.18 146.829 296.18C145.896 296.18 145.042 295.94 144.269 295.46C143.509 294.98 142.902 294.307 142.449 293.44C142.009 292.56 141.789 291.553 141.789 290.42ZM150.509 290.46C150.509 289.78 150.376 289.2 150.109 288.72C149.842 288.227 149.482 287.853 149.029 287.6C148.576 287.333 148.089 287.2 147.569 287.2C147.049 287.2 146.569 287.327 146.129 287.58C145.689 287.833 145.329 288.207 145.049 288.7C144.782 289.18 144.649 289.753 144.649 290.42C144.649 291.087 144.782 291.673 145.049 292.18C145.329 292.673 145.689 293.053 146.129 293.32C146.582 293.587 147.062 293.72 147.569 293.72C148.089 293.72 148.576 293.593 149.029 293.34C149.482 293.073 149.842 292.7 150.109 292.22C150.376 291.727 150.509 291.14 150.509 290.46ZM162.204 284.76C163.524 284.76 164.59 285.18 165.404 286.02C166.217 286.847 166.624 288.007 166.624 289.5V296H163.824V289.88C163.824 289 163.604 288.327 163.164 287.86C162.724 287.38 162.124 287.14 161.364 287.14C160.59 287.14 159.977 287.38 159.524 287.86C159.084 288.327 158.864 289 158.864 289.88V296H156.064V284.92H158.864V286.3C159.237 285.82 159.71 285.447 160.284 285.18C160.87 284.9 161.51 284.76 162.204 284.76ZM173.526 296.18C172.62 296.18 171.806 296.02 171.086 295.7C170.366 295.367 169.793 294.92 169.366 294.36C168.953 293.8 168.726 293.18 168.686 292.5H171.506C171.56 292.927 171.766 293.28 172.126 293.56C172.5 293.84 172.96 293.98 173.506 293.98C174.04 293.98 174.453 293.873 174.746 293.66C175.053 293.447 175.206 293.173 175.206 292.84C175.206 292.48 175.02 292.213 174.646 292.04C174.286 291.853 173.706 291.653 172.906 291.44C172.08 291.24 171.4 291.033 170.866 290.82C170.346 290.607 169.893 290.28 169.506 289.84C169.133 289.4 168.946 288.807 168.946 288.06C168.946 287.447 169.12 286.887 169.466 286.38C169.826 285.873 170.333 285.473 170.986 285.18C171.653 284.887 172.433 284.74 173.326 284.74C174.646 284.74 175.7 285.073 176.486 285.74C177.273 286.393 177.706 287.28 177.786 288.4H175.106C175.066 287.96 174.88 287.613 174.546 287.36C174.226 287.093 173.793 286.96 173.246 286.96C172.74 286.96 172.346 287.053 172.066 287.24C171.8 287.427 171.666 287.687 171.666 288.02C171.666 288.393 171.853 288.68 172.226 288.88C172.6 289.067 173.18 289.26 173.966 289.46C174.766 289.66 175.426 289.867 175.946 290.08C176.466 290.293 176.913 290.627 177.286 291.08C177.673 291.52 177.873 292.107 177.886 292.84C177.886 293.48 177.706 294.053 177.346 294.56C177 295.067 176.493 295.467 175.826 295.76C175.173 296.04 174.406 296.18 173.526 296.18ZM182.985 286.52C183.345 286.013 183.838 285.593 184.465 285.26C185.105 284.913 185.831 284.74 186.645 284.74C187.591 284.74 188.445 284.973 189.205 285.44C189.978 285.907 190.585 286.573 191.025 287.44C191.478 288.293 191.705 289.287 191.705 290.42C191.705 291.553 191.478 292.56 191.025 293.44C190.585 294.307 189.978 294.98 189.205 295.46C188.445 295.94 187.591 296.18 186.645 296.18C185.831 296.18 185.111 296.013 184.485 295.68C183.871 295.347 183.371 294.927 182.985 294.42V301.28H180.185V284.92H182.985V286.52ZM188.845 290.42C188.845 289.753 188.705 289.18 188.425 288.7C188.158 288.207 187.798 287.833 187.345 287.58C186.905 287.327 186.425 287.2 185.905 287.2C185.398 287.2 184.918 287.333 184.465 287.6C184.025 287.853 183.665 288.227 183.385 288.72C183.118 289.213 182.985 289.793 182.985 290.46C182.985 291.127 183.118 291.707 183.385 292.2C183.665 292.693 184.025 293.073 184.465 293.34C184.918 293.593 185.398 293.72 185.905 293.72C186.425 293.72 186.905 293.587 187.345 293.32C187.798 293.053 188.158 292.673 188.425 292.18C188.705 291.687 188.845 291.1 188.845 290.42ZM198.659 296.18C197.593 296.18 196.633 295.947 195.779 295.48C194.926 295 194.253 294.327 193.759 293.46C193.279 292.593 193.039 291.593 193.039 290.46C193.039 289.327 193.286 288.327 193.779 287.46C194.286 286.593 194.973 285.927 195.839 285.46C196.706 284.98 197.673 284.74 198.739 284.74C199.806 284.74 200.773 284.98 201.639 285.46C202.506 285.927 203.186 286.593 203.679 287.46C204.186 288.327 204.439 289.327 204.439 290.46C204.439 291.593 204.179 292.593 203.659 293.46C203.153 294.327 202.459 295 201.579 295.48C200.713 295.947 199.739 296.18 198.659 296.18ZM198.659 293.74C199.166 293.74 199.639 293.62 200.079 293.38C200.533 293.127 200.893 292.753 201.159 292.26C201.426 291.767 201.559 291.167 201.559 290.46C201.559 289.407 201.279 288.6 200.719 288.04C200.173 287.467 199.499 287.18 198.699 287.18C197.899 287.18 197.226 287.467 196.679 288.04C196.146 288.6 195.879 289.407 195.879 290.46C195.879 291.513 196.139 292.327 196.659 292.9C197.193 293.46 197.859 293.74 198.659 293.74ZM209.293 286.64C209.653 286.053 210.12 285.593 210.693 285.26C211.28 284.927 211.947 284.76 212.693 284.76V287.7H211.953C211.073 287.7 210.407 287.907 209.953 288.32C209.513 288.733 209.293 289.453 209.293 290.48V296H206.493V284.92H209.293V286.64ZM217.839 287.22V292.58C217.839 292.953 217.926 293.227 218.099 293.4C218.286 293.56 218.593 293.64 219.019 293.64H220.319V296H218.559C216.199 296 215.019 294.853 215.019 292.56V287.22H213.699V284.92H215.019V282.18H217.839V284.92H220.319V287.22H217.839Z" fill="#050505"/>
</svg>
