<svg width="343" height="311" viewBox="0 0 343 311" fill="none">
<path fill-rule="evenodd" clip-rule="evenodd" d="M0 20C0 8.95431 8.9543 0 20 0H323C334.046 0 343 8.9543 343 20V249C336.373 249 331 254.373 331 261C331 267.627 336.373 273 343 273V291C343 302.046 334.046 311 323 311H20C8.9543 311 0 302.046 0 291V273C6.62742 273 12 267.627 12 261C12 254.373 6.62742 249 0 249V20Z" fill="white"/>
<path d="M335 214.514H8V214.671H335V214.514Z" fill="#EBEBEB"/>
<path d="M302.235 224.664H280.574V224.82H302.235V224.664Z" fill="#EBEBEB"/>
<path d="M224.618 226.379H218.935V226.536H224.618V226.379Z" fill="#EBEBEB"/>
<path d="M279.92 218.81H267.37V218.967H279.92V218.81Z" fill="#EBEBEB"/>
<path d="M70.555 219.87H42.3088V220.026H70.555V219.87Z" fill="#EBEBEB"/>
<path d="M80.522 219.87H76.3822V220.026H80.522V219.87Z" fill="#EBEBEB"/>
<path d="M155.248 222.531H93.9813V222.688H155.248V222.531Z" fill="#EBEBEB"/>
<path d="M227.352 93.0533C242.359 93.0533 254.525 81.3193 254.525 66.8448C254.525 52.3702 242.359 40.6362 227.352 40.6362C212.344 40.6362 200.178 52.3702 200.178 66.8448C200.178 81.3193 212.344 93.0533 227.352 93.0533Z" fill="#F5F5F5"/>
<path d="M275.846 61.6785C275.846 60.5459 275.379 59.4598 274.549 58.6589C273.719 57.8581 272.592 57.4082 271.418 57.4082C270.988 57.4069 270.56 57.4686 270.149 57.5911C270.212 57.1563 270.245 56.718 270.247 56.2791C270.25 54.9486 269.947 53.634 269.361 52.4295C268.775 51.225 267.921 50.1603 266.858 49.3116C265.796 48.463 264.552 47.8513 263.216 47.5204C261.88 47.1896 260.484 47.1477 259.129 47.3978C258.205 45.9341 256.813 44.7998 255.162 44.1659C253.511 43.532 251.691 43.4329 249.976 43.8835C248.262 44.3341 246.746 45.31 245.656 46.664C244.567 48.0181 243.964 49.677 243.937 51.3906H243.8C241.836 51.4464 239.971 52.2381 238.603 53.5977C237.234 54.9573 236.468 56.7778 236.468 58.6729C236.468 60.568 237.234 62.3885 238.603 63.7481C239.971 65.1077 241.836 65.8994 243.8 65.9551H271.562C272.712 65.9191 273.803 65.4524 274.602 64.6541C275.402 63.8558 275.848 62.7885 275.846 61.6785Z" fill="#EBEBEB"/>
<path d="M205.907 85.1682C205.907 84.0368 205.441 82.9515 204.612 82.1509C203.784 81.3502 202.659 80.8996 201.486 80.8979C201.043 80.894 200.602 80.9557 200.178 81.0808C200.379 79.7957 200.289 78.4839 199.915 77.2354C199.541 75.9869 198.891 74.8313 198.01 73.8479C197.129 72.8646 196.037 72.0767 194.811 71.5385C193.584 71.0003 192.252 70.7244 190.904 70.7299C190.325 70.7311 189.747 70.7839 189.178 70.8876C188.25 69.4381 186.861 68.3168 185.218 67.6911C183.575 67.0654 181.767 66.9689 180.062 67.4158C178.358 67.8628 176.849 68.8293 175.761 70.1712C174.673 71.5131 174.064 73.1583 174.024 74.8614H173.887C171.923 74.9172 170.059 75.7089 168.69 77.0685C167.321 78.4281 166.556 80.2486 166.556 82.1437C166.556 84.0388 167.321 85.8593 168.69 87.2189C170.059 88.5785 171.923 89.3702 173.887 89.4259H201.584C202.738 89.4012 203.837 88.942 204.645 88.1463C205.452 87.3507 205.905 86.2818 205.907 85.1682Z" fill="#EBEBEB"/>
<path d="M83.8639 93.2488C83.8639 92.1173 83.3983 91.0321 82.5694 90.2315C81.7405 89.4308 80.616 88.9802 79.4429 88.9785C79.0003 88.9761 78.5597 89.0356 78.1349 89.1551C78.203 88.723 78.238 88.2865 78.2395 87.8494C78.236 86.5205 77.9295 85.2087 77.3418 84.0067C76.7541 82.8048 75.8996 81.7422 74.8387 80.8942C73.7779 80.0462 72.5367 79.4335 71.2031 79.0996C69.8695 78.7657 68.4761 78.7186 67.1215 78.9619C66.1986 77.4961 64.806 76.36 63.1543 75.7252C61.5026 75.0903 59.6816 74.9912 57.9663 75.4429C56.2511 75.8946 54.7349 76.8725 53.6469 78.2289C52.5589 79.5852 51.9582 81.2462 51.9356 82.9609H51.7983C49.8343 83.0167 47.97 83.8084 46.6013 85.168C45.2325 86.5276 44.4668 88.3481 44.4668 90.2432C44.4668 92.1383 45.2325 93.9588 46.6013 95.3184C47.97 96.678 49.8343 97.4697 51.7983 97.5254H79.5214C80.6831 97.5072 81.7905 97.048 82.6034 96.2474C83.4163 95.4468 83.8692 94.3694 83.8639 93.2488Z" fill="#EBEBEB"/>
<path d="M273.289 113.616C273.289 112.932 273.007 112.276 272.505 111.792C272.004 111.308 271.323 111.036 270.614 111.036C270.352 111.036 270.093 111.072 269.842 111.144C269.959 110.367 269.902 109.576 269.674 108.823C269.446 108.07 269.053 107.373 268.522 106.78C267.99 106.186 267.332 105.71 266.593 105.383C265.854 105.057 265.05 104.887 264.237 104.886C263.888 104.886 263.54 104.917 263.197 104.981C262.635 104.106 261.794 103.431 260.8 103.054C259.807 102.678 258.714 102.622 257.685 102.893C256.655 103.165 255.744 103.75 255.088 104.562C254.431 105.373 254.064 106.368 254.041 107.397H253.904C252.69 107.397 251.525 107.862 250.667 108.69C249.808 109.518 249.326 110.641 249.326 111.812C249.326 112.983 249.808 114.106 250.667 114.934C251.525 115.762 252.69 116.228 253.904 116.228H270.659C271.01 116.223 271.356 116.151 271.678 116.017C271.999 115.883 272.291 115.69 272.535 115.447C272.779 115.205 272.971 114.918 273.101 114.604C273.23 114.29 273.294 113.954 273.289 113.616Z" fill="#EBEBEB"/>
<path d="M111.613 30.6509C111.616 30.2481 111.521 29.8503 111.335 29.4897C111.149 29.1292 110.877 28.816 110.542 28.5757C110.207 28.3355 109.818 28.1748 109.406 28.1068C108.995 28.0389 108.572 28.0655 108.173 28.1845C108.29 27.4084 108.233 26.6171 108.005 25.8642C107.778 25.1113 107.385 24.4144 106.853 23.8209C106.321 23.2274 105.664 22.7511 104.924 22.4244C104.185 22.0977 103.382 21.9281 102.568 21.9273C102.217 21.9266 101.867 21.9583 101.522 22.0219C100.959 21.1474 100.118 20.4716 99.125 20.0954C98.1316 19.7193 97.0387 19.6628 96.0093 19.9344C94.9799 20.206 94.069 20.7912 93.4125 21.6027C92.756 22.4142 92.3889 23.4087 92.366 24.4378H92.2876C91.0734 24.4378 89.909 24.903 89.0504 25.731C88.1919 26.5591 87.7096 27.6821 87.7096 28.8532C87.7096 30.0242 88.1919 31.1473 89.0504 31.9753C89.909 32.8034 91.0734 33.2686 92.2876 33.2686H109.043C109.741 33.2423 110.401 32.9537 110.881 32.4646C111.361 31.9754 111.624 31.3245 111.613 30.6509Z" fill="#EBEBEB"/>
<path d="M66.7685 127.001L84.4788 204.592L87.6965 203.135L69.0967 126.566L66.7685 127.001Z" fill="#EBEBEB"/>
<path d="M270.11 204.22C270.11 204.22 259.136 131.316 283.805 55.9388L279.94 53.0625C279.94 53.0625 251.059 110.084 255.264 206.289L270.11 204.22Z" fill="#E6E6E6"/>
<path d="M290.528 36.12C299.566 30.4052 312.94 39.4946 314.778 53.6996C313.45 52.9608 312.061 52.3279 310.625 51.8072C309.926 48.2308 309.252 45.0706 309.252 45.0706L309.736 51.4856C308.938 51.208 308.068 50.9368 307.12 50.6908L306.466 47.2405L306.172 50.4637C304.892 50.1754 303.594 49.9648 302.287 49.8329L300.6 39.7406L299.749 49.6311C298.41 49.5953 297.071 49.6522 295.74 49.8014L294.707 42.9512V49.9402C293.562 50.1186 292.43 50.3694 291.319 50.6908L290.083 40.4723C290.083 40.4723 290.116 46.2186 290.051 51.0945C286.852 52.2123 283.895 53.8887 281.326 56.0397L281.228 54.7782C281.228 54.7782 282.268 41.3301 290.528 36.12Z" fill="#E0E0E0"/>
<path d="M278.03 31.5531C270.836 23.7631 255.48 29.1625 249.862 42.4087C251.343 42.0252 252.855 41.7615 254.382 41.6202C256.023 38.3465 257.534 35.4639 257.534 35.4639L255.33 41.5319C256.173 41.4688 257.083 41.431 258.057 41.431L259.594 38.2771L259.005 41.4625C260.319 41.497 261.63 41.6108 262.929 41.8031L267.291 32.5056L265.447 42.2825C266.751 42.5812 268.03 42.9734 269.273 43.4557L272.131 37.1039L270.254 43.8279C271.314 44.2848 272.339 44.8139 273.321 45.4111L277.291 35.8549C277.291 35.8549 275.695 41.3931 274.44 46.1113C277.223 47.9998 279.622 50.3668 281.516 53.0939L281.954 51.9018C281.954 51.9018 284.577 38.6682 278.03 31.5531Z" fill="#E0E0E0"/>
<path d="M271.117 50.0284C278.311 43.2602 283.713 49.1516 283.713 49.1516C281.012 49.8266 278.599 51.4981 276.519 53.6238L275.545 52.4001L275.702 54.488C275.205 55.043 274.721 55.6234 274.257 56.2226L272.609 52.6083L273.315 57.503C272.661 58.4366 272.007 59.3954 271.464 60.3541L270.738 56.7714L270.797 61.5211C270.195 62.5934 269.659 63.6468 269.182 64.6371L268.397 58.0581L268.292 66.5672C267.141 69.1912 266.539 71.0331 266.539 71.0331C266.539 71.0331 263.923 56.8029 271.117 50.0284Z" fill="#E0E0E0"/>
<path d="M290.528 66.031L289.043 66.8573C288.827 65.7535 288.572 64.5991 288.291 63.4259L289.298 61.6408L288.03 62.3978C287.932 62.0067 287.82 61.6219 287.716 61.2308L289.024 57.7364L287.062 59.1304C286.015 55.9765 284.681 53.2074 283.013 51.8828C283.013 51.8828 299.507 56.9668 290.207 74.1175C290.207 74.1175 289.907 71.4052 289.246 67.8413L290.528 66.031Z" fill="#E0E0E0"/>
<path d="M274.309 51.9962L271.693 47.2023L272.778 52.198C272.517 52.2358 272.249 52.2863 271.981 52.3368L268.56 48.2304L269.404 52.9549C268.235 53.2963 267.088 53.7049 265.97 54.1786C264.751 54.7055 263.562 55.2929 262.406 55.9385L260.738 51.7438L261.517 56.4368C260.385 57.0675 259.28 57.7803 258.247 58.4994L257.423 54.8031L257.501 59.0103C256.193 59.9186 254.977 60.8396 253.852 61.7416L253.956 55.0428L252.943 62.4796C251.792 63.4257 250.752 64.334 249.869 65.1414L249.745 60.4926L248.522 66.3966C247.253 67.614 246.527 68.3899 246.527 68.3899C247.181 52.1223 253.721 45.6821 264.538 43.916C275.355 42.1498 283.151 53.0054 283.151 53.0054C283.151 53.0054 279.789 51.4663 274.309 51.9962Z" fill="#E0E0E0"/>
<path d="M305.858 71.8781L304.87 76.7539C304.393 75.5492 303.745 74.0038 302.908 72.2818L303.798 65.1856L302.176 70.7805C300.908 68.2363 299.439 65.7901 297.781 63.4636L299.324 58.5436L296.826 62.1957C296.322 61.565 295.806 60.9342 295.27 60.3539L296.146 57.2568L294.792 59.8493C294.426 59.4582 294.047 59.086 293.661 58.7265L294.727 54.595L293.033 58.1714C291.979 57.2415 290.818 56.431 289.573 55.7556L291.293 50.7094L288.599 55.2888C286.904 54.5223 285.048 54.1486 283.177 54.1976C283.177 54.1976 286.447 49.1514 292.457 47.4168C298.468 45.6822 311.423 56.1782 305.799 79.3338C305.799 79.3338 305.629 78.8102 305.289 77.9082L305.858 71.8781Z" fill="#E0E0E0"/>
<path d="M295.943 26.8853L296.97 29.8247C296.591 29.8453 296.214 29.8981 295.845 29.9823L294.609 26.1536L295.433 30.077C294.649 30.303 293.901 30.632 293.209 31.0547L291.509 25.8886L292.49 31.5214C292.215 31.717 291.941 31.9314 291.659 32.1522L289.737 27.3016L291.182 32.6C289.761 33.9721 288.548 35.5308 287.578 37.2299L287.075 30.077L286.225 39.7845C284.815 42.8201 283.677 45.9665 282.824 49.1893C282.824 49.1893 281.777 23.3277 288.232 20.4262C294.687 17.5246 298.526 29.9445 298.526 29.9445C298.239 29.8629 297.943 29.8163 297.644 29.8057L295.943 26.8853Z" fill="#E0E0E0"/>
<path d="M286.722 55.6547L286.146 60.5558L284.184 55.8313L281.568 59.5277L280.535 56.0836L277.513 58.531C277.513 58.531 277.886 52.2801 279.815 49.4227C281.745 46.5653 287.539 48.5712 286.722 55.6547Z" fill="#E0E0E0"/>
<path d="M206.162 134.463V100.288C206.162 100.288 198.968 107.662 194.213 106.653C189.459 105.643 183.272 109.131 183.272 109.131C183.272 109.131 189.505 108.255 191.82 110.696C194.135 113.137 204.468 113.396 204.468 113.396V135.712L206.162 134.463Z" fill="#EBEBEB"/>
<path d="M237.881 123.986H236.246V126.137H230.857V123.986H225.56V126.137H220.171V123.986H214.88V126.137H209.484V123.986H204.193V126.137H198.805V123.986H193.507V126.137H188.118V123.986H182.821V126.137H177.432V123.986H175.62L170.369 164.481L243.309 164.191L237.881 123.986Z" fill="#E0E0E0"/>
<path d="M249.483 153.38H247.24V156.332H239.837V153.38H232.564V156.332H225.154V153.38H217.882V156.332H210.478V153.38H203.206V156.332H195.796V153.38H188.524V156.332H181.114V153.38H173.841V156.332H166.438V153.38H163.946L156.726 209.021L256.952 208.617L249.483 153.38Z" fill="#EBEBEB"/>
<path d="M286.506 202.467C284.956 200.782 283.497 199.06 281.876 197.42C281.792 197.339 281.715 197.25 281.647 197.155C281.113 196.822 280.555 196.525 279.979 196.266C279.874 196.234 279.534 196.102 279.188 195.976C278.534 195.749 277.88 195.503 277.226 195.25C273.164 193.674 269.515 191.844 266.448 188.735C264.767 187.032 263.426 185.045 261.687 183.392C261.641 183.449 261.301 183.272 261.137 183.146L259.829 182.982C259.129 182.982 258.423 182.982 257.723 183.026C256.723 183.07 255.722 183.146 254.722 183.234C250.798 188.735 245.893 196.247 243.721 197.237C240.353 198.777 209.314 206.699 207.025 206.213C204.736 205.728 192.755 206.68 189.747 206.573C186.738 206.466 181.29 205.179 173.397 201.678C165.503 198.177 161.2 198.158 151.697 195.238C142.194 192.317 135.824 191.207 130.265 195.698C124.706 200.189 109.435 190.709 104.674 189.359C99.9132 188.009 90.8095 180.232 84.5965 183.859C78.3835 187.486 73.2169 189.214 65.4539 195.698C57.6909 202.183 42.2892 214.716 42.2892 214.716H304.543L301.528 209.638C298.655 209.47 295.846 208.748 293.266 207.517C290.686 206.285 288.387 204.568 286.506 202.467Z" fill="#F5F5F5"/>
<path d="M36.2397 140.462C36.2397 140.462 43.8719 127.216 64.5513 115.786C64.5513 115.786 81.3853 114.405 100.391 122.397C100.391 122.397 104.243 128.566 99.8608 131.001C95.479 133.435 91.8493 128.541 91.8493 128.541C91.8493 128.541 91.0383 135.996 85.3093 136.211C79.5803 136.425 77.9191 131.001 77.9191 131.001C77.9191 131.001 77.3567 137.845 70.5354 139.573C64.6364 141.093 60.974 136.211 60.974 136.211C60.974 136.211 59.7967 141.837 54.4928 143.458C50.2287 144.758 47.2988 141.219 47.2988 141.219C47.2988 141.219 46.0758 147.325 41.5501 147.325C37.6588 147.325 36.2397 140.462 36.2397 140.462Z" fill="#E0E0E0"/>
<path d="M171.5 243C241.532 243 298.304 239.803 298.304 235.86C298.304 231.916 241.532 228.719 171.5 228.719C101.468 228.719 44.696 231.916 44.696 235.86C44.696 239.803 101.468 243 171.5 243Z" fill="#F5F5F5"/>
<path d="M259.136 204.744C259.136 204.744 261.981 200.726 264.571 199.603C267.161 198.48 267.579 194.21 268.985 193.976C270.391 193.743 271.941 197.679 274.4 198.827C276.859 199.975 280.581 204.718 280.581 204.718L259.136 204.744Z" fill="#01635D"/>
<path opacity="0.8" d="M259.136 204.744C259.136 204.744 261.981 200.726 264.571 199.603C267.161 198.48 267.579 194.21 268.985 193.976C270.391 193.743 271.941 197.679 274.4 198.827C276.859 199.975 280.581 204.718 280.581 204.718L259.136 204.744Z" fill="white"/>
<path d="M279.816 233.671H259.123L256.507 204.718H282.432L279.816 233.671Z" fill="#01635D"/>
<path d="M283.681 203.217H255.251V206.264H283.681V203.217Z" fill="#01635D"/>
<path opacity="0.2" d="M283.681 203.217H255.251V206.264H283.681V203.217Z" fill="white"/>
<path d="M268.246 205.362C270.13 208.213 278.194 219.977 283.19 220.834L283.805 219.409C283.805 219.409 279.332 219.926 269.417 204.643C269.323 204.494 269.174 204.386 269 204.34C268.826 204.295 268.641 204.315 268.482 204.397C268.398 204.442 268.324 204.505 268.266 204.579C268.208 204.654 268.167 204.739 268.145 204.829C268.123 204.92 268.12 205.014 268.138 205.106C268.155 205.197 268.192 205.284 268.246 205.362Z" fill="#263238"/>
<path d="M238.803 196.228C239.016 196.163 239.24 196.14 239.461 196.16C239.683 196.18 239.899 196.243 240.095 196.345C240.291 196.447 240.465 196.585 240.604 196.753C240.744 196.92 240.848 197.113 240.909 197.319L244.441 209.235L249.019 207.462C249.019 207.462 251.785 217.397 246.56 218.967C241.478 220.5 237.554 211.329 237.554 211.329L242.224 210.067L237.763 198.297C237.688 198.095 237.656 197.881 237.668 197.668C237.679 197.454 237.735 197.244 237.832 197.052C237.929 196.859 238.065 196.687 238.232 196.545C238.398 196.404 238.593 196.296 238.803 196.228Z" fill="#01635D"/>
<path opacity="0.4" d="M246.579 218.968C241.478 220.5 237.554 211.329 237.554 211.329L242.224 210.067C242.224 210.067 243.028 211.392 243.931 211.064C244.833 210.736 244.467 209.216 244.467 209.216L249.045 207.443C249.045 207.443 251.805 217.416 246.579 218.968Z" fill="white"/>
<path d="M285.734 236.118C283.164 234.888 280.535 233.727 279.691 233.671C277.886 233.557 276.846 232.781 275.558 231.299C274.27 229.817 273.746 228.101 271.418 225.717C269.09 223.332 271.673 222.373 266.755 221.762C261.837 221.15 263.74 221.535 260.719 219.434C257.697 217.334 258.312 217.34 254.774 215.839C251.236 214.337 253.302 213.77 249.163 213.435C246.305 213.202 241.785 214.653 239.438 216.268C238.398 216.98 237.868 218.16 236.822 218.791C235.664 219.503 233.865 218.16 234.055 220.563C234.181 221.176 234.21 221.803 234.14 222.424C233.807 223.774 228.045 223.767 226.58 224.19C226.231 224.25 225.918 224.435 225.704 224.707C225.37 225.281 225.874 226.297 225.226 226.505C225.023 226.574 224.794 226.505 224.572 226.537C223.794 226.682 223.997 228.031 223.264 228.341C222.532 228.65 221.688 228.019 220.877 228.341C220.256 228.568 220.046 229.375 219.504 229.697C218.555 230.252 217.574 230.662 216.639 231.255C215.017 232.277 213.611 233.532 211.871 234.409L207.215 235.632L205.822 236.105L285.734 236.118Z" fill="#01635D"/>
<path opacity="0.8" d="M285.734 236.118C283.164 234.888 280.535 233.727 279.691 233.671C277.886 233.557 276.846 232.781 275.558 231.299C274.27 229.817 273.746 228.101 271.418 225.717C269.09 223.332 271.673 222.373 266.755 221.762C261.837 221.15 263.74 221.535 260.719 219.434C257.697 217.334 258.312 217.34 254.774 215.839C251.236 214.337 253.302 213.77 249.163 213.435C246.305 213.202 241.785 214.653 239.438 216.268C238.398 216.98 237.868 218.16 236.822 218.791C235.664 219.503 233.865 218.16 234.055 220.563C234.181 221.176 234.21 221.803 234.14 222.424C233.807 223.774 228.045 223.767 226.58 224.19C226.231 224.25 225.918 224.435 225.704 224.707C225.37 225.281 225.874 226.297 225.226 226.505C225.023 226.574 224.794 226.505 224.572 226.537C223.794 226.682 223.997 228.031 223.264 228.341C222.532 228.65 221.688 228.019 220.877 228.341C220.256 228.568 220.046 229.375 219.504 229.697C218.555 230.252 217.574 230.662 216.639 231.255C215.017 232.277 213.611 233.532 211.871 234.409L207.215 235.632L205.822 236.105L285.734 236.118Z" fill="white"/>
<path d="M230.851 224.638C230.854 224.684 230.854 224.731 230.851 224.777C230.832 226.913 230.188 229.001 228.993 230.801C228.895 230.946 228.797 231.091 228.686 231.236C228 232.176 227.171 233.012 226.227 233.715C226.017 233.879 225.799 234.033 225.573 234.175C225.521 234.213 225.467 234.247 225.409 234.276L225.194 234.409C225.082 234.482 224.966 234.549 224.847 234.611C224.664 234.711 224.474 234.812 224.285 234.901C222.007 236.006 219.422 236.375 216.91 235.953C214.399 235.53 212.095 234.338 210.341 232.554C209.541 231.757 208.869 230.849 208.347 229.861C207.485 228.243 207.036 226.45 207.039 224.632V224.594C207.039 224.272 207.039 223.963 207.084 223.635C207.212 222.156 207.641 220.716 208.347 219.396C208.52 219.065 208.712 218.743 208.922 218.431C209.607 217.406 210.455 216.491 211.433 215.719C211.744 215.474 212.069 215.246 212.408 215.038C212.526 214.956 212.648 214.88 212.774 214.811C213.71 214.255 214.723 213.831 215.783 213.549L216.057 213.48C217.003 213.253 217.974 213.139 218.948 213.139C219.253 213.139 219.554 213.152 219.85 213.177H220.079C221.402 213.298 222.693 213.635 223.899 214.174L224.049 214.243C225.839 215.06 227.389 216.296 228.558 217.839C229.726 219.381 230.476 221.181 230.739 223.074C230.816 223.592 230.853 224.115 230.851 224.638Z" fill="#01635D"/>
<path opacity="0.6" d="M230.85 224.638C230.852 226.772 230.236 228.864 229.072 230.679C227.907 232.493 226.24 233.957 224.258 234.907C223.986 234.695 223.764 234.431 223.604 234.131C225.802 227.95 223.604 224.638 223.604 224.638V224.575L223.761 223.585V223.402C224.101 221.566 224.958 218.128 226.815 216.047C228.081 217.121 229.096 218.442 229.792 219.924C230.487 221.405 230.848 223.012 230.85 224.638Z" fill="white"/>
<path opacity="0.6" d="M209.818 222.651C209.818 222.651 207.732 224.663 208.346 229.867C207.103 227.525 206.731 224.843 207.293 222.269C207.855 219.694 209.317 217.384 211.433 215.725C210.279 217.859 209.722 220.246 209.818 222.651Z" fill="white"/>
<path opacity="0.2" d="M226.848 216.047C224.232 218.974 223.578 224.638 223.578 224.638C216.384 226.335 209.798 222.651 209.798 222.651C209.703 220.242 210.259 217.851 211.414 215.713C213.605 213.993 216.358 213.082 219.182 213.141C222.006 213.2 224.716 214.225 226.828 216.034L226.848 216.047Z" fill="white"/>
<path opacity="0.2" d="M224.252 234.907C221.978 236.004 219.398 236.368 216.894 235.944C214.389 235.521 212.092 234.332 210.341 232.554C212.571 233.816 217.13 235.626 223.598 234.125C223.756 234.427 223.979 234.693 224.252 234.907Z" fill="white"/>
<g opacity="0.2">
<path opacity="0.2" d="M224.055 214.262C223.744 214.683 223.458 215.121 223.199 215.574C222.715 216.443 222.297 217.345 221.95 218.273C221.583 219.201 221.295 220.166 221.034 221.106C220.772 222.045 220.55 223.036 220.38 224.013C220.448 223.018 220.593 222.03 220.812 221.055C221.033 220.076 221.317 219.111 221.662 218.166C222.018 217.228 222.456 216.321 222.97 215.454C223.255 215.017 223.565 214.596 223.898 214.192L224.055 214.262Z" fill="black"/>
<path opacity="0.2" d="M220.079 213.202C219.916 213.486 219.765 213.776 219.621 214.066C219.141 215.045 218.745 216.059 218.438 217.1C218.091 218.135 217.829 219.194 217.581 220.254C217.332 221.314 217.123 222.386 216.927 223.458C216.993 222.367 217.129 221.28 217.332 220.204C217.528 219.126 217.79 218.06 218.117 217.012C218.443 215.956 218.87 214.932 219.392 213.953C219.536 213.694 219.687 213.435 219.844 213.189L220.079 213.202Z" fill="black"/>
<path opacity="0.2" d="M216.057 213.492L215.854 214.003C215.494 214.94 215.199 215.899 214.971 216.873C214.716 217.845 214.52 218.829 214.317 219.819C214.115 220.809 213.971 221.799 213.82 222.796C213.843 221.787 213.929 220.78 214.075 219.781C214.218 218.773 214.415 217.773 214.664 216.785C214.903 215.796 215.225 214.828 215.625 213.89C215.678 213.776 215.73 213.656 215.789 213.543L216.057 213.492Z" fill="black"/>
<path opacity="0.2" d="M212.774 214.817C212.552 215.523 212.342 216.23 212.192 216.949C212.041 217.668 211.865 218.564 211.734 219.377C211.603 220.191 211.512 221.011 211.433 221.837C211.389 221.009 211.406 220.178 211.486 219.352C211.568 218.524 211.697 217.701 211.871 216.886C212.017 216.263 212.196 215.649 212.408 215.044C212.526 214.962 212.648 214.887 212.774 214.817Z" fill="black"/>
<path opacity="0.2" d="M226.946 228.467C226.981 229.655 226.819 230.841 226.469 231.98C226.294 232.548 226.075 233.103 225.815 233.639C225.73 233.822 225.632 234.005 225.534 234.182C225.482 234.22 225.427 234.253 225.37 234.283C225.728 233.521 226.01 232.729 226.214 231.917C226.52 230.794 226.652 229.633 226.606 228.473C226.587 227.312 226.402 226.16 226.057 225.048C225.718 223.924 225.234 222.846 224.618 221.837C225.349 222.795 225.914 223.86 226.292 224.991C226.69 226.111 226.911 227.283 226.946 228.467Z" fill="black"/>
<path opacity="0.2" d="M229.294 228.139L229.261 229.091L229.124 230.037C229.095 230.294 229.049 230.549 228.987 230.8C228.889 230.945 228.79 231.091 228.679 231.236C228.777 230.831 228.842 230.42 228.875 230.006L228.974 229.072V228.139C228.996 227.826 228.996 227.512 228.974 227.199C228.941 226.89 228.941 226.568 228.882 226.271C228.733 225.03 228.409 223.814 227.921 222.657C227.448 221.487 226.801 220.391 225.998 219.402C226.903 220.323 227.631 221.39 228.15 222.556C228.684 223.724 229.041 224.961 229.209 226.227C229.261 226.543 229.255 226.858 229.281 227.18C229.309 227.499 229.313 227.819 229.294 228.139Z" fill="black"/>
<path opacity="0.2" d="M230.851 224.638C230.854 224.684 230.854 224.73 230.851 224.777L230.811 224.562C230.533 223.255 230.094 221.984 229.503 220.778C228.924 219.556 228.162 218.423 227.24 217.416C228.258 218.354 229.099 219.455 229.726 220.67C230.141 221.459 230.487 222.279 230.759 223.124C230.826 223.626 230.857 224.132 230.851 224.638Z" fill="black"/>
<path opacity="0.2" d="M209.236 220.834C208.711 221.41 208.26 222.046 207.895 222.727C207.555 223.333 207.269 223.966 207.038 224.619C207.038 224.297 207.038 223.988 207.084 223.66C207.259 223.295 207.458 222.941 207.679 222.601C208.087 221.929 208.614 221.331 209.236 220.834Z" fill="black"/>
<path opacity="0.2" d="M209.798 217.781C209.301 218.324 208.817 218.86 208.346 219.402C208.52 219.071 208.712 218.749 208.922 218.437C209.201 218.203 209.493 217.984 209.798 217.781Z" fill="black"/>
<path opacity="0.2" d="M209.798 225.085C210.884 225.489 211.983 225.842 213.068 226.158C214.178 226.475 215.304 226.734 216.443 226.934C218.709 227.405 221.056 227.377 223.31 226.852C222.213 227.248 221.054 227.461 219.883 227.482C218.71 227.504 217.539 227.416 216.384 227.217C215.235 227.008 214.103 226.721 212.996 226.36C211.898 226.014 210.829 225.588 209.798 225.085Z" fill="black"/>
<path opacity="0.2" d="M209.798 227.83C210.891 228.248 212.009 228.602 213.147 228.889C214.281 229.178 215.435 229.388 216.6 229.52C217.761 229.673 218.934 229.726 220.105 229.678L220.982 229.64L221.858 229.539C222.447 229.501 223.009 229.337 223.598 229.255C222.47 229.614 221.302 229.838 220.118 229.924C218.932 230.005 217.741 229.975 216.561 229.835C215.383 229.685 214.219 229.445 213.081 229.116C211.947 228.79 210.847 228.359 209.798 227.83Z" fill="black"/>
<path opacity="0.2" d="M210.086 230.201C211.115 230.663 212.18 231.047 213.271 231.349C214.358 231.649 215.469 231.86 216.593 231.98C217.156 232.068 217.718 232.081 218.281 232.119C218.843 232.157 219.412 232.119 219.981 232.087C221.113 232.026 222.238 231.869 223.343 231.62C222.262 231.987 221.14 232.226 220.001 232.333C218.854 232.444 217.698 232.431 216.554 232.295C215.413 232.159 214.289 231.914 213.199 231.564C212.111 231.226 211.066 230.769 210.086 230.201Z" fill="black"/>
<path opacity="0.2" d="M210.577 231.986C211.547 232.419 212.551 232.78 213.578 233.065C214.6 233.36 215.646 233.571 216.705 233.696C217.761 233.847 218.831 233.887 219.896 233.816L220.694 233.759L221.479 233.633C222.015 233.582 222.519 233.406 223.048 233.305C222.045 233.695 220.991 233.95 219.916 234.062C218.83 234.187 217.732 234.187 216.646 234.062C215.571 233.929 214.513 233.695 213.487 233.361C212.465 233.013 211.488 232.552 210.577 231.986Z" fill="black"/>
</g>
<path d="M82.4186 206.592C82.4186 206.592 84.7469 203.218 88.8867 202.972C93.0265 202.726 96.5189 207.816 96.5189 207.816H95.2109C95.2109 207.816 91.8689 204.34 89.4753 204.34C87.0817 204.34 84.7534 207.21 84.7534 207.21L82.4186 206.592Z" fill="#263238"/>
<path d="M47.2923 233.224C48.7246 230.921 64.7672 232.416 68.3903 231.041L70.3523 234.29C70.3523 234.29 67.5859 235.766 62.9948 235.242C58.4038 234.718 51.4648 234.58 49.6532 236.119L47.2923 233.224Z" fill="#263238"/>
<path opacity="0.3" d="M47.2923 233.224C48.7246 230.921 64.7672 232.416 68.3903 231.041L70.3523 234.29C70.3523 234.29 67.5859 235.766 62.9948 235.242C58.4038 234.718 51.4648 234.58 49.6532 236.119L47.2923 233.224Z" fill="black"/>
<path d="M114.864 226.203C114.733 226.752 114.589 227.288 114.425 227.811C113.117 232.107 111.103 235.583 109.638 236.119H68.0503C67.4784 236.119 66.9141 235.993 66.4006 235.75C65.8871 235.507 65.4379 235.154 65.0876 234.718L65.0549 234.674C64.9014 234.479 64.7719 234.267 64.6691 234.043C61.798 228.259 58.9008 216.691 62.9752 211.418C63.4014 210.868 63.8931 210.368 64.4402 209.929L64.5579 209.841C65.4208 209.162 66.3757 208.599 67.3963 208.169H67.429C70.2935 206.908 73.812 206.346 77.239 206.1C78.2396 206.025 79.201 205.98 80.2081 205.962C82.7587 205.892 85.1393 205.962 87.0359 206.006C93.7198 206.17 98.9779 208.087 102.562 207.753C103.878 207.62 105.208 207.723 106.486 208.056C106.854 208.155 107.216 208.273 107.571 208.409C109.202 209.074 110.72 209.974 112.071 211.077C116.165 214.212 116.224 220.64 114.864 226.203Z" fill="#263238"/>
<path opacity="0.1" d="M114.864 226.203C114.733 226.752 114.589 227.288 114.425 227.811C113.117 232.107 111.103 235.583 109.638 236.119H68.0503C67.4784 236.119 66.9141 235.993 66.4006 235.75C65.8871 235.507 65.4379 235.154 65.0876 234.718L65.0549 234.674C64.9014 234.479 64.7719 234.267 64.6691 234.043C61.798 228.259 58.9008 216.691 62.9752 211.418C63.4014 210.868 63.8931 210.368 64.4402 209.929L64.5579 209.841C65.4208 209.162 66.3757 208.599 67.3963 208.169H67.429C70.2935 206.908 73.812 206.346 77.239 206.1C78.2396 206.025 79.201 205.98 80.2081 205.962C82.7587 205.892 85.1393 205.962 87.0359 206.006C93.7198 206.17 98.9779 208.087 102.562 207.753C103.878 207.62 105.208 207.723 106.486 208.056C106.854 208.155 107.216 208.273 107.571 208.409C109.202 209.074 110.72 209.974 112.071 211.077C116.165 214.212 116.224 220.64 114.864 226.203Z" fill="white"/>
<path opacity="0.2" d="M108.494 225.805C105.518 225.805 99.5665 227.174 90.7702 225.307C86.6691 224.367 82.4003 224.337 78.2854 225.219C78.1873 223.957 78.0826 222.551 77.9649 221.024C77.1866 210.774 71.1241 206.472 67.429 208.175H67.3963C66.3937 208.638 65.4427 209.198 64.5579 209.847L64.4402 209.935C63.8931 210.374 63.4014 210.874 62.9752 211.424C58.9008 216.697 61.798 228.265 64.6691 234.05C64.7719 234.274 64.9014 234.485 65.0549 234.68L65.0876 234.725C65.4411 235.111 65.8759 235.421 66.363 235.633C66.8501 235.845 67.3785 235.955 67.9129 235.955H75.362C78.4031 235.955 78.7628 233.267 78.4227 227.496C78.9394 227.212 79.5737 226.865 80.2801 226.398C82.1309 225.238 89.3314 225.812 92.4379 226.934C95.5444 228.057 103.693 228.556 107.637 227.937C109.881 227.616 112.158 227.576 114.412 227.818C114.576 227.294 114.72 226.758 114.851 226.209C113.503 226.064 110.678 225.805 108.494 225.805Z" fill="black"/>
<path opacity="0.2" d="M81.4574 211.329C83.269 217.694 84.5116 219.939 84.989 220.564C85.4664 221.188 98.638 222.696 101.11 222.69C103.963 222.665 106.809 222.395 109.612 221.882C111.293 221.472 111.836 213.31 107.598 208.415C107.242 208.28 106.88 208.162 106.512 208.062C108.821 213.058 108.873 219.176 108.598 220.047C108.206 221.258 104.328 221.081 102.516 221.043C100.705 221.005 89.4362 220.331 88.2851 219.889C87.1737 219.444 86.2277 218.685 85.571 217.713C84.662 216.59 84.5377 212.723 82.8962 209.387C82.1994 208.119 81.2913 206.97 80.2082 205.987C79.2338 205.987 78.2462 206.05 77.2391 206.126C78.2733 206.669 79.1811 207.411 79.9066 208.306C80.6321 209.201 81.1599 210.23 81.4574 211.329Z" fill="black"/>
<path d="M68.3903 217.189L64.7672 218.047C64.7672 218.047 62.197 225.162 63.7339 228.139C65.2708 231.116 53.2699 235.261 47.2923 233.185L49.6336 236.081C49.6336 236.081 63.8647 235.216 66.5788 229.994C69.2929 224.771 65.4146 223.963 65.1596 222.494C64.9045 221.024 68.3903 217.189 68.3903 217.189Z" fill="#263238"/>
<path opacity="0.1" d="M68.3903 217.189L64.7672 218.047C64.7672 218.047 62.197 225.162 63.7339 228.139C65.2708 231.116 53.2699 235.261 47.2923 233.185L49.6336 236.081C49.6336 236.081 63.8647 235.216 66.5788 229.994C69.2929 224.771 65.4146 223.963 65.1596 222.494C64.9045 221.024 68.3903 217.189 68.3903 217.189Z" fill="white"/>
<path d="M100.391 70.4468C100.391 70.4468 86.395 62.8775 83.4977 60.9347C80.6005 58.992 65.1007 44.3139 64.2374 43.9039C64.2374 43.9039 64.813 42.2261 63.5115 41.2484C62.21 40.2707 57.135 37.0601 56.4156 37.0601C55.6962 37.0601 53.7996 43.9039 54.0939 45.5818C54.3882 47.2596 61.4841 47.6759 61.4841 47.6759C61.4841 47.6759 76.258 64.2652 78.5731 66.599C80.8883 68.9329 96.6758 78.8423 96.6758 78.8423L100.391 70.4468Z" fill="#E4897B"/>
<path d="M106.133 71.8403C106.133 71.8403 109.2 77.8137 101.751 87.3005L85.3289 75.6565L91.8689 64.208L106.133 71.8403Z" fill="#01635D"/>
<path opacity="0.6" d="M101.751 87.3005L93.9945 81.8002L92.9808 81.0811L88.6056 78.0156L85.3356 75.688L87.7488 71.4808L89.0961 69.0586L91.8756 64.208L94.557 65.6462L96.8721 66.9077L106.12 71.8656C106.423 72.558 106.611 73.2925 106.676 74.0417C106.983 76.5585 106.538 81.201 101.751 87.3005Z" fill="white"/>
<path opacity="0.2" d="M101.751 87.3006L93.9945 81.8003C96.6563 76.4892 103.543 74.6158 106.689 74.0166C106.983 76.5586 106.538 81.2011 101.751 87.3006Z" fill="black"/>
<g opacity="0.2">
<path opacity="0.2" d="M96.8851 66.8828L94.5699 68.1822V65.6465L96.8851 66.8828Z" fill="white"/>
<path opacity="0.2" d="M91.8493 69.8412L88.9455 73.7709L87.7422 71.4497L89.109 69.0591L91.8493 69.8412Z" fill="white"/>
<path opacity="0.2" d="M93.9944 75.7515L92.9807 81.0815L88.6055 77.9844L93.9944 75.7515Z" fill="white"/>
<path opacity="0.2" d="M96.0022 72.7113L97.6176 76.704L100.973 72.3013L96.0022 72.7113Z" fill="white"/>
</g>
<path d="M136.655 69.0146C136.655 69.0146 150.65 61.4454 153.548 59.5026C156.445 57.5598 171.945 42.8818 172.815 42.4718C172.815 42.4718 172.232 40.7939 173.534 39.8162C174.835 38.8386 179.91 35.6279 180.63 35.6279C181.349 35.6279 183.246 42.4718 182.952 44.1496C182.657 45.8275 175.561 46.2438 175.561 46.2438C175.561 46.2438 160.787 62.8394 158.472 65.1669C156.157 67.4945 140.37 77.385 140.37 77.385L136.655 69.0146Z" fill="#E4897B"/>
<path d="M119.932 148.946C119.932 148.946 119.631 153.708 119.18 160.079C118.879 164.04 118.526 168.613 118.101 173.035C117.552 178.977 116.93 184.641 116.309 188.173C115.74 191.409 108.186 231.596 108.186 231.596H103.124C104.72 194.122 107.192 179.589 107.284 177.406C107.284 176.693 107.343 175.703 107.375 174.524C107.473 170.247 107.558 163.491 107.611 158.578C107.65 155.033 107.67 152.453 107.67 152.453L119.932 148.946Z" fill="#E4897B"/>
<path d="M139.454 179.267C139.277 182.541 137.256 231.419 137.256 231.419H131.691C128.846 192.488 129.925 178.971 129.415 176.271C128.545 171.679 127.728 165.642 127.165 161.132C126.714 157.531 126.433 154.938 126.433 154.938L137.78 150.208C137.78 150.208 138.466 155.884 138.983 162.684C139.238 166.09 139.46 169.793 139.526 173.237C139.578 175.394 139.565 177.45 139.454 179.267Z" fill="#E4897B"/>
<path opacity="0.2" d="M107.585 158.565L119.18 160.079C118.879 164.04 118.526 168.613 118.101 173.035L107.349 174.523C107.447 170.234 107.532 163.479 107.585 158.565Z" fill="black"/>
<path opacity="0.2" d="M139.533 173.262L129.422 176.264C128.552 171.672 127.734 165.636 127.172 161.126L138.99 162.678C139.245 166.09 139.454 169.793 139.533 173.262Z" fill="black"/>
<path d="M109.37 230.082H102.68C102.57 230.084 102.464 230.12 102.379 230.187C102.293 230.253 102.234 230.345 102.209 230.448L101.13 235.166C101.085 235.369 101.125 235.58 101.242 235.754C101.358 235.927 101.541 236.049 101.751 236.093C101.812 236.1 101.873 236.1 101.934 236.093C104.092 236.062 105.668 235.929 108.376 235.929C110.05 235.929 115.093 236.1 117.395 236.1C119.697 236.1 120.011 233.905 119.062 233.696C114.824 232.807 111.633 231.577 110.279 230.404C110.03 230.188 109.705 230.073 109.37 230.082Z" fill="#01635D"/>
<path d="M137.675 229.918H130.998C130.889 229.917 130.782 229.952 130.696 230.017C130.611 230.083 130.551 230.175 130.527 230.278L129.441 235.002C129.421 235.104 129.421 235.21 129.443 235.312C129.464 235.414 129.507 235.511 129.568 235.597C129.628 235.684 129.706 235.757 129.797 235.814C129.888 235.871 129.989 235.91 130.095 235.929H130.272C132.437 235.898 134.006 235.772 136.72 235.772C138.388 235.772 143.43 235.936 145.739 235.936C148.048 235.936 148.355 233.74 147.4 233.539C143.162 232.649 139.977 231.413 138.623 230.24C138.495 230.128 138.345 230.043 138.183 229.987C138.02 229.932 137.847 229.909 137.675 229.918Z" fill="#01635D"/>
<path d="M120.39 170.279C120.442 169.85 120.494 169.402 120.547 168.897C121.201 162.438 121.914 154.686 122.509 147.218C124.765 153.071 125.74 161.303 126.917 170.279H140.651C139.513 147.048 136.531 128.15 134.948 120.088H105.819C105.779 122.977 105.446 150.996 104.694 170.279H120.39Z" fill="#263238"/>
<path opacity="0.2" d="M120.39 170.279C120.442 169.85 120.494 169.402 120.547 168.897C121.201 162.438 121.914 154.686 122.509 147.218C124.765 153.071 125.74 161.303 126.917 170.279H140.651C139.513 147.048 136.531 128.15 134.948 120.088H105.819C105.779 122.977 105.446 150.996 104.694 170.279H120.39Z" fill="white"/>
<path d="M124.412 62.5558C124.348 62.8101 124.27 63.0607 124.177 63.3064C123.656 64.709 122.707 65.9271 121.456 66.8009C121.141 67.0235 120.809 67.2218 120.462 67.3938C119.136 68.078 117.614 68.3251 116.128 68.0973C114.643 67.8696 113.275 67.1794 112.235 66.1322C109.481 63.4515 109.553 60.3544 109.239 55.1127C109.156 53.9863 109.347 52.8568 109.795 51.8137C110.17 50.943 110.72 50.1521 111.412 49.4862C112.104 48.8204 112.925 48.2925 113.829 47.9328C114.733 47.5732 115.701 47.3888 116.679 47.3901C117.656 47.3915 118.624 47.5786 119.527 47.9408C124.837 50.035 125.57 57.8313 124.412 62.5558Z" fill="#E4897B"/>
<path opacity="0.2" d="M121.436 66.8008C121.122 67.0234 120.789 67.2217 120.442 67.3937C119.532 67.862 118.524 68.1278 117.493 68.1714C116.462 68.2151 115.434 68.0356 114.484 67.646C114.73 67.016 115.058 66.4183 115.459 65.8673C117.503 65.62 119.578 65.944 121.436 66.8008Z" fill="black"/>
<path d="M110.495 73.6002C113.176 75.9467 119.736 75.0826 119.736 75.0826C119.736 75.0826 123.83 73.9976 122.967 72.7676C120.56 72.3829 119.389 71.2979 118.905 69.9039C118.644 69.0428 118.562 68.1403 118.663 67.2484C118.702 66.751 118.77 66.2561 118.866 65.7661L110.756 59.9756C111.816 63.7981 113.117 70.8312 110.495 73.6002Z" fill="#E4897B"/>
<path d="M121.436 57.7869L122.607 58.2095L122.025 55.9009C122.025 55.9009 123.738 53.3778 122.025 51.189C122.025 51.189 126.76 49.8013 124.085 47.4044C123.091 46.5087 121.855 47.4044 118.585 46.0356C116.812 45.285 111.267 45.2282 110.992 47.4044C110.992 47.4044 106.996 47.4044 106.564 53.9644C106.438 55.8864 106.752 57.8116 107.483 59.6037C108.214 61.3957 109.345 63.0108 110.796 64.3343C110.796 64.3343 115.622 65.4318 117.99 63.5647C120.357 61.6977 121.436 57.7869 121.436 57.7869Z" fill="#263238"/>
<path d="M118.349 58.1589C118.451 58.6521 118.666 59.117 118.979 59.5197C119.291 59.9224 119.693 60.2527 120.154 60.4865C121.26 60.9406 121.992 59.4394 121.829 57.8625C121.678 56.4621 120.926 54.4941 119.742 54.7591C118.559 55.024 117.964 56.746 118.349 58.1589Z" fill="#E4897B"/>
<path opacity="0.2" d="M122.535 147.186C121.914 154.654 121.227 162.425 120.573 168.884C119.579 159.555 118.362 152.907 118.362 152.907C118.362 152.907 117.225 152.005 114.092 147.186C110.959 142.367 114.092 133.359 114.092 133.359C113.948 141.723 122.535 147.186 122.535 147.186Z" fill="black"/>
<path d="M141.665 169.188L141.063 171.376H126.439V169.351L141.665 169.188Z" fill="#01635D"/>
<path d="M121.096 169.49L120.658 171.515H104.099L103.098 169.49H121.096Z" fill="#01635D"/>
<path d="M123.137 72.0798C123.137 72.0798 120.756 68.4528 114.759 68.1942C108.762 67.9356 108.304 71.9158 108.304 71.9158L123.137 72.0798Z" fill="#01635D"/>
<path opacity="0.5" d="M123.137 72.0798C123.137 72.0798 120.756 68.4528 114.759 68.1942C108.762 67.9356 108.304 71.9158 108.304 71.9158L123.137 72.0798Z" fill="white"/>
<path d="M101.601 69.8159C103.41 89.4536 103.19 109.216 100.947 128.812L136.086 126.743C135.694 92.1578 130.887 70.371 130.887 70.371C130.887 70.371 121.829 72.2065 114.458 71.9416C110.098 71.7463 105.779 71.0324 101.601 69.8159Z" fill="#01635D"/>
<path d="M130.913 70.3961C130.913 70.3961 135.608 80.9804 136.112 91.6909C136.616 102.401 117.041 117.124 117.041 117.124C117.041 117.124 101.954 107.107 90.3124 108.015C78.6712 108.924 75.048 112.916 75.048 112.916C75.048 112.916 84.0994 94.2392 99.8608 87.7297C99.8608 87.7297 96.5908 76.9751 101.6 69.8663C101.6 69.8158 112.496 73.2598 130.913 70.3961Z" fill="#01635D"/>
<path opacity="0.6" d="M136.112 91.691C136.128 91.9936 136.128 92.2968 136.112 92.5994C136.085 93.0673 136.026 93.533 135.935 93.9934C135.722 95.0767 135.387 96.1343 134.935 97.1472C133.537 100.112 131.714 102.872 129.52 105.347C128.408 106.659 127.231 107.921 126.067 109.094C123.247 111.962 120.232 114.644 117.041 117.124C113.079 114.594 108.866 112.449 104.465 110.721C103.124 110.204 101.731 109.718 100.312 109.308C97.089 108.302 93.7019 107.875 90.3189 108.047C87.0899 108.254 83.9012 108.856 80.8294 109.838C80.2996 110.015 79.8091 110.204 79.3579 110.387L78.9524 110.557C77.9695 110.968 77.0318 111.474 76.1533 112.065C76.0552 112.128 75.9636 112.197 75.8786 112.26C75.7936 112.324 75.5712 112.488 75.4535 112.588L75.2965 112.721C75.2565 112.751 75.2193 112.785 75.1854 112.822L75.1069 112.898L75.0611 112.942C75.0611 112.91 75.1396 112.778 75.2573 112.551L75.4404 112.204C75.6235 111.85 75.8786 111.377 76.2121 110.803L76.356 110.551L76.6111 110.116C76.6961 109.964 76.7877 109.807 76.8858 109.649C77.2651 109.018 77.7098 108.287 78.1938 107.511C80.8821 103.315 84.0642 99.4333 87.6768 95.9424C88.9648 94.7073 90.3275 93.5467 91.7577 92.4669C94.2297 90.5693 96.947 88.9897 99.8412 87.7677C99.0909 84.9977 98.7496 82.1394 98.8275 79.2775C98.8465 78.376 98.923 77.4765 99.0564 76.5841C99.3563 74.17 100.227 71.8545 101.6 69.8159C103.208 70.2665 104.847 70.6017 106.505 70.8188C108.673 71.1377 110.856 71.3482 113.045 71.4496C117.45 71.6398 121.863 71.49 126.243 71.0018C127.734 70.8462 129.284 70.6359 130.893 70.371L131.043 70.7242C132.084 73.2423 132.982 75.8134 133.731 78.4259C134.019 79.4289 134.307 80.5012 134.582 81.624C134.856 82.7467 135.066 83.7496 135.275 84.8661C135.707 87.1211 135.987 89.4009 136.112 91.691Z" fill="white"/>
<g opacity="0.2">
<path opacity="0.2" d="M131.606 100.289L129.539 105.385C128.428 106.697 127.25 107.959 126.086 109.132L121.881 101.563L131.606 100.289Z" fill="white"/>
<path opacity="0.2" d="M96.0023 95.4184L87.6965 95.8789C88.9845 94.6437 90.3472 93.4831 91.7775 92.4033L96.0023 95.4184Z" fill="white"/>
<path opacity="0.2" d="M105.583 75.2402L104.694 83.5664L98.808 79.2709C98.827 78.3694 98.9035 77.4699 99.0368 76.5775L105.583 75.2402Z" fill="white"/>
<path opacity="0.2" d="M108.304 97.1783L105.583 89.1801L113.856 87.7041L108.304 97.1783Z" fill="white"/>
<path opacity="0.2" d="M122.535 89.5591V95.5451L128.473 93.4888L122.535 89.5591Z" fill="white"/>
<path opacity="0.2" d="M107.258 106.899L104.465 110.683C103.124 110.166 101.731 109.68 100.312 109.27L98.2063 104.641L107.258 106.899Z" fill="white"/>
<path opacity="0.2" d="M86.0418 101.159L90.3125 102.906L86.0418 105.713V101.159Z" fill="white"/>
<path opacity="0.2" d="M80.8228 109.781C76.5719 111.213 75.048 112.891 75.048 112.891C75.9971 111.024 77.0516 109.209 78.2069 107.454L80.8228 109.781Z" fill="white"/>
<path opacity="0.2" d="M115.72 102.036L112.045 105.713L117.604 106.653L115.72 102.036Z" fill="white"/>
<path opacity="0.2" d="M115.72 78.9494L120.043 84.5633L123.137 78.2051L115.72 78.9494Z" fill="white"/>
<path opacity="0.2" d="M135.295 84.8913L129.768 81.3843L133.751 78.4512C134.314 80.3939 134.876 82.5827 135.295 84.8913Z" fill="white"/>
<path opacity="0.2" d="M136.105 92.5991C135.986 94.1771 135.588 95.7237 134.928 97.1722L132.613 91.6782L136.105 92.5991Z" fill="white"/>
<path opacity="0.2" d="M131.063 70.7492L127.564 74.2311L126.256 71.0268C127.747 70.8712 129.297 70.6609 130.906 70.396L131.063 70.7492Z" fill="white"/>
<path opacity="0.2" d="M113.065 71.4556L110.495 76.7036L106.506 70.8438C108.68 71.1569 110.869 71.3611 113.065 71.4556Z" fill="white"/>
</g>
<path opacity="0.2" d="M136.112 91.6909C136.128 91.9934 136.128 92.2966 136.112 92.5992C136.085 93.0671 136.026 93.5328 135.936 93.9932C131.357 86.9916 132.443 80.6587 132.443 80.6587L134.608 81.649C134.856 82.6898 135.092 83.7747 135.301 84.8912C135.724 87.1384 135.995 89.4098 136.112 91.6909Z" fill="black"/>
<path d="M117.565 42.5222C125.328 39.9423 127.277 49.9148 119.566 56.6578C111.855 63.4007 103 64.227 101.993 60.8082C100.986 57.3895 105.714 46.4771 117.565 42.5222Z" fill="#01635D"/>
<path d="M109.789 42.0176C113.771 42.0176 119.429 45.9284 119.429 45.9284C119.429 45.9284 120.24 50.0914 116.27 53.7499C112.3 57.4084 108.716 57.9887 106.506 56.5695C104.295 55.1502 103.68 49.631 103.68 49.631C103.882 48.9781 104.244 48.382 104.736 47.8932C105.228 47.4045 105.835 47.0377 106.506 46.8241C106.506 46.8241 107.16 42.0617 109.789 42.0176Z" fill="#01635D"/>
<path opacity="0.2" d="M116.27 53.7501C112.3 57.4086 108.729 57.9889 106.506 56.576C106.118 56.3136 105.789 55.979 105.538 55.592C104.099 53.5041 103.68 49.6501 103.68 49.6501C107.473 54.0655 111.868 49.505 112.477 46.4269C112.657 45.6958 112.659 44.9343 112.483 44.2023C112.307 43.4702 111.958 42.7873 111.463 42.207C114.079 42.7495 116.943 44.3643 118.421 45.2789C119.075 45.6637 119.429 45.9097 119.429 45.9097C119.429 45.9097 120.24 50.0917 116.27 53.7501Z" fill="black"/>
<path opacity="0.6" d="M116.27 53.7501C112.3 57.4085 108.729 57.9888 106.505 56.5759C106.118 56.3135 105.789 55.979 105.538 55.5919C109.514 56.7336 114.249 54.835 116.793 51.4225C118.142 49.6561 118.726 47.4529 118.421 45.2788C119.075 45.6636 119.429 45.9096 119.429 45.9096C119.429 45.9096 120.239 50.0916 116.27 53.7501Z" fill="white"/>
<path d="M130.913 70.3961C130.913 70.3961 127.845 76.3758 135.295 85.8563L151.716 74.2312L145.176 62.7827L130.913 70.3961Z" fill="#01635D"/>
<path opacity="0.6" d="M151.716 74.2311L147.433 77.2651L141.095 81.7625L135.294 85.8751C134.915 85.3957 134.569 84.9227 134.242 84.4622C133.577 83.5237 132.974 82.5463 132.436 81.5354C131.11 79.1871 130.377 76.5699 130.298 73.8968C130.254 72.6981 130.477 71.5043 130.952 70.396L134.601 68.4406L140.886 65.0786L143.646 63.5963L145.203 62.7637L151.716 74.2311Z" fill="white"/>
<g opacity="0.2">
<path opacity="0.2" d="M147.433 77.2459L141.095 81.7433L138.303 75.751L147.433 77.2459Z" fill="white"/>
<path opacity="0.2" d="M146.844 67.6079L140.997 69.8408L140.847 65.0785L143.607 63.5962L146.844 67.6079Z" fill="white"/>
<path opacity="0.2" d="M136.655 72.3008L130.298 73.8966C130.254 72.698 130.477 71.5041 130.952 70.3958L134.601 68.4404L136.655 72.3008Z" fill="white"/>
<path opacity="0.2" d="M135.294 79.9517L134.222 84.4428C133.558 83.5043 132.955 82.5268 132.417 81.516L135.294 79.9517Z" fill="white"/>
</g>
<path d="M175.712 178.062L165.614 177.293L168.949 136.223L179.08 136.986L175.712 178.062ZM167.687 175.539L173.907 176.006L176.935 138.708L170.722 138.242L167.687 175.539Z" fill="#263238"/>
<path d="M168.734 231.003L170.042 231.104C170.406 231.099 170.767 231.167 171.102 231.304C171.437 231.442 171.739 231.645 171.988 231.901C172.237 232.157 172.428 232.461 172.548 232.792C172.669 233.124 172.716 233.476 172.687 233.826C172.658 234.176 172.554 234.517 172.381 234.826C172.208 235.135 171.97 235.406 171.682 235.621C171.394 235.836 171.063 235.991 170.71 236.075C170.356 236.16 169.988 236.172 169.63 236.112L168.322 236.011C167.957 236.017 167.596 235.949 167.26 235.813C166.924 235.676 166.622 235.473 166.372 235.217C166.123 234.961 165.931 234.658 165.81 234.326C165.689 233.995 165.641 233.642 165.67 233.292C165.698 232.942 165.802 232.601 165.975 232.291C166.148 231.982 166.386 231.711 166.674 231.495C166.961 231.28 167.293 231.125 167.646 231.04C168 230.955 168.368 230.942 168.727 231.003H168.734Z" fill="#263238"/>
<path opacity="0.1" d="M165.889 233.261C165.846 233.766 165.96 234.272 166.216 234.715C166.472 235.158 166.858 235.517 167.326 235.748C167.794 235.979 168.323 236.07 168.845 236.011C169.367 235.952 169.859 235.745 170.259 235.416C170.658 235.087 170.948 234.651 171.091 234.163C171.233 233.675 171.223 233.158 171.06 232.675C170.898 232.193 170.59 231.769 170.177 231.455C169.764 231.142 169.264 230.954 168.74 230.915C168.392 230.883 168.041 230.92 167.708 231.022C167.375 231.124 167.067 231.289 166.801 231.508C166.535 231.726 166.318 231.994 166.161 232.295C166.004 232.596 165.912 232.925 165.889 233.261Z" fill="white"/>
<path d="M161.592 230.467L162.9 230.561C163.264 230.555 163.626 230.623 163.961 230.76C164.297 230.896 164.6 231.099 164.849 231.355C165.099 231.611 165.29 231.915 165.411 232.246C165.532 232.578 165.58 232.93 165.552 233.28C165.523 233.631 165.419 233.972 165.247 234.281C165.074 234.59 164.836 234.862 164.548 235.077C164.26 235.293 163.929 235.448 163.575 235.533C163.221 235.617 162.853 235.63 162.494 235.57L161.186 235.475C160.822 235.481 160.46 235.413 160.125 235.277C159.789 235.14 159.487 234.937 159.237 234.681C158.987 234.425 158.796 234.121 158.675 233.79C158.554 233.458 158.506 233.106 158.535 232.756C158.563 232.405 158.667 232.065 158.84 231.755C159.013 231.446 159.251 231.175 159.538 230.959C159.826 230.744 160.158 230.589 160.511 230.504C160.865 230.419 161.233 230.406 161.592 230.467Z" fill="#263238"/>
<path opacity="0.2" d="M158.747 232.725C158.706 233.23 158.821 233.735 159.078 234.177C159.335 234.619 159.722 234.978 160.19 235.208C160.658 235.437 161.186 235.528 161.708 235.468C162.229 235.408 162.721 235.201 163.12 234.871C163.519 234.542 163.808 234.106 163.95 233.618C164.092 233.13 164.081 232.613 163.918 232.131C163.755 231.649 163.448 231.225 163.035 230.912C162.622 230.599 162.122 230.411 161.598 230.372C160.897 230.321 160.204 230.54 159.67 230.981C159.135 231.422 158.804 232.049 158.747 232.725Z" fill="white"/>
<path d="M160.402 231.224L170.521 231.989C171.489 232.062 172.336 231.364 172.412 230.43L177.231 171.111C177.307 170.176 176.583 169.36 175.614 169.287L165.495 168.522C164.527 168.449 163.68 169.147 163.604 170.081L158.785 229.4C158.709 230.334 159.433 231.151 160.402 231.224Z" fill="#263238"/>
<path opacity="0.2" d="M165.453 231.597L170.526 231.98C171.495 232.053 172.341 231.355 172.417 230.421L177.236 171.102C177.312 170.168 176.588 169.351 175.62 169.278L170.547 168.895C169.578 168.822 168.732 169.52 168.656 170.454L163.837 229.773C163.761 230.707 164.485 231.524 165.453 231.597Z" fill="white"/>
<path d="M169.422 137.598L177.957 138.257C178.679 138.313 179.311 137.793 179.369 137.096L179.434 136.321C179.491 135.624 178.953 135.014 178.23 134.958L169.695 134.3C168.973 134.244 168.341 134.763 168.283 135.46L168.218 136.236C168.161 136.933 168.699 137.543 169.422 137.598Z" fill="#263238"/>
<path opacity="0.2" d="M169.422 137.598L177.957 138.257C178.679 138.313 179.311 137.793 179.369 137.096L179.434 136.321C179.491 135.624 178.953 135.014 178.23 134.958L169.695 134.3C168.973 134.244 168.341 134.763 168.283 135.46L168.218 136.236C168.161 136.933 168.699 137.543 169.422 137.598Z" fill="white"/>
<path opacity="0.2" d="M169.618 138.418L170.328 138.472C171.049 138.526 171.678 138.007 171.734 137.312L171.797 136.539C171.853 135.844 171.315 135.237 170.595 135.183L169.884 135.129C169.164 135.075 168.535 135.594 168.478 136.288L168.416 137.062C168.359 137.757 168.897 138.364 169.618 138.418Z" fill="black"/>
<path d="M196.051 175.558L191.696 229.174C191.619 230.12 191.155 230.999 190.407 231.616C189.659 232.234 188.688 232.539 187.706 232.466L167.432 230.934C166.745 230.877 166.108 230.561 165.661 230.054C165.214 229.548 164.993 228.891 165.045 228.228L169.538 172.486C169.595 171.823 169.921 171.209 170.445 170.776C170.969 170.344 171.649 170.129 172.337 170.178L192.611 171.71C193.099 171.744 193.576 171.87 194.014 172.082C194.451 172.294 194.841 172.587 195.161 172.945C195.48 173.302 195.723 173.717 195.876 174.166C196.029 174.614 196.089 175.087 196.051 175.558Z" fill="#01635D"/>
<path opacity="0.2" d="M196.051 175.558L191.696 229.174C191.619 230.12 191.155 230.999 190.407 231.616C189.659 232.234 188.688 232.539 187.706 232.466L167.432 230.934C166.745 230.877 166.108 230.561 165.661 230.054C165.214 229.548 164.993 228.891 165.045 228.228L169.538 172.486C169.595 171.823 169.921 171.209 170.445 170.776C170.969 170.344 171.649 170.129 172.337 170.178L192.611 171.71C193.099 171.744 193.576 171.87 194.014 172.082C194.451 172.294 194.841 172.587 195.161 172.945C195.48 173.302 195.723 173.717 195.876 174.166C196.029 174.614 196.089 175.087 196.051 175.558Z" fill="white"/>
<path opacity="0.2" d="M182.108 170.916V170.991L181.382 170.935C180.693 170.886 180.012 171.102 179.488 171.536C178.963 171.969 178.638 172.585 178.583 173.25L174.057 228.972C174.016 229.531 174.169 230.088 174.492 230.554C174.816 231.02 175.291 231.369 175.843 231.545L167.412 230.915C166.725 230.86 166.088 230.545 165.64 230.04C165.191 229.534 164.968 228.878 165.019 228.215L169.538 172.493C169.593 171.828 169.918 171.212 170.443 170.779C170.967 170.345 171.648 170.129 172.337 170.178L182.108 170.916Z" fill="black"/>
<path opacity="0.2" d="M181.936 172.869L181.636 172.846C181.244 172.817 180.901 173.099 180.87 173.478L176.432 228.106C176.402 228.484 176.695 228.815 177.087 228.845L177.387 228.867C177.78 228.897 178.123 228.614 178.154 228.236L182.591 173.608C182.622 173.229 182.329 172.899 181.936 172.869Z" fill="black"/>
<path opacity="0.2" d="M185.997 173.445L185.697 173.422C185.305 173.392 184.962 173.675 184.931 174.054L180.493 228.681C180.462 229.06 180.756 229.391 181.148 229.42L181.448 229.443C181.841 229.473 182.184 229.19 182.214 228.811L186.652 174.184C186.683 173.805 186.39 173.474 185.997 173.445Z" fill="black"/>
<path opacity="0.2" d="M190.06 173.68L189.76 173.657C189.367 173.628 189.024 173.91 188.994 174.289L184.556 228.917C184.525 229.295 184.818 229.626 185.211 229.656L185.511 229.678C185.903 229.708 186.246 229.425 186.277 229.047L190.715 174.419C190.746 174.04 190.452 173.71 190.06 173.68Z" fill="black"/>
<path opacity="0.2" d="M194.11 173.908L193.81 173.886C193.418 173.856 193.075 174.139 193.044 174.517L188.606 229.145C188.575 229.524 188.869 229.855 189.261 229.884L189.561 229.907C189.953 229.937 190.297 229.654 190.327 229.275L194.765 174.648C194.796 174.269 194.503 173.938 194.11 173.908Z" fill="black"/>
<line x1="16" y1="258.5" x2="327" y2="258.5" stroke="#050505" stroke-dasharray="8 8"/>
<path d="M157.38 282.04V284.3H153.66V296H150.86V284.3H147.14V282.04H157.38ZM162.223 286.64C162.583 286.053 163.05 285.593 163.623 285.26C164.21 284.927 164.876 284.76 165.623 284.76V287.7H164.883C164.003 287.7 163.336 287.907 162.883 288.32C162.443 288.733 162.223 289.453 162.223 290.48V296H159.423V284.92H162.223V286.64ZM168.929 283.6C168.436 283.6 168.022 283.447 167.689 283.14C167.369 282.82 167.209 282.427 167.209 281.96C167.209 281.493 167.369 281.107 167.689 280.8C168.022 280.48 168.436 280.32 168.929 280.32C169.422 280.32 169.829 280.48 170.149 280.8C170.482 281.107 170.649 281.493 170.649 281.96C170.649 282.427 170.482 282.82 170.149 283.14C169.829 283.447 169.422 283.6 168.929 283.6ZM170.309 284.92V296H167.509V284.92H170.309ZM175.875 286.52C176.235 286.013 176.729 285.593 177.355 285.26C177.995 284.913 178.722 284.74 179.535 284.74C180.482 284.74 181.335 284.973 182.095 285.44C182.869 285.907 183.475 286.573 183.915 287.44C184.369 288.293 184.595 289.287 184.595 290.42C184.595 291.553 184.369 292.56 183.915 293.44C183.475 294.307 182.869 294.98 182.095 295.46C181.335 295.94 180.482 296.18 179.535 296.18C178.722 296.18 178.002 296.013 177.375 295.68C176.762 295.347 176.262 294.927 175.875 294.42V301.28H173.075V284.92H175.875V286.52ZM181.735 290.42C181.735 289.753 181.595 289.18 181.315 288.7C181.049 288.207 180.689 287.833 180.235 287.58C179.795 287.327 179.315 287.2 178.795 287.2C178.289 287.2 177.809 287.333 177.355 287.6C176.915 287.853 176.555 288.227 176.275 288.72C176.009 289.213 175.875 289.793 175.875 290.46C175.875 291.127 176.009 291.707 176.275 292.2C176.555 292.693 176.915 293.073 177.355 293.34C177.809 293.593 178.289 293.72 178.795 293.72C179.315 293.72 179.795 293.587 180.235 293.32C180.689 293.053 181.049 292.673 181.315 292.18C181.595 291.687 181.735 291.1 181.735 290.42ZM190.87 296.18C189.963 296.18 189.15 296.02 188.43 295.7C187.71 295.367 187.137 294.92 186.71 294.36C186.297 293.8 186.07 293.18 186.03 292.5H188.85C188.903 292.927 189.11 293.28 189.47 293.56C189.843 293.84 190.303 293.98 190.85 293.98C191.383 293.98 191.797 293.873 192.09 293.66C192.397 293.447 192.55 293.173 192.55 292.84C192.55 292.48 192.363 292.213 191.99 292.04C191.63 291.853 191.05 291.653 190.25 291.44C189.423 291.24 188.743 291.033 188.21 290.82C187.69 290.607 187.237 290.28 186.85 289.84C186.477 289.4 186.29 288.807 186.29 288.06C186.29 287.447 186.463 286.887 186.81 286.38C187.17 285.873 187.677 285.473 188.33 285.18C188.997 284.887 189.777 284.74 190.67 284.74C191.99 284.74 193.043 285.073 193.83 285.74C194.617 286.393 195.05 287.28 195.13 288.4H192.45C192.41 287.96 192.223 287.613 191.89 287.36C191.57 287.093 191.137 286.96 190.59 286.96C190.083 286.96 189.69 287.053 189.41 287.24C189.143 287.427 189.01 287.687 189.01 288.02C189.01 288.393 189.197 288.68 189.57 288.88C189.943 289.067 190.523 289.26 191.31 289.46C192.11 289.66 192.77 289.867 193.29 290.08C193.81 290.293 194.257 290.627 194.63 291.08C195.017 291.52 195.217 292.107 195.23 292.84C195.23 293.48 195.05 294.053 194.69 294.56C194.343 295.067 193.837 295.467 193.17 295.76C192.517 296.04 191.75 296.18 190.87 296.18Z" fill="#050505"/>
</svg>
